<svg id="color" enable-background="new 0 0 24 24" height="512" viewBox="0 0 24 24" width="512" xmlns="http://www.w3.org/2000/svg"><path d="m15.25 24h-12.5c-1.517 0-2.75-1.233-2.75-2.75v-15.5c0-1.517 1.233-2.75 2.75-2.75h12.5c1.517 0 2.75 1.233 2.75 2.75v15.5c0 1.517-1.233 2.75-2.75 2.75z" fill="#cfd8dc"/><path d="m12.25 6h-6.5c-.965 0-1.75-.785-1.75-1.75v-1.5c0-.414.336-.75.75-.75h1.603c.329-1.153 1.39-2 2.647-2s2.318.847 2.646 2h1.603c.415 0 .751.336.751.75v1.5c0 .965-.785 1.75-1.75 1.75z" fill="#2196f3"/><path d="m4 3h-1.25c-1.517 0-2.75 1.233-2.75 2.75v15.5c0 1.517 1.233 2.75 2.75 2.75h6.25v-18h-3.25c-.965 0-1.75-.785-1.75-1.75z" fill="#b4bcc0"/><path d="m9 0c-1.257 0-2.318.847-2.646 2h-1.604c-.414 0-.75.336-.75.75v.25 1.25c0 .965.785 1.75 1.75 1.75h3.25z" fill="#1d83d4"/><path d="m7.25 13.75h-3.5c-.553 0-1-.448-1-1v-3.5c0-.552.447-1 1-1h3.5c.553 0 1 .448 1 1v3.5c0 .552-.447 1-1 1z" fill="#fff"/><path d="m7.25 21.25h-3.5c-.553 0-1-.448-1-1v-3.5c0-.552.447-1 1-1h3.5c.553 0 1 .448 1 1v3.5c0 .552-.447 1-1 1z" fill="#fff"/><path d="m8.25 11h-5.5v1.75c0 .552.447 1 1 1h3.5c.553 0 1-.448 1-1z" fill="#dedede"/><path d="m8.25 18.313h-5.5v1.937c0 .552.447 1 1 1h3.5c.553 0 1-.448 1-1z" fill="#dedede"/><path d="m14.5 10.75h-4c-.553 0-1-.448-1-1s.447-1 1-1h4c.553 0 1 .448 1 1s-.447 1-1 1z" fill="#fff"/><path d="m15.5 9.75h-6c0 .552.447 1 1 1h4c.553 0 1-.448 1-1z" fill="#dedede"/><path d="m18 12c-3.309 0-6 2.692-6 6 0 3.309 2.691 6 6 6s6-2.691 6-6-2.691-6-6-6z" fill="#4caf50"/><path d="m20.75 18.999h-1.75v1.75c0 .552-.447 1-1 1s-1-.448-1-1v-1.75h-1.75c-.553 0-1-.448-1-1s.447-1 1-1h1.75v-1.75c0-.552.447-1 1-1s1 .448 1 1v1.751h1.75c.553 0 1 .448 1 1s-.447.999-1 .999z" fill="#fff"/><path d="m18 12c-3.309 0-6 2.692-6 6 0 3.309 2.691 6 6 6v-2.25c-.553 0-1-.448-1-1v-1.75h-1.75c-.553 0-1-.448-1-1s.447-1 1-1h1.75v-1.75c0-.552.447-1 1-1z" fill="#429846"/><path d="m18 14.249c-.553 0-1 .448-1 1v1.751h-1.75c-.553 0-1 .448-1 1s.447 1 1 1h1.75v1.75c0 .552.447 1 1 1z" fill="#dedede"/></svg>