<svg id="color" enable-background="new 0 0 24 24" height="512" viewBox="0 0 24 24" width="512" xmlns="http://www.w3.org/2000/svg"><path d="m12 22.25c-5.652 0-10.25-4.598-10.25-10.25s4.598-10.25 10.25-10.25 10.25 4.598 10.25 10.25-4.598 10.25-10.25 10.25z" fill="#64b5f6"/><path d="m12 3.75c-4.549 0-8.25 3.701-8.25 8.25s3.701 8.25 8.25 8.25 8.25-3.701 8.25-8.25-3.701-8.25-8.25-8.25z" fill="#eceff1"/><g fill="#2196f3"><path d="m12 24c-.553 0-1-.448-1-1v-2.391c0-.552.447-1 1-1s1 .448 1 1v2.391c0 .552-.447 1-1 1z"/><path d="m12 4.391c-.553 0-1-.448-1-1v-2.391c0-.552.447-1 1-1s1 .448 1 1v2.391c0 .552-.447 1-1 1z"/><path d="m3.392 13h-2.392c-.553 0-1-.448-1-1s.447-1 1-1h2.392c.553 0 1 .448 1 1s-.448 1-1 1z"/></g><path d="m3.8 12.913c-.125.056-.263.087-.408.087h-1.594c.472 4.855 4.346 8.729 9.202 9.202v-1.593c0-.146.031-.284.087-.409-3.821-.423-6.864-3.466-7.287-7.287zm7.2-11.115c-4.856.473-8.729 4.347-9.202 9.202h1.593c.146 0 .284.031.409.087.423-3.821 3.466-6.864 7.287-7.287-.056-.125-.087-.263-.087-.409z" fill="#579ed6"/><path d="m11.087 3.8c-3.821.423-6.864 3.466-7.287 7.287.349.156.592.506.592.913s-.243.757-.592.913c.423 3.821 3.466 6.864 7.287 7.287.156-.348.506-.591.913-.591v-15.218c-.407 0-.757-.242-.913-.591z" fill="#cdd0d2"/><path d="m12 19.609c-.407 0-.757.243-.913.591-.056.125-.087.263-.087.409v1.593.798c0 .552.447 1 1 1z" fill="#1d83d4"/><path d="m12 0c-.553 0-1 .448-1 1v.798 1.593c0 .146.031.284.087.409.156.349.506.591.913.591z" fill="#1d83d4"/><path d="m9.75 17.025c-2.294 0-3.085-3.042-1.167-4.158.358-.208.817-.086 1.025.272s.087.817-.271 1.025c-.602.35-.355 1.361.413 1.361.573 0 .907-.619.687-1.029-.193-.366-.054-.82.312-1.014.365-.195.819-.054 1.014.312.157.298.237.628.237.981 0 1.241-1.01 2.25-2.25 2.25z" fill="#ff9800"/><path d="m16.539 16.519-10.5-3.074.005-2.941 10.5-3z" fill="#ffc107"/><path d="m16.75 16.975c-.414 0-.75-.336-.75-.75v-8.5c0-.414.336-.75.75-.75s.75.336.75.75v8.5c0 .414-.336.75-.75.75z" fill="#ffb300"/><path d="m6.25 13.975c-.414 0-.75-.336-.75-.75v-2.5c0-.414.336-.75.75-.75s.75.336.75.75v2.5c0 .414-.336.75-.75.75z" fill="#ffb300"/><path d="m7.659 13.919c-.535 1.335.34 3.106 2.091 3.106 1.102 0 2.023-.797 2.214-1.846l-1.459-.427c.014.371-.292.773-.754.773-.658 0-.934-.743-.62-1.175z" fill="#de8400"/><path d="m16 12.011h-9v1.214c0 .171-.058.329-.154.456l.814.238 1.47.43 1.375.402 1.459.427 4.049 1.185c-.009-.044-.013-.09-.013-.138z" fill="#dea806"/><path d="m17.5 12.011h-1.5v4.214c0 .048.004.094.013.139.065.347.371.611.737.611.414 0 .75-.336.75-.75z" fill="#de9c00"/><path d="m7 12.011h-1.5v1.214c0 .414.336.75.75.75.243 0 .458-.115.596-.294.096-.126.154-.284.154-.456z" fill="#de9c00"/><path d="m23 13h-2.392c-.553 0-1-.448-1-1s.447-1 1-1h2.392c.553 0 1 .448 1 1s-.447 1-1 1z" fill="#2196f3"/><path d="m19.609 12c0 .407.243.757.591.913.125.056.263.087.409.087h1.593.798c.552 0 1-.447 1-1z" fill="#1d83d4"/><path d="m0 12c0 .553.448 1 1 1h.798 1.593c.146 0 .284-.031.409-.087.349-.156.591-.506.591-.913z" fill="#1d83d4"/></svg>