<svg id="color" enable-background="new 0 0 24 24" height="512" viewBox="0 0 24 24" width="512" xmlns="http://www.w3.org/2000/svg"><g fill="#607d8b"><path d="m23 15.429h-2.444c-.391 0-.745-.227-.908-.582s-.105-.771.148-1.068l1.222-1.429c.379-.444 1.139-.444 1.52 0l1.223 1.429c.254.297.312.714.148 1.069-.164.354-.518.581-.909.581z"/><path d="m3.444 15.429h-2.444c-.391 0-.745-.227-.908-.582s-.105-.772.148-1.069l1.223-1.429c.19-.221.468-.349.76-.349s.57.128.76.35l1.222 1.429c.254.297.312.714.148 1.068-.164.355-.518.582-.909.582z"/><path d="m12 24c-5.942 0-10.777-4.721-10.777-10.524 0-.552.447-1 1-1s1 .448 1 1c0 4.7 3.937 8.524 8.777 8.524s8.777-3.824 8.777-8.524c0-.552.447-1 1-1s1 .448 1 1c0 5.803-4.835 10.524-10.777 10.524z"/><path d="m12 23.75c-.553 0-1-.448-1-1v-17c0-.552.447-1 1-1s1 .448 1 1v17c0 .552-.447 1-1 1z"/><path d="m12 6.5c-1.792 0-3.25-1.458-3.25-3.25s1.458-3.25 3.25-3.25 3.25 1.458 3.25 3.25-1.458 3.25-3.25 3.25zm0-4.5c-.689 0-1.25.561-1.25 1.25s.561 1.25 1.25 1.25 1.25-.561 1.25-1.25-.561-1.25-1.25-1.25z"/><path d="m14.25 9.75h-4.5c-.553 0-1-.448-1-1s.447-1 1-1h4.5c.553 0 1 .448 1 1s-.447 1-1 1z"/></g><path d="m2.223 12c-.292 0-.569.128-.76.35l-1.223 1.428c-.254.297-.312.714-.148 1.069.163.355.517.582.908.582h.409c-.122-.633-.186-1.286-.186-1.953 0-.552.447-1 1-1s1 .448 1 1c0 .672.08 1.325.232 1.953.386-.004.736-.23.898-.581.163-.354.105-.771-.148-1.068l-1.223-1.43c-.189-.222-.467-.35-.759-.35z" fill="#546d79"/><path d="m2.223 12.476c-.553 0-1 .448-1 1 0 .667.064 1.32.186 1.953.94 4.873 5.332 8.571 10.591 8.571v-.25c-.553 0-1-.448-1-1v-.805c-3.699-.409-6.708-3.061-7.545-6.516-.152-.627-.232-1.281-.232-1.953 0-.552-.448-1-1-1z" fill="#546d79"/><path d="m12 9.75h-1v12.195.805c0 .552.447 1 1 1zm-1-3.407v1.407h1v-1.25c-.349 0-.685-.055-1-.157z" fill="#546d79"/><path d="m12 0c-1.792 0-3.25 1.458-3.25 3.25 0 1.443.946 2.67 2.25 3.093.315.102.651.157 1 .157v-2c-.689 0-1.25-.561-1.25-1.25s.561-1.25 1.25-1.25z" fill="#546d79"/><path d="m12 7.75h-1-1.25c-.553 0-1 .448-1 1s.447 1 1 1h1.25 1z" fill="#546d79"/></svg>