<svg id="color" enable-background="new 0 0 24 24" height="512" viewBox="0 0 24 24" width="512" xmlns="http://www.w3.org/2000/svg"><path d="m21 2h-18c-1.654 0-3 1.346-3 3v16c0 1.654 1.346 3 3 3h18c1.654 0 3-1.346 3-3v-16c0-1.654-1.346-3-3-3z" fill="#607d8b"/><path d="m21 22h-18c-.551 0-1-.448-1-1v-14h20v14c0 .552-.449 1-1 1z" fill="#eceff1"/><path d="m12 18c-1.93 0-3.5-1.57-3.5-3.5v-3c0-1.93 1.57-3.5 3.5-3.5s3.5 1.57 3.5 3.5v3c0 1.93-1.57 3.5-3.5 3.5z" fill="#2196f3"/><path d="m12 21c-3.309 0-6-2.58-6-5.75 0-.414.336-.75.75-.75s.75.336.75.75c0 2.343 2.019 4.25 4.5 4.25s4.5-1.907 4.5-4.25c0-.414.336-.75.75-.75s.75.336.75.75c0 3.17-2.691 5.75-6 5.75z" fill="#64b5f6"/><path d="m12 19.75c-.414 0-.75.336-.75.75v1.5h1.5v-1.5c0-.414-.336-.75-.75-.75z" fill="#64b5f6"/><path d="m12 2h-9c-1.654 0-3 1.346-3 3v16c0 1.654 1.346 3 3 3h9v-2h-9c-.551 0-1-.448-1-1v-14h10z" fill="#546d79"/><path d="m12 7h-10v14c0 .552.449 1 1 1h9-.75v-1.045c-2.956-.355-5.25-2.778-5.25-5.705 0-.414.336-.75.75-.75s.75.336.75.75c0 2.343 2.019 4.25 4.5 4.25v-1.5c-1.93 0-3.5-1.57-3.5-3.5v-3c0-1.93 1.57-3.5 3.5-3.5z" fill="#cdd0d2"/><path d="m12 8c-1.93 0-3.5 1.57-3.5 3.5v3c0 1.93 1.57 3.5 3.5 3.5z" fill="#1d83d4"/><path d="m6.75 14.5c-.414 0-.75.336-.75.75 0 2.927 2.294 5.35 5.25 5.705v-.455c0-.414.336-.75.75-.75v-.25c-2.481 0-4.5-1.907-4.5-4.25 0-.414-.336-.75-.75-.75z" fill="#579ed6"/><path d="m12 19.75c-.414 0-.75.336-.75.75v.455 1.045h.75z" fill="#579ed6"/><path d="m8.585 15.25h2.665c.414 0 .75-.336.75-.75s-.336-.75-.75-.75h-2.75v.75c0 .258.032.508.085.75z" fill="#90caf9"/><path d="m11.25 11.25h-2.725l-.025.25v1.25h2.75c.414 0 .75-.336.75-.75s-.336-.75-.75-.75z" fill="#90caf9"/><g fill="#7db0d9"><path d="m12 12h-3.5v.75h2.75c.414 0 .75-.336.75-.75z"/><path d="m12 14.5h-3.5v.75h2.75c.414 0 .75-.336.75-.75z"/></g></svg>