<svg id="color" enable-background="new 0 0 24 24" height="512" viewBox="0 0 24 24" width="512" xmlns="http://www.w3.org/2000/svg"><path d="m18 21v-19c0-1.105-.896-2-2-2h-14c-1.104 0-2 .895-2 2v19c0 1.657 1.343 3 3 3h18c-1.657 0-3-1.343-3-3z" fill="#eceff1"/><path d="m9 19.75c-.414 0-.75-.336-.75-.75v-2.25c0-.414.336-.75.75-.75s.75.336.75.75v2.25c0 .414-.336.75-.75.75z" fill="#64b5f6"/><path d="m11.25 20.25h-4.5c-.414 0-.75-.336-.75-.75s.336-.75.75-.75h4.5c.414 0 .75.336.75.75s-.336.75-.75.75z" fill="#64b5f6"/><path d="m9 14c-1.93 0-3.5-1.57-3.5-3.5v-3c0-1.93 1.57-3.5 3.5-3.5s3.5 1.57 3.5 3.5v3c0 1.93-1.57 3.5-3.5 3.5z" fill="#2196f3"/><path d="m9 17c-3.309 0-6-2.58-6-5.75 0-.414.336-.75.75-.75s.75.336.75.75c0 2.343 2.019 4.25 4.5 4.25s4.5-1.907 4.5-4.25c0-.414.336-.75.75-.75s.75.336.75.75c0 3.17-2.691 5.75-6 5.75z" fill="#64b5f6"/><path d="m9 0h-7c-1.104 0-2 .895-2 2v19c0 1.657 1.343 3 3 3h6v-3.75h-2.25c-.414 0-.75-.336-.75-.75s.336-.75.75-.75h1.5v-1.795c-2.956-.355-5.25-2.778-5.25-5.705 0-.414.336-.75.75-.75s.75.336.75.75c0 2.343 2.019 4.25 4.5 4.25v-1.5c-1.93 0-3.5-1.57-3.5-3.5v-3c0-1.93 1.57-3.5 3.5-3.5z" fill="#cdd0d2"/><path d="m8.25 16.955v1.795h.75v-1.75c-.254 0-.504-.015-.75-.045z" fill="#579ed6"/><path d="m9 18.75h-.75-1.5c-.414 0-.75.336-.75.75s.336.75.75.75h2.25z" fill="#579ed6"/><path d="m9 4c-1.93 0-3.5 1.57-3.5 3.5v3c0 1.93 1.57 3.5 3.5 3.5z" fill="#1d83d4"/><path d="m3.75 10.5c-.414 0-.75.336-.75.75 0 2.927 2.294 5.35 5.25 5.705.246.03.496.045.75.045v-1.5c-2.481 0-4.5-1.907-4.5-4.25 0-.414-.336-.75-.75-.75z" fill="#579ed6"/><path d="m22 4h-4v17c0 1.657 1.343 3 3 3 1.657 0 3-1.343 3-3v-15c0-1.105-.895-2-2-2z" fill="#607d8b"/><path d="m8.25 7.25h-2.725l-.025.25v1.25h2.75c.414 0 .75-.336.75-.75s-.336-.75-.75-.75z" fill="#90caf9"/><path d="m5.585 11.25h2.665c.414 0 .75-.336.75-.75s-.336-.75-.75-.75h-2.75v.75c0 .258.032.508.085.75z" fill="#90caf9"/><g fill="#7db0d9"><path d="m9 8h-3.5v.75h2.75c.414 0 .75-.336.75-.75z"/><path d="m9 10.5h-3.5c0 .258.032.508.085.75h2.665c.414 0 .75-.336.75-.75z"/></g></svg>