<svg id="color" enable-background="new 0 0 24 24" height="512" viewBox="0 0 24 24" width="512" xmlns="http://www.w3.org/2000/svg"><path d="m23 8.04h-22c-.552 0-1 .448-1 1v11.96c0 1.654 1.346 3 3 3h18c1.654 0 3-1.346 3-3v-11.96c0-.552-.448-1-1-1z" fill="#eceff1"/><path d="m21 3h-18c-1.657 0-3 1.343-3 3v3.04h24v-3.04c0-1.657-1.343-3-3-3z" fill="#607d8b"/><path d="m12 9.04h-12v11.96c0 1.654 1.346 3 3 3h9z" fill="#cdd0d2"/><path d="m12 3h-9c-1.657 0-3 1.343-3 3v3.04h12z" fill="#546d79"/><path d="m5.5 0h-.5c-.553 0-1 .447-1 1v4c0 .553.447 1 1 1h.5z" fill="#687d88"/><path d="m18.5 0h-.5c-.553 0-1 .447-1 1v4c0 .553.447 1 1 1h.5z" fill="#687d88"/><path d="m6 0h-1c-.552 0-1 .448-1 1v4c0 .552.448 1 1 1h1c.552 0 1-.448 1-1v-4c0-.552-.448-1-1-1z" fill="#78909c"/><path d="m19 0h-1c-.552 0-1 .448-1 1v4c0 .552.448 1 1 1h1c.552 0 1-.448 1-1v-4c0-.552-.448-1-1-1z" fill="#78909c"/><path d="m12 21c-1.93 0-3.5-1.57-3.5-3.5v-3c0-1.93 1.57-3.5 3.5-3.5s3.5 1.57 3.5 3.5v3c0 1.93-1.57 3.5-3.5 3.5z" fill="#2196f3"/><path d="m12 24c-3.309 0-6-2.58-6-5.75 0-.414.336-.75.75-.75s.75.336.75.75c0 2.343 2.019 4.25 4.5 4.25s4.5-1.907 4.5-4.25c0-.414.336-.75.75-.75s.75.336.75.75c0 3.17-2.691 5.75-6 5.75z" fill="#64b5f6"/><path d="m12 11c-1.93 0-3.5 1.57-3.5 3.5v3c0 1.93 1.57 3.5 3.5 3.5z" fill="#1d83d4"/><path d="m6.75 17.5c-.414 0-.75.336-.75.75 0 2.927 2.294 5.35 5.25 5.705.246.03.496.045.75.045v-1.5c-2.481 0-4.5-1.907-4.5-4.25 0-.414-.336-.75-.75-.75z" fill="#579ed6"/><path d="m11.25 14.25h-2.725c-.006.084-.025.164-.025.25v1.25h2.75c.414 0 .75-.336.75-.75s-.336-.75-.75-.75z" fill="#90caf9"/><path d="m8.585 18.25h2.665c.414 0 .75-.336.75-.75s-.336-.75-.75-.75h-2.75v.75c0 .258.032.508.085.75z" fill="#90caf9"/><g fill="#7db0d9"><path d="m12 15h-3.5v.75h2.75c.414 0 .75-.336.75-.75z"/><path d="m12 17.5h-3.5c0 .258.032.508.085.75h2.665c.414 0 .75-.336.75-.75z"/></g></svg>