<svg id="color" enable-background="new 0 0 24 24" height="512" viewBox="0 0 24 24" width="512" xmlns="http://www.w3.org/2000/svg"><path d="m21.25 4h-1.25v-3.25c0-.41-.34-.75-.75-.75h-15.5c-1.52 0-2.75 1.23-2.75 2.75v18.5c0 1.52 1.23 2.75 2.75 2.75h17.5c.41 0 .75-.34.75-.75v-18.5c0-.41-.34-.75-.75-.75zm-2.75 0h-5.5v14.25c0 .27-.15.52-.38.65-.225.131-.503.14-.76-.01l-2.86-1.76-2.86 1.76c-.229.14-.52.15-.76.01-.23-.13-.38-.38-.38-.65v-14.25h-1.25c-.69 0-1.25-.56-1.25-1.25s.56-1.25 1.25-1.25h14.75z" fill="#607d8b"/><path d="m12 0h-8.25c-1.52 0-2.75 1.23-2.75 2.75v18.5c0 1.52 1.23 2.75 2.75 2.75h8.25v-5.044c-.047-.017-.094-.039-.14-.065l-2.86-1.761-2.86 1.76c-.119.072-.254.11-.39.11-.127 0-.254-.033-.37-.1-.23-.13-.38-.38-.38-.65v-14.25h-1.25c-.69 0-1.25-.56-1.25-1.25s.56-1.25 1.25-1.25h8.25z" fill="#546d79"/><path d="m13 4v14.25c0 .27-.15.52-.38.65-.225.131-.503.14-.76-.01l-2.86-1.76-2.86 1.76c-.229.14-.52.15-.76.01-.23-.13-.38-.38-.38-.65v-14.25z" fill="#ffc107"/><path d="m9 4h-4v14.25c0 .27.15.52.38.65.116.067.243.1.37.1.136 0 .271-.038.39-.11l2.86-1.76z" fill="#dea806"/></svg>