<svg id="color" enable-background="new 0 0 24 24" height="512" viewBox="0 0 24 24" width="512" xmlns="http://www.w3.org/2000/svg"><path d="m21 0h-18c-1.654 0-3 1.346-3 3v16c0 1.654 1.346 3 3 3h18c1.654 0 3-1.346 3-3v-16c0-1.654-1.346-3-3-3z" fill="#607d8b"/><path d="m21 20h-18c-.551 0-1-.448-1-1v-14h20v14c0 .552-.449 1-1 1z" fill="#fff"/><path d="m12 0h-9c-1.654 0-3 1.346-3 3v16c0 1.654 1.346 3 3 3h9v-2h-9c-.551 0-1-.448-1-1v-14h10z" fill="#546d79"/><path d="m12 5h-10v14c0 .552.449 1 1 1h9z" fill="#dedede"/><path d="m13.916 12.553c-.59.589-1.406.949-2.303.949l-4.369-.007c-.863.005-1.681-.332-2.296-.947-.615-.616-.953-1.434-.948-2.303-.018-1.695 1.509-3.242 3.246-3.243l.792.001c.414 0 .75.336.75.75 0 .415-.337.75-.75.75h-.791c-.931 0-1.757.828-1.746 1.738-.003.478.178.915.508 1.246s.769.51 1.233.508l4.373.007c.903.001 1.652-.676 1.741-1.573.04-.409.408-.713.821-.671.413.041.713.408.672.821-.078.775-.42 1.461-.933 1.974z" fill="#cfd8dc"/><path d="m19.052 12.549c-.616.616-1.434.953-2.302.949l-.76-.001c-.414 0-.75-.336-.75-.75s.337-.751.751-.75l.763.001c.468.002.906-.178 1.237-.509s.51-.768.508-1.233c.002-.473-.178-.911-.508-1.241-.33-.331-.768-.512-1.233-.509l-4.373-.007c-.87 0-1.659.72-1.741 1.57-.039.411-.404.714-.817.675-.413-.04-.715-.405-.675-.818.151-1.589 1.619-2.927 3.235-2.927l4.369.007c.863-.006 1.681.332 2.297.948s.952 1.433.947 2.302c.005.859-.332 1.677-.948 2.293z" fill="#cfd8dc"/><path d="m14.808 10.248h-1.411c-.021.057-.035.118-.041.181-.089.897-.837 1.573-1.74 1.573h-.001l-4.373-.007c-.003 0-.005 0-.008 0-.462 0-.897-.18-1.225-.508-.329-.329-.51-.764-.508-1.238h-1.501c-.004.868.333 1.684.948 2.299.611.611 1.421.947 2.278.947h.019l4.369.007c.897 0 1.713-.359 2.303-.949.512-.513.854-1.199.932-1.974.011-.116-.004-.229-.041-.331z" fill="#b4bcc0"/><path d="m10.605 10.248h-1.413c.095.266.336.466.636.495.024.002.048.003.072.003.319.001.6-.204.705-.498zm9.395 0h-1.5v.007c.002.465-.178.902-.508 1.233-.329.329-.763.509-1.227.509-.003 0-.006 0-.009 0l-.763-.001c-.001 0-.001 0-.001 0-.414 0-.75.337-.75.75 0 .414.336.75.75.75l.76.001h.015c.863 0 1.675-.337 2.287-.949v-.001c.615-.615.952-1.433.947-2.293-.001-.001-.001-.004-.001-.006z" fill="#b4bcc0"/><path d="m17.25 24c-.204 0-.404-.083-.548-.238l-3.5-3.75c-.269-.288-.269-.735 0-1.023l3.5-3.75c.21-.226.537-.299.823-.186.287.112.475.389.475.697v7.5c0 .308-.188.585-.475.698-.089.035-.183.052-.275.052z" fill="#2196f3"/><path d="m23 20.5h-7.91c-.552 0-1-.448-1-1s.448-1 1-1h7.91c.552 0 1 .448 1 1s-.448 1-1 1z" fill="#2196f3"/><g fill="#1d83d4"><path d="m14.09 19.5h-1.09c0 .184.067.368.202.512l3.5 3.75c.144.155.344.238.548.238.092 0 .186-.017.275-.052.287-.113.475-.39.475-.698v-2.75h-2.91c-.552 0-1-.448-1-1z"/><path d="m24 19.5h-9.91c0 .552.448 1 1 1h2.91 5c.552 0 1-.448 1-1z"/></g></svg>