<svg id="color" enable-background="new 0 0 24 24" height="512" viewBox="0 0 24 24" width="512" xmlns="http://www.w3.org/2000/svg"><path d="m21 1h-18c-1.654 0-3 1.346-3 3v16c0 1.654 1.346 3 3 3h18c1.654 0 3-1.346 3-3v-16c0-1.654-1.346-3-3-3z" fill="#607d8b"/><path d="m21 21h-18c-.551 0-1-.448-1-1v-14h20v14c0 .552-.449 1-1 1z" fill="#fff"/><path d="m12 1h-9c-1.654 0-3 1.346-3 3v16c0 1.654 1.346 3 3 3h9v-2h-9c-.551 0-1-.448-1-1v-14h10z" fill="#546d79"/><path d="m12 6h-10v14c0 .552.449 1 1 1h9z" fill="#cdd0d2"/><path d="m19.5 10.5c-.827 0-1.5-.673-1.5-1.5s.673-1.5 1.5-1.5 1.5.673 1.5 1.5-.673 1.5-1.5 1.5z" fill="#607d8b"/><path d="m19.5 7.5c-.827 0-1.5.673-1.5 1.5s.673 1.5 1.5 1.5z" fill="#546d79"/><path d="m12 11.75-.099-.006-7.5-1c-.411-.055-.699-.432-.645-.843.055-.411.436-.696.843-.645l7.353.98 7.355-1.961c.404-.105.812.132.918.531.106.4-.131.811-.531.918l-7.5 2z" fill="#b0bec5"/><path d="m4.503 9.25c-.369 0-.697.272-.747.651-.055.411.233.788.645.843l7.5 1 .099.006v-1.526l-.049.013-7.353-.98c-.031-.005-.063-.007-.095-.007z" fill="#99a5ac"/><path d="m4.5 11.5c-.827 0-1.5-.673-1.5-1.5s.673-1.5 1.5-1.5 1.5.673 1.5 1.5-.673 1.5-1.5 1.5z" fill="#607d8b"/><path d="m12 12.5c-.827 0-1.5-.673-1.5-1.5s.673-1.5 1.5-1.5 1.5.673 1.5 1.5-.673 1.5-1.5 1.5z" fill="#607d8b"/><path d="m4.5 8.5c-.827 0-1.5.673-1.5 1.5s.673 1.5 1.5 1.5z" fill="#546d79"/><path d="m12 9.5c-.827 0-1.5.673-1.5 1.5s.673 1.5 1.5 1.5z" fill="#546d79"/><path d="m12 19.25c-.553 0-1-.448-1-1v-3c0-.552.447-1 1-1s1 .448 1 1v3c0 .552-.447 1-1 1z" fill="#2196f3"/><path d="m19.25 19.75h-14.5c-.553 0-1-.448-1-1v-4.5c0-.552.447-1 1-1s1 .448 1 1v3.5h12.5v-4.5c0-.552.447-1 1-1s1 .448 1 1v5.5c0 .552-.447 1-1 1z" fill="#2196f3"/><g fill="#1d83d4"><path d="m12 14.25c-.553 0-1 .448-1 1v2.5h1z"/><path d="m4.75 13.25c-.553 0-1 .448-1 1v4.5c0 .552.447 1 1 1h7.25v-2h-1-5.25v-3.5c0-.552-.447-1-1-1z"/></g></svg>