<svg id="color" enable-background="new 0 0 24 24" height="512" viewBox="0 0 24 24" width="512" xmlns="http://www.w3.org/2000/svg"><path d="m2.133 2.112v16.907 4.981h13.867c1.472 0 2.667-1.184 2.667-2.646v-18.688c0-.736.299-1.397.779-1.888.49-.479 1.151-.778 1.887-.778h-17.066c-1.174 0-2.134.949-2.134 2.112z" fill="#eceff1"/><path d="m1 19.019c-.552 0-1 .448-1 1v1.87c0 1.162.96 2.111 2.133 2.111h13.867c-.736 0-1.397-.299-1.888-.779-.48-.469-.778-1.13-.778-1.867v-1.336c0-.552-.448-1-1-1h-11.334z" fill="#607d8b"/><path d="m10.526 0h-6.26c-1.173 0-2.133.949-2.133 2.112v16.907h8.393z" fill="#cdd0d2"/><path d="m10.526 19.019h-8.393-1.133c-.552 0-1 .448-1 1v1.87c0 1.162.96 2.111 2.133 2.111h8.393z" fill="#546d79"/><path d="m18.667 2.667v1.557h4.333c.552 0 1-.448 1-1v-.557c0-1.291-.917-2.368-2.133-2.613-.171-.033-.352-.054-.534-.054-.736 0-1.397.299-1.888.779-.48.49-.778 1.152-.778 1.888z" fill="#607d8b"/><g fill="#b0bec5"><path d="m10.21 14.25h-4.41c-.552 0-1-.448-1-1s.448-1 1-1h4.41c.552 0 1 .448 1 1s-.448 1-1 1z"/><path d="m14.31 10.25h-8.51c-.552 0-1-.448-1-1s.448-1 1-1h8.51c.552 0 1 .448 1 1s-.448 1-1 1z"/><path d="m15.25 6.25h-9.447c-.552 0-1-.448-1-1s.448-1 1-1h9.447c.552 0 1 .448 1 1s-.448 1-1 1z"/></g><path d="m16.25 5.25h-11.447c0 .552.448 1 1 1h9.447c.552 0 1-.448 1-1z" fill="#99a5ac"/><path d="m15.31 9.25h-10.51c0 .552.448 1 1 1h8.51c.552 0 1-.448 1-1z" fill="#99a5ac"/><path d="m11.21 13.25h-6.41c0 .552.448 1 1 1h4.41c.552 0 1-.448 1-1z" fill="#99a5ac"/><path d="m17.5 24c-3.584 0-6.5-2.916-6.5-6.5s2.916-6.5 6.5-6.5 6.5 2.916 6.5 6.5-2.916 6.5-6.5 6.5z" fill="#39b54a"/><path d="m19.896 20.896c-.219 0-.44-.072-.624-.219l-2.396-1.917c-.237-.189-.375-.477-.375-.781v-3.354c0-.552.448-1 1-1s1 .448 1 1v2.874l2.021 1.617c.432.345.501.974.156 1.405-.199.247-.49.375-.782.375z" fill="#fff"/><path d="m17.5 11c-3.584 0-6.5 2.916-6.5 6.5s2.916 6.5 6.5 6.5v-4.741l-.624-.5c-.237-.189-.375-.477-.375-.781v-3.354c0-.552.448-1 1-1v-2.624z" fill="#329e40"/><path d="m17.5 13.625c-.552 0-1 .448-1 1v3.354c0 .304.138.591.375.781l.624.5v-5.635z" fill="#dedede"/></svg>