<svg id="color" enable-background="new 0 0 24 24" height="512" viewBox="0 0 24 24" width="512" xmlns="http://www.w3.org/2000/svg"><path d="m12 22.25c-5.652 0-10.25-4.598-10.25-10.25s4.598-10.25 10.25-10.25 10.25 4.598 10.25 10.25-4.598 10.25-10.25 10.25z" fill="#64b5f6"/><circle cx="12" cy="12" fill="#eceff1" r="8.25"/><path d="m12 1.75c-5.652 0-10.25 4.598-10.25 10.25s4.598 10.25 10.25 10.25v-2c-4.549 0-8.25-3.701-8.25-8.25s3.701-8.25 8.25-8.25z" fill="#579ed6"/><path d="m12 3.75c-4.549 0-8.25 3.701-8.25 8.25s3.701 8.25 8.25 8.25z" fill="#cdd0d2"/><g fill="#2196f3"><path d="m12 24c-.553 0-1-.448-1-1v-2.391c0-.552.447-1 1-1s1 .448 1 1v2.391c0 .552-.447 1-1 1z"/><path d="m12 4.391c-.553 0-1-.448-1-1v-2.391c0-.552.447-1 1-1s1 .448 1 1v2.391c0 .552-.447 1-1 1z"/><path d="m3.392 13h-2.392c-.553 0-1-.448-1-1s.447-1 1-1h2.392c.553 0 1 .448 1 1s-.448 1-1 1z"/><path d="m23 13h-2.392c-.553 0-1-.448-1-1s.447-1 1-1h2.392c.553 0 1 .448 1 1s-.447 1-1 1z"/></g><path d="m12 19.609c-.407 0-.757.243-.913.591-.056.125-.087.263-.087.409v1.593.798c0 .552.447 1 1 1z" fill="#1d83d4"/><path d="m12 0c-.553 0-1 .448-1 1v.798 1.593c0 .146.031.284.087.409.156.348.506.591.913.591z" fill="#1d83d4"/><path d="m19.609 12c0 .407.243.757.591.913.125.056.263.087.409.087h1.593.798c.552 0 1-.447 1-1z" fill="#1d83d4"/><path d="m0 12c0 .553.448 1 1 1h.798 1.593c.146 0 .284-.031.409-.087.349-.156.591-.506.591-.913z" fill="#1d83d4"/><path d="m10.978 15.75c-.267 0-.521-.106-.71-.296l-2.728-2.75c-.389-.392-.387-1.025.006-1.414.392-.389 1.024-.388 1.414.006l1.969 1.985 4.066-4.686c.361-.418.993-.461 1.41-.1.417.362.462.994.1 1.411l-4.772 5.5c-.182.21-.443.335-.722.344z" fill="#607d8b"/><path d="m8.25 11c-.255 0-.509.097-.704.29-.393.389-.395 1.022-.006 1.414l2.728 2.75c.188.19.443.296.71.296h.033c.278-.009.54-.134.722-.344l.267-.309v-3.051l-1.071 1.235-1.969-1.985c-.196-.198-.453-.296-.71-.296z" fill="#546d79"/></svg>