<svg id="color" enable-background="new 0 0 24 24" height="512" viewBox="0 0 24 24" width="512" xmlns="http://www.w3.org/2000/svg"><path d="m21.25 1h-14.5c-1.519 0-2.75 1.231-2.75 2.75v1.25h20v-1.25c0-1.519-1.231-2.75-2.75-2.75z" fill="#607d8b"/><path d="m21.25 15h-14.5c-1.519 0-2.75-1.231-2.75-2.75v-7.25h20v7.25c0 1.519-1.231 2.75-2.75 2.75z" fill="#eceff1"/><path d="m14 1h-7.25c-1.519 0-2.75 1.231-2.75 2.75v1.25h10z" fill="#546d79"/><path d="m14 5h-10v7.25c0 1.519 1.231 2.75 2.75 2.75h7.25z" fill="#cdd0d2"/><path d="m17.25 23h-14.5c-1.517 0-2.75-1.233-2.75-2.75v-8.5c0-1.517 1.233-2.75 2.75-2.75h14.5c1.517 0 2.75 1.233 2.75 2.75v8.5c0 1.517-1.233 2.75-2.75 2.75z" fill="#607d8b"/><path d="m10 9h-7.25c-1.517 0-2.75 1.233-2.75 2.75v8.5c0 1.517 1.233 2.75 2.75 2.75h7.25z" fill="#546d79"/><path d="m6.25 16.75h-1.5c-1.103 0-2-.897-2-2v-1.5c0-1.103.897-2 2-2h1.5c1.103 0 2 .897 2 2v1.5c0 1.103-.897 2-2 2z" fill="#eceff1"/><path d="m16.25 20.75h-12.5c-.552 0-1-.448-1-1s.448-1 1-1h12.5c.552 0 1 .448 1 1s-.448 1-1 1z" fill="#eceff1"/><g fill="#cdd0d2"><path d="m8.25 14h-5.5v.75c0 1.103.897 2 2 2h1.5c1.103 0 2-.897 2-2z"/><path d="m17.25 19.75h-14.5c0 .552.448 1 1 1h12.5c.552 0 1-.448 1-1z"/></g></svg>