<svg id="color" enable-background="new 0 0 24 24" height="512" viewBox="0 0 24 24" width="512" xmlns="http://www.w3.org/2000/svg"><path d="m15.854 21.146c-1.313-1.313-1.353-2.586-1.354-2.649-.002-.275-.225-.497-.5-.497h-4.02c-.276 0-.5.227-.5.503 0 .054-.018 1.328-1.333 2.644-.143.143-.186.358-.108.545.076.186.259.308.461.308h7c.202 0 .385-.122.462-.309s.034-.401-.108-.545z" fill="#90a4ae"/><path d="m22.25 2h-20.5c-.965 0-1.75.785-1.75 1.75v13.5c0 .965.785 1.75 1.75 1.75h20.5c.965 0 1.75-.785 1.75-1.75v-13.5c0-.965-.785-1.75-1.75-1.75z" fill="#607d8b"/><path d="m22 15h-20v-11h20z" fill="#fff"/><path d="m12 19h-2.591c-.118.501-.431 1.315-1.262 2.146-.143.143-.186.358-.108.545.076.187.259.309.461.309h3.5z" fill="#7d8f97"/><path d="m12 2h-10.25c-.965 0-1.75.785-1.75 1.75v13.5c0 .965.785 1.75 1.75 1.75h7.659 2.591v-4h-10v-11h10z" fill="#546d79"/><path d="m12 4h-10v11h10z" fill="#dedede"/><path d="m13.917 10.553c-.59.59-1.406.949-2.303.949l-4.369-.007c-.864.005-1.681-.331-2.296-.947-.617-.617-.954-1.434-.949-2.304-.017-1.694 1.509-3.241 3.246-3.242l.792.001c.414 0 .75.336.75.75-.001.415-.337.75-.75.75h-.792c-.93-.001-1.756.827-1.746 1.738-.003.477.178.915.509 1.245s.769.51 1.233.508l4.373.007c.904 0 1.652-.676 1.742-1.573.04-.409.408-.713.82-.671.413.041.713.408.672.821-.078.775-.42 1.462-.932 1.975z" fill="#cfd8dc"/><path d="m19.052 10.549c-.616.616-1.434.953-2.302.949l-.76-.001c-.414-.001-.75-.337-.749-.751 0-.414.337-.751.751-.75l.763.001c.468.002.906-.178 1.237-.509.331-.331.511-.768.509-1.233.002-.473-.178-.911-.508-1.242-.33-.33-.768-.511-1.234-.509l-4.373-.007c-.87 0-1.659.72-1.741 1.57-.039.411-.404.714-.818.675-.412-.038-.715-.404-.675-.817.151-1.589 1.619-2.928 3.235-2.927l4.369.007c.864-.005 1.681.332 2.297.948.615.616.952 1.434.947 2.303.005.859-.332 1.677-.948 2.293z" fill="#cfd8dc"/><path d="m17.25 22c-.204 0-.404-.083-.548-.238l-3.5-3.75c-.269-.288-.269-.735 0-1.023l3.5-3.75c.21-.226.537-.299.823-.186.287.112.475.389.475.697v7.5c0 .308-.188.585-.475.698-.089.035-.183.052-.275.052z" fill="#2196f3"/><path d="m23 18.5h-7.91c-.552 0-1-.448-1-1s.448-1 1-1h7.91c.552 0 1 .448 1 1s-.448 1-1 1z" fill="#2196f3"/><path d="m14.09 17.5h-1.09c0 .184.067.368.202.512l3.5 3.75c.144.155.344.238.548.238.092 0 .186-.017.275-.052.287-.113.475-.39.475-.698v-2.75h-2.91c-.552 0-1-.448-1-1z" fill="#1d83d4"/><path d="m24 17.5h-9.91c0 .552.448 1 1 1h2.91 5c.552 0 1-.448 1-1z" fill="#1d83d4"/><g fill="#b4bcc0"><path d="m14.808 8.248h-1.411c-.021.057-.035.118-.041.181-.089.897-.837 1.573-1.74 1.573h-.001l-4.373-.007c-.003 0-.005 0-.008 0-.462 0-.897-.18-1.225-.508-.329-.33-.51-.764-.509-1.239h-1.5c-.004.868.333 1.684.948 2.299.611.611 1.421.947 2.278.947h.019l4.369.007c.897 0 1.713-.359 2.303-.949.512-.513.854-1.199.932-1.974.011-.115-.004-.228-.041-.33z"/><path d="m10.605 8.248h-1.413c.095.266.336.466.636.495.024.002.048.003.072.003.319.001.6-.204.705-.498zm9.395 0h-1.5v.007c.002.465-.178.902-.508 1.233-.329.329-.763.509-1.227.509-.003 0-.006 0-.009 0l-.763-.001c-.001 0-.001 0-.001 0-.414 0-.75.337-.75.75 0 .414.336.75.75.75l.76.001h.015c.863 0 1.675-.337 2.287-.949v-.001c.614-.614.951-1.432.946-2.292 0-.002 0-.005 0-.007z"/></g></svg>