<svg id="color" enable-background="new 0 0 24 24" height="512" viewBox="0 0 24 24" width="512" xmlns="http://www.w3.org/2000/svg"><path d="m4.463 23.943c-.28-.116-.463-.39-.463-.693v-4.25h-1.25c-1.517 0-2.75-1.233-2.75-2.75v-13.5c0-1.517 1.233-2.75 2.75-2.75h18.5c1.517 0 2.75 1.233 2.75 2.75v13.5c0 1.517-1.233 2.75-2.75 2.75h-11.189l-4.78 4.78c-.221.22-.546.276-.818.163z" fill="#eceff1"/><path d="m12 0h-9.25c-1.517 0-2.75 1.233-2.75 2.75v13.5c0 1.517 1.233 2.75 2.75 2.75h1.25v4.25c0 .303.183.577.463.693.092.038.189.057.287.057.192 0 .385-.074.53-.22l4.78-4.78h1.94z" fill="#cdd0d2"/><path d="m17.434 5.154-.044.008c.486 1.023.61 3.531.61 3.563 0 1.329-1.081 2.41-2.41 2.41h-1.986c.111.354.207.817.207 1.37 0 1.622-.866 2.36-1.67 2.36-1.201 0-1.201-1.283-1.201-1.9 0-1.079-1.327-1.991-1.734-2.245-.146-.092-.236-.254-.235-.427l.029-5.65c.001-.179.098-.344.252-.432.703-.402 2.287-1.076 4.988-1.076h.76c1.199 0 2.246.868 2.434 2.019z" fill="#ffcc80"/><path d="m10 4.635v5c0 .827-.673 1.5-1.5 1.5h-1c-.827 0-1.5-.673-1.5-1.5v-5c0-.827.673-1.5 1.5-1.5h1c.827 0 1.5.673 1.5 1.5z" fill="#2196f3"/><path d="m17.854 7.135h-7.854v2.5c0 .494-.24.933-.609 1.206.525.357 1.549 1.176 1.549 2.124 0 .617 0 1.9 1.201 1.9.804 0 1.67-.738 1.67-2.36 0-.553-.096-1.017-.207-1.37h1.986c1.329 0 2.41-1.081 2.41-2.41 0-.017-.036-.754-.146-1.59z" fill="#deb26f"/><path d="m10 7.135h-4v2.5c0 .827.673 1.5 1.5 1.5h1c.333 0 .642-.109.891-.294.369-.274.609-.712.609-1.206z" fill="#1d83d4"/></svg>