<svg id="color" enable-background="new 0 0 24 24" height="512" viewBox="0 0 24 24" width="512" xmlns="http://www.w3.org/2000/svg"><path d="m8.75 24c-.141 0-.281-.04-.404-.118-.216-.138-.346-.376-.346-.632v-10.465l-7.811-8.787c-.196-.221-.244-.536-.124-.805.122-.27.39-.443.685-.443h22.5c.295 0 .563.173.685.443.12.27.072.585-.124.805l-7.811 8.787v7.465c0 .292-.17.559-.436.681l-6.5 3c-.1.046-.207.069-.314.069z" fill="#cfd8dc"/><path d="m12 2.75h-11.25c-.295 0-.563.173-.685.443-.12.27-.072.585.124.805l7.811 8.787v10.465c0 .256.13.494.346.632.123.078.263.118.404.118.107 0 .214-.023.314-.069l2.936-1.355z" fill="#b4bcc0"/><path d="m16.25 0h-2.5c-.304 0-.577.183-.693.463-.115.28-.052.603.163.817l.719.72-1.338 1.337-1.517-.758c-.288-.144-.638-.088-.865.141l-3 3c-.293.293-.293.768 0 1.061.147.146.339.219.531.219s.384-.073.53-.22l2.618-2.618 1.517.758c.288.143.637.088.865-.141l1.72-1.718.72.72c.143.143.335.219.53.219.097 0 .194-.019.287-.057.28-.116.463-.39.463-.693v-2.5c0-.414-.336-.75-.75-.75z" fill="#607d8b"/><path d="m16.25 0h-2.5c-.304 0-.577.183-.693.463-.115.28-.052.603.163.817l.719.72-1.338 1.337-1.517-.758c-.105-.053-.22-.079-.334-.079-.195 0-.387.075-.53.219l-3 3c-.293.293-.293.768 0 1.061l3.275-3.275c.096-.096.224-.147.354-.147.076 0 .152.017.223.053l1.355.678c.071.035.147.053.223.053.13 0 .258-.05.354-.147l3.776-3.775c-.135-.136-.323-.22-.53-.22z" fill="#546d79"/><path d="m18 24c-3.309 0-6-2.691-6-6s2.691-6 6-6 6 2.691 6 6-2.691 6-6 6z" fill="#2196f3"/><g fill="#fff"><path d="m18 22.25c-.553 0-1-.448-1-1v-.929c0-.552.447-.681 1-.681s1 .128 1 .681v.929c0 .552-.447 1-1 1z"/><path d="m18.208 21.321h-1.458c-.553 0-1-.448-1-1s.447-1 1-1h1.458c-.004-.005.042-.062.042-.161s-.046-.156-.064-.165l-.394.005c-1.126 0-2.042-.969-2.042-2.161 0-1.191.916-2.161 2.042-2.161h1.458c.553 0 1 .448 1 1s-.447 1-1 1h-1.458c.004.005-.042.062-.042.161s.046.156.064.165l.394-.004c1.126 0 2.042.969 2.042 2.161 0 1.191-.916 2.16-2.042 2.16z"/><path d="m18 16.437c-.553 0-1-.207-1-.759v-.928c0-.552.447-1 1-1s1 .448 1 1v.929c0 .552-.447.758-1 .758z"/></g><path d="m18 16.679h-.208c.004.005-.042.062-.042.161s.046.156.064.165l.186-.003zm0-4.679c-3.309 0-6 2.691-6 6s2.691 6 6 6v-1.75c-.529 0-.961-.41-.998-.929h-.252c-.553 0-1-.448-1-1s.447-1 1-1h1.25v-.324l-.208.003c-1.126 0-2.042-.969-2.042-2.161 0-.894.516-1.664 1.25-1.992v-.097c0-.552.447-1 1-1z" fill="#1d83d4"/><path d="m18 21.321h-.998c.037.519.469.929.998.929z" fill="#dedede"/><path d="m18 19.321h-1.25c-.553 0-1 .448-1 1s.447 1 1 1h.252.998zm-1-4.473c-.734.328-1.25 1.097-1.25 1.992 0 1.191.916 2.161 2.042 2.161l.208-.003v-1.995l-.187.002c-.018-.009-.064-.066-.064-.165s.046-.156.042-.161h.209v-.241c-.553 0-1-.207-1-.759z" fill="#dedede"/><path d="m18 13.75c-.553 0-1 .448-1 1v.098.831c0 .552.447.759 1 .759z" fill="#dedede"/></svg>