<svg id="color" enable-background="new 0 0 24 24" height="512" viewBox="0 0 24 24" width="512" xmlns="http://www.w3.org/2000/svg"><path d="m15.192 5.152 2.546-2.036c.589-.47.809-1.233.56-1.944-.249-.712-.896-1.172-1.648-1.172h-9.3c-.752 0-1.399.46-1.648 1.172-.249.711-.029 1.475.56 1.944l2.546 2.036c-3.176 2.431-5.808 7.793-5.808 12.098 0 3.359 1.777 6.75 5.75 6.75h6.75c3.393 0 5.5-2.587 5.5-6.75 0-4.305-2.632-9.667-5.808-12.098z" fill="#2196f3"/><path d="m17.25 4.5h-10.5c-.414 0-.75.336-.75.75s.336.75.75.75h10.5c.414 0 .75-.336.75-.75s-.336-.75-.75-.75z" fill="#64b5f6"/><path d="m12 6h-4.162c-2.725 2.685-4.838 7.392-4.838 11.25 0 3.359 1.777 6.75 5.75 6.75h3.25zm0-6h-4.65c-.752 0-1.399.46-1.648 1.172-.249.711-.029 1.475.56 1.944l1.73 1.384h4.008z" fill="#1d83d4"/><path d="m12 4.5h-4.008-1.242c-.414 0-.75.336-.75.75s.336.75.75.75h1.088 4.162z" fill="#579ed6"/><path d="m9.5 13.75c-.689 0-1.25-.561-1.25-1.25s.561-1.25 1.25-1.25 1.25.561 1.25 1.25-.561 1.25-1.25 1.25z" fill="#fff"/><path d="m14.5 18.75c-.689 0-1.25-.561-1.25-1.25s.561-1.25 1.25-1.25 1.25.561 1.25 1.25-.561 1.25-1.25 1.25z" fill="#fff"/><path d="m9.5 11.25c-.689 0-1.25.561-1.25 1.25s.561 1.25 1.25 1.25z" fill="#dedede"/><path d="m14.5 16.25c-.689 0-1.25.561-1.25 1.25s.561 1.25 1.25 1.25z" fill="#dedede"/><path d="m10.336 18.66c-.503-.229-.725-.821-.496-1.324l2.5-5.5c.228-.502.817-.727 1.324-.497.503.229.725.821.496 1.324l-2.5 5.5c-.226.5-.816.727-1.324.497z" fill="#fff"/><path d="m13.249 11.249c-.381 0-.742.219-.909.587l-2.5 5.5c-.229.502-.007 1.095.496 1.324l3.328-7.32c-.135-.062-.276-.091-.415-.091z" fill="#dedede"/></svg>