<svg id="color" enable-background="new 0 0 24 24" height="512" viewBox="0 0 24 24" width="512" xmlns="http://www.w3.org/2000/svg"><path d="m21 0h-18c-1.654 0-3 1.346-3 3v16c0 1.654 1.346 3 3 3h18c1.654 0 3-1.346 3-3v-16c0-1.654-1.346-3-3-3z" fill="#607d8b"/><path d="m21 20h-18c-.551 0-1-.448-1-1v-14h20v14c0 .552-.449 1-1 1z" fill="#fff"/><g fill="#cfd8dc"><path d="m19.25 12.5h-14.5c-.414 0-.75-.336-.75-.75v-4.5c0-.414.336-.75.75-.75h14.5c.414 0 .75.336.75.75v4.5c0 .414-.336.75-.75.75zm-13.75-1.5h13v-3h-13z"/><path d="m19.33 15.49h-14.53c-.414 0-.75-.336-.75-.75s.336-.75.75-.75h14.53c.414 0 .75.336.75.75s-.336.75-.75.75z"/><path d="m19.33 18.49h-14.53c-.414 0-.75-.336-.75-.75s.336-.75.75-.75h14.53c.414 0 .75.336.75.75s-.336.75-.75.75z"/></g><path d="m12 0h-9c-1.654 0-3 1.346-3 3v16c0 1.654 1.346 3 3 3h9v-2h-9c-.551 0-1-.448-1-1v-14h10z" fill="#546d79"/><path d="m12 8h-6.5v3h6.5zm0-3h-10v14c0 .552.449 1 1 1h9v-1.51h-7.2c-.414 0-.75-.336-.75-.75s.336-.75.75-.75h7.2v-1.5h-7.2c-.414 0-.75-.336-.75-.75s.336-.75.75-.75h7.2v-1.49h-7.25c-.414 0-.75-.336-.75-.75v-4.5c0-.414.336-.75.75-.75h7.25z" fill="#dedede"/><path d="m12 6.5h-7.25c-.414 0-.75.336-.75.75v4.5c0 .414.336.75.75.75h7.25v-1.5h-6.5v-3h6.5z" fill="#b4bcc0"/><path d="m12 13.99h-7.2c-.414 0-.75.336-.75.75s.336.75.75.75h7.2z" fill="#b4bcc0"/><path d="m12 16.99h-7.2c-.414 0-.75.336-.75.75s.336.75.75.75h7.2z" fill="#b4bcc0"/><path d="m23.488 13.351-1.237-1.237c-.49-.491-1.386-.737-2.298.177l-7.425 7.424c-.108.109-.182.249-.208.4l-.53 3.005c-.043.241.035.488.208.661.142.142.333.22.53.22l.13-.011 3.005-.53c.152-.027.292-.1.4-.208l7.425-7.425c.683-.684.683-1.794 0-2.476z" fill="#39b54a"/><path d="m21.231 11.675c-.392 0-.833.17-1.278.615l-7.425 7.424c-.108.109-.182.249-.208.4l-.53 3.005c-.041.229.028.463.183.634l10.959-10.959-.681-.681c-.251-.251-.609-.438-1.02-.438z" fill="#329e40"/></svg>