<svg id="color" enable-background="new 0 0 24 24" height="512" viewBox="0 0 24 24" width="512" xmlns="http://www.w3.org/2000/svg"><path d="m12 22.25c-5.652 0-10.25-4.598-10.25-10.25s4.598-10.25 10.25-10.25 10.25 4.598 10.25 10.25-4.598 10.25-10.25 10.25z" fill="#64b5f6"/><path d="m12 3.75c-4.549 0-8.25 3.701-8.25 8.25s3.701 8.25 8.25 8.25 8.25-3.701 8.25-8.25-3.701-8.25-8.25-8.25z" fill="#eceff1"/><path d="m12 13.25c-2.068 0-3.75-1.682-3.75-3.75s1.682-3.75 3.75-3.75 3.75 1.682 3.75 3.75-1.682 3.75-3.75 3.75zm0-5.5c-.965 0-1.75.785-1.75 1.75s.785 1.75 1.75 1.75 1.75-.785 1.75-1.75-.785-1.75-1.75-1.75z" fill="#607d8b"/><path d="m12 18.25c-.552 0-1-.448-1-1v-4.75c0-.552.448-.75 1-.75s1 .198 1 .75v4.75c0 .552-.448 1-1 1z" fill="#607d8b"/><path d="m13.25 16.25h-2.5c-.552 0-1-.448-1-1s.448-1 1-1h2.5c.552 0 1 .448 1 1s-.448 1-1 1z" fill="#607d8b"/><path d="m12 1.75c-5.652 0-10.25 4.598-10.25 10.25s4.598 10.25 10.25 10.25v-2c-4.549 0-8.25-3.701-8.25-8.25s3.701-8.25 8.25-8.25z" fill="#579ed6"/><path d="m12 7.75c-.965 0-1.75.785-1.75 1.75s.785 1.75 1.75 1.75zm0-4c-4.549 0-8.25 3.701-8.25 8.25s3.701 8.25 8.25 8.25v-2c-.552 0-1-.448-1-1v-1h-.25c-.552 0-1-.448-1-1s.448-1 1-1h.25v-1.135c-1.584-.439-2.75-1.893-2.75-3.615 0-2.068 1.682-3.75 3.75-3.75z" fill="#cdd0d2"/><path d="m12 5.75c-2.068 0-3.75 1.682-3.75 3.75 0 1.722 1.166 3.176 2.75 3.615v-.615c0-.552.448-.75 1-.75v-.5c-.965 0-1.75-.785-1.75-1.75s.785-1.75 1.75-1.75z" fill="#546d79"/><path d="m12 16.25h-1v1c0 .552.448 1 1 1zm0-4.5c-.552 0-1 .198-1 .75v.615 1.135h1z" fill="#546d79"/><path d="m12 14.25h-1-.25c-.552 0-1 .448-1 1s.448 1 1 1h.25 1z" fill="#546d79"/><g fill="#2196f3"><path d="m12 24c-.553 0-1-.448-1-1v-2.391c0-.552.447-1 1-1s1 .448 1 1v2.391c0 .552-.447 1-1 1z"/><path d="m12 4.391c-.553 0-1-.448-1-1v-2.391c0-.552.447-1 1-1s1 .448 1 1v2.391c0 .552-.447 1-1 1z"/><path d="m3.392 13h-2.392c-.553 0-1-.448-1-1s.447-1 1-1h2.392c.553 0 1 .448 1 1s-.448 1-1 1z"/><path d="m23 13h-2.392c-.553 0-1-.448-1-1s.447-1 1-1h2.392c.553 0 1 .448 1 1s-.447 1-1 1z"/></g><path d="m12 19.609c-.407 0-.757.243-.913.591-.056.125-.087.263-.087.409v1.593.798c0 .552.447 1 1 1z" fill="#1d83d4"/><path d="m12 0c-.553 0-1 .448-1 1v.798 1.593c0 .146.031.284.087.409.156.348.506.591.913.591z" fill="#1d83d4"/><path d="m19.609 12c0 .407.243.757.591.913.125.056.263.087.409.087h1.593.798c.552 0 1-.447 1-1z" fill="#1d83d4"/><path d="m0 12c0 .553.448 1 1 1h.798 1.593c.146 0 .284-.031.409-.087.349-.156.591-.506.591-.913z" fill="#1d83d4"/></svg>