<svg id="color" enable-background="new 0 0 24 24" height="512" viewBox="0 0 24 24" width="512" xmlns="http://www.w3.org/2000/svg"><path d="m3.5 18.75s0-1.95 0-2.6c0-.7-.264-1.332-.725-1.736-2.143-1.889-3.135-4.726-2.655-7.588.553-3.319 3.138-5.996 6.432-6.661 2.482-.494 5.006.126 6.927 1.702 1.919 1.575 3.021 3.902 3.021 6.383 0 2.347-1.006 4.589-2.761 6.15-.471.414-.739 1.058-.739 1.77v2.58z" fill="#eceff1"/><path d="m10.25 22.5h-4c-1.519 0-2.75-1.231-2.75-2.75v-1.75h9.5v1.75c0 1.519-1.231 2.75-2.75 2.75z" fill="#b0bec5"/><path d="m8.228-.001c-.556 0-1.117.055-1.676.166-3.294.665-5.879 3.342-6.432 6.661-.48 2.862.512 5.699 2.655 7.588.461.404.725 1.036.725 1.736v2.6-.75h4.75v-18.001c-.007 0-.015 0-.022 0z" fill="#cdd0d2"/><path d="m8.25 18h-4.75v.75 1c0 1.519 1.231 2.75 2.75 2.75h2z" fill="#99a5ac"/><path d="m21.629 20h-2.129c-.414 0-.75-.336-.75-.75s.336-.75.75-.75h2.129c.48 0 .871-.449.871-1s-.391-1-.871-1h-2.102c-.414 0-.75-.336-.75-.75s.337-.75.751-.75h2.102c1.307 0 2.37 1.122 2.37 2.5s-1.063 2.5-2.371 2.5z" fill="#546e7a"/><path d="m16.757 13.5c-.241 0-.477-.116-.622-.331-.232-.343-.142-.809.202-1.041.127-.086.165-.161.163-.184-.003-.042-.083-.16-.308-.261-.689-.31-1.133-.872-1.187-1.501-.051-.602.247-1.169.818-1.555.342-.232.809-.141 1.041.202s.142.809-.202 1.041c-.127.086-.165.161-.163.184.003.042.083.16.308.261.689.31 1.133.872 1.187 1.501.051.602-.247 1.169-.818 1.555-.128.087-.274.129-.419.129z" fill="#ffca28"/><path d="m13.507 13.5c-.241 0-.477-.116-.622-.331-.232-.343-.142-.809.202-1.041.127-.086.165-.161.163-.184-.003-.042-.083-.16-.308-.261-.689-.31-1.133-.872-1.187-1.501-.051-.602.247-1.169.818-1.555.342-.232.809-.141 1.041.202s.142.809-.202 1.041c-.127.086-.165.161-.163.184.003.042.083.16.308.261.689.31 1.133.872 1.187 1.501.051.602-.247 1.169-.818 1.555-.128.087-.274.129-.419.129z" fill="#ffca28"/><path d="m14.5 24c-3.033 0-5.5-2.439-5.5-5.437v-2.813c0-.414.336-.75.75-.75h9.5c.414 0 .75.336.75.75v2.813c0 .191-.011.383-.034.563-.278 2.77-2.629 4.874-5.466 4.874z" fill="#607d8b"/><path d="m20.25 24h-11.5c-.414 0-.75-.336-.75-.75s.336-.75.75-.75h11.5c.414 0 .75.336.75.75s-.336.75-.75.75z" fill="#546e7a"/><path d="m14.5 15h-4.75c-.414 0-.75.336-.75.75v2.813c0 1.548.657 2.946 1.711 3.937h3.789z" fill="#546d79"/><path d="m14.5 22.5h-3.789-1.961c-.414 0-.75.336-.75.75s.336.75.75.75h5.75z" fill="#49606a"/><g fill="#deb023"><path d="m16.5 11.949c-.002.027-.041.098-.163.18-.344.232-.434.698-.202 1.041.092.137.221.233.365.285zm-.258-3.449c-.144 0-.29.042-.418.128-.572.386-.87.953-.818 1.555.054.629.498 1.191 1.187 1.501.224.101.304.219.308.261v-1.89c0-.001 0-.002 0-.004v-1.505c-.084-.031-.171-.046-.259-.046z"/><path d="m13.25 11.949c-.002.027-.041.098-.163.18-.344.232-.434.698-.202 1.041.092.137.221.233.365.285zm-.258-3.449c-.144 0-.29.042-.418.128-.572.386-.87.953-.818 1.555.054.629.498 1.191 1.187 1.501.224.101.304.219.308.261v-1.89c0-.001 0-.002 0-.004v-1.505c-.084-.031-.171-.046-.259-.046z"/></g></svg>