<svg id="color" enable-background="new 0 0 24 24" height="512" viewBox="0 0 24 24" width="512" xmlns="http://www.w3.org/2000/svg"><path d="m14.25 21h-11.5c-1.517 0-2.75-1.233-2.75-2.75v-15.5c0-1.517 1.233-2.75 2.75-2.75h11.5c1.517 0 2.75 1.233 2.75 2.75v15.5c0 1.517-1.233 2.75-2.75 2.75z" fill="#eceff1"/><path d="m8.5 0h-5.75c-1.517 0-2.75 1.233-2.75 2.75v15.5c0 1.517 1.233 2.75 2.75 2.75h5.75z" fill="#cdd0d2"/><g fill="#cfd8dc"><path d="m7.25 9.25h-3.5c-.414 0-.75-.336-.75-.75v-3.5c0-.414.336-.75.75-.75h3.5c.414 0 .75.336.75.75v3.5c0 .414-.336.75-.75.75z"/><path d="m13.5 9h-3c-.414 0-.75-.336-.75-.75s.336-.75.75-.75h3c.414 0 .75.336.75.75s-.336.75-.75.75z"/><path d="m13.5 6h-3c-.414 0-.75-.336-.75-.75s.336-.75.75-.75h3c.414 0 .75.336.75.75s-.336.75-.75.75z"/><path d="m13.25 17h-9.5c-.414 0-.75-.336-.75-.75s.336-.75.75-.75h9.5c.414 0 .75.336.75.75s-.336.75-.75.75z"/><path d="m13.25 13h-9.5c-.414 0-.75-.336-.75-.75s.336-.75.75-.75h9.5c.414 0 .75.336.75.75s-.336.75-.75.75z"/></g><path d="m8 6.75h-5v1.75c0 .414.336.75.75.75h3.5c.414 0 .75-.336.75-.75z" fill="#b4bcc0"/><path d="m14.25 5.25h-4.5c0 .414.336.75.75.75h3c.414 0 .75-.336.75-.75z" fill="#b4bcc0"/><path d="m14.25 8.25h-4.5c0 .414.336.75.75.75h3c.414 0 .75-.336.75-.75z" fill="#b4bcc0"/><path d="m14 12.25h-11c0 .414.336.75.75.75h9.5c.414 0 .75-.336.75-.75z" fill="#b4bcc0"/><path d="m14 16.25h-11c0 .414.336.75.75.75h9.5c.414 0 .75-.336.75-.75z" fill="#b4bcc0"/><path d="m21.629 20h-2.129c-.414 0-.75-.336-.75-.75s.336-.75.75-.75h2.129c.48 0 .871-.449.871-1s-.391-1-.871-1h-2.102c-.414 0-.75-.336-.75-.75s.337-.75.751-.75h2.102c1.307 0 2.37 1.122 2.37 2.5s-1.063 2.5-2.371 2.5z" fill="#546e7a"/><path d="m13.507 13.5c-.241 0-.477-.116-.622-.331-.232-.343-.142-.809.202-1.041.127-.086.165-.161.163-.184-.003-.042-.083-.16-.308-.261-.689-.31-1.133-.872-1.187-1.501-.051-.602.247-1.169.818-1.555.342-.232.809-.141 1.041.202s.142.809-.202 1.041c-.127.086-.165.161-.163.184.003.042.083.16.308.261.689.31 1.133.872 1.187 1.501.051.602-.247 1.169-.818 1.555-.128.087-.274.129-.419.129z" fill="#ffca28"/><path d="m14.5 24c-3.033 0-5.5-2.439-5.5-5.437v-2.813c0-.414.336-.75.75-.75h9.5c.414 0 .75.336.75.75v2.813c0 .191-.011.383-.034.563-.278 2.77-2.629 4.874-5.466 4.874z" fill="#607d8b"/><path d="m20.25 24h-11.5c-.414 0-.75-.336-.75-.75s.336-.75.75-.75h11.5c.414 0 .75.336.75.75s-.336.75-.75.75z" fill="#546e7a"/><path d="m14.5 15h-4.75c-.414 0-.75.336-.75.75v2.813c0 1.548.657 2.946 1.711 3.937h3.789z" fill="#546d79"/><path d="m14.5 22.5h-3.789-1.961c-.414 0-.75.336-.75.75s.336.75.75.75h5.75z" fill="#49606a"/><path d="m16.757 13.5c-.241 0-.477-.116-.622-.331-.232-.343-.142-.809.202-1.041.127-.086.165-.161.163-.184-.003-.042-.083-.16-.308-.261-.689-.31-1.133-.872-1.187-1.501-.051-.602.247-1.169.818-1.555.342-.232.809-.141 1.041.202s.142.809-.202 1.041c-.127.086-.165.161-.163.184.003.041.083.16.308.261.689.31 1.133.872 1.187 1.501.051.602-.247 1.169-.818 1.555-.128.087-.274.129-.419.129z" fill="#ffca28"/><path d="m16.5 11.949c-.002.027-.041.098-.163.18-.344.232-.434.698-.202 1.041.092.137.221.233.365.285zm-.258-3.449c-.144 0-.29.042-.418.128-.572.386-.87.953-.818 1.555.054.629.498 1.191 1.187 1.501.224.101.304.219.308.261v-1.89c0-.001 0-.002 0-.004v-1.505c-.084-.031-.171-.046-.259-.046z" fill="#deb023"/><path d="m13.25 11.949c-.002.027-.041.098-.163.18-.344.232-.434.698-.202 1.041.092.137.221.233.365.285zm-.258-3.449c-.144 0-.29.042-.418.128-.572.386-.87.953-.818 1.555.054.629.498 1.191 1.187 1.501.224.101.304.219.308.261v-1.89c0-.001 0-.002 0-.004v-1.505c-.084-.031-.171-.046-.259-.046z" fill="#deb023"/></svg>