<svg id="color" enable-background="new 0 0 24 24" height="512" viewBox="0 0 24 24" width="512" xmlns="http://www.w3.org/2000/svg"><path d="m21.25 24h-18.5c-1.517 0-2.75-1.233-2.75-2.75v-18.5c0-1.517 1.233-2.75 2.75-2.75h18.5c1.517 0 2.75 1.233 2.75 2.75v18.5c0 1.517-1.233 2.75-2.75 2.75z" fill="#607d8b"/><path d="m12 0h-9.25c-1.517 0-2.75 1.233-2.75 2.75v18.5c0 1.517 1.233 2.75 2.75 2.75h9.25z" fill="#546d79"/><path d="m17.25 15.25h-10.5c-.553 0-1-.448-1-1s.447-1 1-1h10.5c.553 0 1 .448 1 1s-.447 1-1 1z" fill="#fafafa"/><path d="m17.25 10.75h-10.5c-.553 0-1-.448-1-1s.447-1 1-1h10.5c.553 0 1 .448 1 1s-.447 1-1 1z" fill="#fafafa"/><path d="m18.25 14.25h-12.5c0 .552.447 1 1 1h10.5c.553 0 1-.448 1-1z" fill="#dadada"/><path d="m18.25 9.75h-12.5c0 .552.447 1 1 1h10.5c.553 0 1-.448 1-1z" fill="#dadada"/><path d="m12.812 18.232c-.542-.104-.898-.627-.795-1.169l2-10.5c.104-.542.619-.9 1.17-.795.542.104.898.627.795 1.169l-2 10.5c-.102.534-.614.898-1.17.795z" fill="#fafafa"/><path d="m8.813 18.232c-.542-.104-.898-.627-.795-1.169l2-10.5c.103-.542.619-.9 1.17-.795.542.104.898.627.795 1.169l-2 10.5c-.103.534-.615.898-1.17.795z" fill="#fafafa"/><g fill="#dadada"><path d="m10.995 5.749c-.474 0-.886.335-.978.814l-2 10.5c-.103.542.253 1.066.795 1.169l2.375-12.465c-.064-.012-.128-.018-.192-.018z"/><path d="m14.995 5.749c-.474 0-.886.335-.978.814l-2 10.5c-.104.542.253 1.066.795 1.169l2.375-12.465c-.064-.012-.128-.018-.192-.018z"/></g></svg>