<svg id="color" enable-background="new 0 0 24 24" height="512" viewBox="0 0 24 24" width="512" xmlns="http://www.w3.org/2000/svg"><path d="m17.25 20h-14.5c-1.517 0-2.75-1.233-2.75-2.75v-14.5c0-1.517 1.233-2.75 2.75-2.75h14.5c1.517 0 2.75 1.233 2.75 2.75v14.5c0 1.517-1.233 2.75-2.75 2.75z" fill="#607d8b"/><path d="m10 0h-7.25c-1.517 0-2.75 1.233-2.75 2.75v14.5c0 1.517 1.233 2.75 2.75 2.75h7.25z" fill="#546d79"/><g fill="#fafafa"><path d="m11.076 15.235c-.544-.096-.907-.615-.811-1.159l1.5-8.5c.096-.543.615-.905 1.158-.811.544.096.907.615.811 1.159l-1.5 8.5c-.095.546-.616.906-1.158.811z"/><path d="m7.076 15.235c-.544-.096-.907-.615-.811-1.159l1.5-8.5c.095-.543.614-.905 1.159-.811.544.096.907.615.81 1.159l-1.5 8.5c-.095.546-.616.906-1.158.811z"/><path d="m14.25 12.75h-8.5c-.553 0-1-.448-1-1s.447-1 1-1h8.5c.553 0 1 .448 1 1s-.447 1-1 1z"/><path d="m14.25 9.25h-8.5c-.553 0-1-.448-1-1s.447-1 1-1h8.5c.553 0 1 .448 1 1s-.447 1-1 1z"/></g><path d="m15.25 8.25h-10.5c0 .552.447 1 1 1h8.5c.553 0 1-.448 1-1z" fill="#dadada"/><path d="m15.25 11.75h-10.5c0 .552.447 1 1 1h8.5c.553 0 1-.448 1-1z" fill="#dadada"/><path d="m8.751 4.75c-.478 0-.9.341-.985.826l-1.5 8.5c-.097.544.267 1.063.811 1.159l1.848-10.47c-.059-.01-.117-.015-.174-.015z" fill="#dadada"/><path d="m12.751 4.75c-.476 0-.9.341-.986.826l-1.5 8.5c-.097.544.267 1.063.811 1.159l1.848-10.47c-.058-.01-.116-.015-.173-.015z" fill="#dadada"/><path d="m21 12c.553 0 1 .448 1 1v9c0 .552-.447 1-1 1s-1-.448-1-1v-9c0-.552.447-1 1-1z" fill="#ffc107"/><path d="m19 20h4c.404 0 .77.244.924.617.155.374.069.804-.217 1.09l-2 2c-.391.391-1.023.391-1.414 0l-2-2c-.286-.286-.372-.716-.217-1.09.154-.373.52-.617.924-.617z" fill="#ffc107"/><path d="m21 12c-.553 0-1 .448-1 1v7h1z" fill="#dea806"/><path d="m21 20h-1-1c-.404 0-.769.244-.924.617-.155.374-.069.804.217 1.09l2 2c.195.195.451.293.707.293z" fill="#dea806"/></svg>