<svg id="color" enable-background="new 0 0 24 24" height="512" viewBox="0 0 24 24" width="512" xmlns="http://www.w3.org/2000/svg"><path d="m9.75 19.5c-5.376 0-9.75-4.374-9.75-9.75s4.374-9.75 9.75-9.75 9.75 4.374 9.75 9.75-4.374 9.75-9.75 9.75z" fill="#607d8b"/><path d="m17.5 9.75c0 .34-.02.67-.07 1-.49 3.8-3.75 6.75-7.68 6.75s-7.19-2.95-7.68-6.75c-.05-.33-.07-.66-.07-1s.02-.67.07-1c.49-3.8 3.75-6.75 7.68-6.75s7.19 2.95 7.68 6.75c.05.33.07.66.07 1z" fill="#eceff1"/><path d="m23 24c-.256 0-.512-.098-.707-.293l-6.98-6.98c-.391-.391-.391-1.023 0-1.414s1.023-.391 1.414 0l6.98 6.981c.391.391.391 1.023 0 1.414-.195.194-.451.292-.707.292z" fill="#607d8b"/><path d="m2.859 2.859c-1.765 1.766-2.859 4.203-2.859 6.891 0 5.376 4.374 9.75 9.75 9.75 2.329 0 4.469-.821 6.148-2.188l-.585-.585c-.391-.391-.391-1.023 0-1.414l-.088-.088c-1.403 1.404-3.34 2.275-5.475 2.275-3.93 0-7.19-2.95-7.68-6.75-.05-.33-.07-.66-.07-1s.02-.67.07-1c.224-1.736 1.026-3.294 2.205-4.475z" fill="#546d79"/><path d="m4.275 4.275c-1.18 1.181-1.981 2.739-2.205 4.475-.05.33-.07.66-.07 1s.02.67.07 1c.49 3.8 3.75 6.75 7.68 6.75 2.135 0 4.072-.871 5.475-2.275z" fill="#cdd0d2"/><path d="m15.313 15.312c-.391.391-.391 1.023 0 1.414l.585.585 6.395 6.395c.195.196.451.294.707.294s.512-.098.707-.293z" fill="#546d79"/><path d="m13 12c-1.654 0-3-1.346-3-3s1.346-3 3-3 3 1.346 3 3-1.346 3-3 3zm0-4.5c-.827 0-1.5.673-1.5 1.5s.673 1.5 1.5 1.5 1.5-.673 1.5-1.5-.673-1.5-1.5-1.5z" fill="#2196f3"/><path d="m4.75 12c-.414 0-.75-.336-.75-.75v-1.25c0-.965.785-1.75 1.75-1.75h4.75c.414 0 .5.336.5.75s-.086.75-.5.75h-4.75c-.138 0-.25.112-.25.25v1.25c0 .414-.336.75-.75.75z" fill="#2196f3"/><g fill="#1d83d4"><path d="m16 9h-1.5c0 .827-.673 1.5-1.5 1.5s-1.5-.673-1.5-1.5h-.5c0 .414-.086.75-.5.75h-.405c.334 1.293 1.51 2.25 2.905 2.25 1.654 0 3-1.346 3-3z"/><path d="m11 9h-6.685c-.199.284-.315.629-.315 1v1.25c0 .414.336.75.75.75s.75-.336.75-.75v-1.25c0-.138.112-.25.25-.25h4.345.405c.414 0 .5-.336.5-.75z"/></g></svg>