<svg id="color" enable-background="new 0 0 24 24" height="512" viewBox="0 0 24 24" width="512" xmlns="http://www.w3.org/2000/svg"><path d="m9.75 19.5c-5.376 0-9.75-4.374-9.75-9.75s4.374-9.75 9.75-9.75 9.75 4.374 9.75 9.75-4.374 9.75-9.75 9.75z" fill="#607d8b"/><path d="m17.5 9.75c0 .34-.02.67-.07 1-.49 3.8-3.75 6.75-7.68 6.75s-7.19-2.95-7.68-6.75c-.05-.33-.07-.66-.07-1s.02-.67.07-1c.49-3.8 3.75-6.75 7.68-6.75s7.19 2.95 7.68 6.75c.05.33.07.66.07 1z" fill="#eceff1"/><path d="m23 24c-.256 0-.512-.098-.707-.293l-6.98-6.98c-.391-.391-.391-1.023 0-1.414s1.023-.391 1.414 0l6.98 6.98c.391.391.391 1.023 0 1.414-.195.195-.451.293-.707.293z" fill="#607d8b"/><path d="m2.859 2.859c-1.765 1.766-2.859 4.203-2.859 6.891 0 5.376 4.374 9.75 9.75 9.75 2.329 0 4.469-.821 6.148-2.188l-.585-.585c-.391-.391-.391-1.023 0-1.414l-.088-.088c-1.403 1.404-3.34 2.275-5.475 2.275-3.93 0-7.19-2.95-7.68-6.75-.05-.33-.07-.66-.07-1s.02-.67.07-1c.224-1.736 1.026-3.294 2.205-4.475z" fill="#546d79"/><path d="m4.275 4.275c-1.18 1.181-1.981 2.739-2.205 4.475-.05.33-.07.66-.07 1s.02.67.07 1c.49 3.8 3.75 6.75 7.68 6.75 2.135 0 4.072-.871 5.475-2.275z" fill="#cdd0d2"/><path d="m15.313 15.312c-.391.391-.391 1.023 0 1.414l.585.585 6.395 6.395c.195.196.451.294.707.294s.512-.098.707-.293z" fill="#546d79"/><path d="m11.625 13.75c-.405 0-.771-.245-.926-.622l-.949-2.32-.949 2.321c-.158.386-.509.635-.956.621-.416-.012-.781-.282-.916-.677l-1.875-5.5c-.179-.523.1-1.091.624-1.269.522-.179 1.091.102 1.268.623l1.014 2.974.864-2.113c.154-.376.52-.622.926-.622s.771.246.926.622l.864 2.113 1.014-2.974c.179-.522.751-.803 1.269-.624.523.178.803.746.624 1.269l-1.875 5.5c-.135.395-.5.665-.916.677z" fill="#607d8b"/><path d="m6 6.25c-.107 0-.216.017-.323.054-.523.178-.802.746-.623 1.269l1.875 5.5c.135.395.5.665.916.677.012 0 .024.001.036.001.43 0 .766-.246.92-.622l.949-2.321v-3.642c-.406 0-.771.246-.926.622l-.864 2.113-1.014-2.974c-.141-.415-.53-.677-.946-.677z" fill="#546d79"/></svg>