<svg id="color" enable-background="new 0 0 24 24" height="512" viewBox="0 0 24 24" width="512" xmlns="http://www.w3.org/2000/svg"><path d="m4.463 23.943c-.28-.116-.463-.39-.463-.693v-4.25h-1.25c-1.517 0-2.75-1.233-2.75-2.75v-13.5c0-1.517 1.233-2.75 2.75-2.75h18.5c1.517 0 2.75 1.233 2.75 2.75v13.5c0 1.517-1.233 2.75-2.75 2.75h-11.189l-4.78 4.78c-.22.22-.546.276-.818.163z" fill="#eceff1"/><path d="m12 0h-9.25c-1.517 0-2.75 1.233-2.75 2.75v13.5c0 1.517 1.233 2.75 2.75 2.75h1.25v4.25c0 .303.183.577.463.693.092.038.189.057.287.057.192 0 .385-.074.53-.22l4.78-4.78h1.94z" fill="#cdd0d2"/><path d="m15 14.865h-.76c-2.701 0-4.285-.674-4.988-1.076-.154-.088-.251-.253-.252-.432l-.03-5.65c-.001-.173.089-.335.235-.427.407-.254 1.734-1.166 1.734-2.245 0-.617 0-1.9 1.201-1.9.804 0 1.67.738 1.67 2.36 0 .553-.096 1.017-.207 1.37h1.986c1.329 0 2.41 1.081 2.41 2.41 0 .031-.124 2.54-.61 3.562l.044.008c-.187 1.152-1.234 2.02-2.433 2.02z" fill="#ffcc80"/><path d="m8.5 14.865h-1c-.827 0-1.5-.673-1.5-1.5v-5c0-.827.673-1.5 1.5-1.5h1c.827 0 1.5.673 1.5 1.5v5c0 .827-.673 1.5-1.5 1.5z" fill="#2196f3"/><path d="m17.854 10.865h-7.854v2.5c0 .256-.064.497-.178.708.857.374 2.291.792 4.418.792h.76c1.199 0 2.246-.868 2.434-2.02l-.044-.008c.224-.47.371-1.257.464-1.972z" fill="#deb26f"/><path d="m10 10.865h-4v2.5c0 .827.673 1.5 1.5 1.5h1c.571 0 1.069-.321 1.322-.792.114-.211.178-.452.178-.708z" fill="#1d83d4"/></svg>