<svg id="color" enable-background="new 0 0 24 24" height="512" viewBox="0 0 24 24" width="512" xmlns="http://www.w3.org/2000/svg"><path d="m16.75 14c-.414 0-.75-.336-.75-.75v-7c0-.414.336-.75.75-.75s.75.336.75.75v7c0 .414-.336.75-.75.75z" fill="#b0bec5"/><path d="m16.75 5.5c-.414 0-.75.336-.75.75v7c0 .414.336.75.75.75z" fill="#99a5ac"/><path d="m16 10.75h-1.5c-2.619 0-4.75-2.131-4.75-4.75v-.5c0-.414.336-.75.75-.75h1.5c2.619 0 4.75 2.131 4.75 4.75v.5c0 .414-.336.75-.75.75z" fill="#4caf50"/><path d="m9.945 4.996c-.121.133-.195.31-.195.504v.5c0 2.619 2.131 4.75 4.75 4.75h1.5c.22 0 .418-.095.555-.246z" fill="#429846"/><path d="m18.25 7h-1.5c-.414 0-.75-.336-.75-.75v-.5c0-2.068 1.682-3.75 3.75-3.75h1.5c.414 0 .75.336.75.75v.5c0 2.068-1.682 3.75-3.75 3.75z" fill="#4caf50"/><path d="m21.737 2.18-5.605 4.496c.136.195.362.324.618.324h1.5c2.068 0 3.75-1.682 3.75-3.75v-.5c0-.228-.102-.433-.263-.57z" fill="#429846"/><path d="m19.5 21.25h-1.28c-.552 0-1-.448-1-1s.448-1 1-1h1.28c.668 0 1.293-.26 1.758-.732.482-.475.742-1.1.742-1.768 0-1.378-1.122-2.5-2.5-2.5h-8c-.832 0-1.605.414-2.069 1.106l-.069.123c-.24.375-.362.803-.362 1.271 0 .552-.448 1-1 1s-1-.448-1-1c0-.822.222-1.613.642-2.292l.089-.154c.875-1.309 2.269-2.054 3.769-2.054h8c2.481 0 4.5 2.019 4.5 4.5 0 1.208-.472 2.338-1.328 3.183-.834.845-1.964 1.317-3.172 1.317z" fill="#ffc107"/><path d="m12.5 21.25h-8c-2.481 0-4.5-2.019-4.5-4.5 0-1.208.472-2.338 1.328-3.183.834-.845 1.964-1.317 3.172-1.317h1.28c.552 0 1 .448 1 1s-.448 1-1 1h-1.28c-.668 0-1.293.26-1.758.732-.482.475-.742 1.1-.742 1.768 0 1.378 1.122 2.5 2.5 2.5h8c1.378 0 2.5-1.122 2.5-2.5 0-.552.448-1 1-1s1 .448 1 1c0 2.481-2.019 4.5-4.5 4.5z" fill="#ffc107"/><g fill="#dea806"><path d="m9 16.75h-2c0 .552.448 1 1 1s1-.448 1-1zm15 0h-2c0 .668-.26 1.293-.742 1.768-.465.472-1.089.732-1.758.732h-1.28c-.552 0-1 .448-1 1s.448 1 1 1h1.28c1.208 0 2.338-.472 3.172-1.317.856-.845 1.328-1.975 1.328-3.183z"/><path d="m17 16.75h-2c0 1.378-1.122 2.5-2.5 2.5h-8c-1.378 0-2.5-1.122-2.5-2.5h-2c0 2.481 2.019 4.5 4.5 4.5h8c2.481 0 4.5-2.019 4.5-4.5z"/></g></svg>