<svg id="color" enable-background="new 0 0 24 24" height="512" viewBox="0 0 24 24" width="512" xmlns="http://www.w3.org/2000/svg"><path d="m21.06 16.75-3.348-7.04h-11.424l-3.348 7.04z" fill="#64b5f6"/><path d="m21.06 16.75h-18.12l-2.272 4.778c-.256.538-.219 1.16.1 1.663.319.505.866.806 1.464.806h19.536c.598 0 1.145-.301 1.464-.806.318-.503.355-1.125.1-1.663z" fill="#90caf9"/><path d="m17.712 9.71-4.149-8.726c-.289-.609-.888-.986-1.563-.986s-1.274.378-1.563.987l-4.149 8.725z" fill="#2196f3"/><path d="m12 9.71h-5.712l-3.348 7.04h9.06z" fill="#579ed6"/><path d="m12 16.75h-9.06l-2.272 4.778c-.256.538-.219 1.16.1 1.663.319.505.866.806 1.464.806h9.768z" fill="#7db0d9"/><path d="m12-.002c-.675 0-1.274.378-1.563.987l-4.149 8.725h5.712z" fill="#1d83d4"/><path d="m16.944 20.199c-.834 0-1.665-.323-2.3-.958l-3.261-3.271c-.614-.607-.954-1.423-.954-2.293 0-.871.34-1.688.958-2.299 1.186-1.21 3.358-1.225 4.588.002l.56.561c.293.293.293.768 0 1.061-.294.293-.769.291-1.061 0l-.56-.56c-.658-.658-1.827-.657-2.464-.005-.34.335-.521.773-.521 1.24s.183.904.513 1.231l3.264 3.274c.639.639 1.646.69 2.344.119.317-.261.793-.216 1.055.105.263.321.216.793-.105 1.056-.604.493-1.331.737-2.056.737z" fill="#607d8b"/><path d="m20.75 24c-.871 0-1.687-.34-2.299-.957l-.537-.538c-.292-.293-.292-.769.001-1.061.293-.293.77-.293 1.062.001l.539.54c.329.332.767.515 1.234.515.468 0 .904-.183 1.231-.513.336-.333.519-.77.519-1.237s-.182-.904-.513-1.231l-3.264-3.274c-.615-.615-1.682-.664-2.341-.121-.318.264-.791.22-1.056-.101-.264-.319-.219-.792.101-1.056 1.23-1.017 3.215-.925 4.357.218l3.261 3.271c.615.607.955 1.424.955 2.295 0 .87-.34 1.687-.958 2.297-.604.611-1.421.952-2.292.952z" fill="#607d8b"/><g fill="#546d79"><path d="m11.374 11.392c-.609.61-.944 1.421-.944 2.285 0 .871.34 1.687.954 2.293l3.261 3.271c.635.635 1.466.958 2.3.958.725 0 1.452-.244 2.055-.737.086-.07.152-.155.198-.248l-1.005-1.005c-.05.025-.097.055-.142.092-.324.266-.715.397-1.105.397-.449 0-.897-.174-1.238-.516l-3.264-3.274c-.33-.327-.513-.764-.513-1.231 0-.46.176-.891.505-1.224z"/><path d="m18.446 21.225c-.192 0-.384.073-.531.22-.293.292-.293.768-.001 1.061l.537.538c.612.616 1.428.956 2.299.956h.001c.867 0 1.681-.339 2.285-.946l-1.061-1.061c-.326.327-.76.507-1.225.507-.468 0-.905-.183-1.234-.515l-.539-.54c-.147-.147-.339-.22-.531-.22zm-3.225-5.987c-.113.252-.081.557.106.784.149.18.363.273.579.273.104 0 .209-.022.306-.066z"/></g></svg>