<svg id="color" enable-background="new 0 0 24 24" height="512" viewBox="0 0 24 24" width="512" xmlns="http://www.w3.org/2000/svg"><path d="m21.054 24h-18.108c-.772 0-1.514-.327-2.033-.898-.521-.571-.777-1.339-.706-2.108l1.446-15.45c.133-1.422 1.31-2.494 2.739-2.494h15.217c1.429 0 2.605 1.072 2.738 2.495l1.446 15.449c.071.769-.186 1.538-.706 2.108-.52.571-1.261.898-2.033.898z" fill="#2196f3"/><path d="m23.021 12.738-7.723.012-14.32.009-.187 2 12.596-.008-6.425 9.249h2.434l6.427-9.251 7.384-.011z" fill="#fff"/><path d="m12 13c-.174 0-.348-.06-.487-.18-.185-.158-4.513-3.905-4.513-7.758 0-2.791 2.243-5.062 5-5.062s5 2.271 5 5.062c0 3.853-4.328 7.6-4.513 7.757-.139.121-.313.181-.487.181z" fill="#ef5350"/><path d="m12 3c-1.103 0-2 .897-2 2s.897 2 2 2 2-.897 2-2-.897-2-2-2z" fill="#fff"/><path d="m.891 13.689-.684 7.304c-.071.769.186 1.538.706 2.108.52.572 1.261.899 2.033.899h9.054v-3.748l-2.604 3.748h-2.434l5.038-7.253v-1.995l-11.209.007zm6.521-10.639h-3.02c-1.429 0-2.605 1.072-2.738 2.494l-.675 7.215 10.458-.007c-.617-.544-4.437-4.07-4.437-7.69 0-.714.147-1.395.412-2.012z" fill="#1d83d4"/><path d="m12 16.747-5.038 7.253h2.435l2.603-3.748zm-.565-3.995-10.457.007-.087.93-.1 1.07 11.209-.007v-1.752c-.174 0-.348-.06-.487-.18-.011-.01-.038-.032-.078-.068z" fill="#dedede"/><path d="m12 0c-2.051 0-3.817 1.257-4.588 3.05-.265.617-.412 1.298-.412 2.012 0 3.619 3.82 7.146 4.436 7.69.04.035.066.058.077.067.139.121.313.181.487.181v-6c-1.103 0-2-.897-2-2s.897-2 2-2z" fill="#d04846"/><path d="m12 3c-1.103 0-2 .897-2 2s.897 2 2 2z" fill="#dedede"/></svg>