<svg id="color" enable-background="new 0 0 24 24" height="512" viewBox="0 0 24 24" width="512" xmlns="http://www.w3.org/2000/svg"><path d="m12 22.25c-5.652 0-10.25-4.598-10.25-10.25s4.598-10.25 10.25-10.25 10.25 4.598 10.25 10.25-4.598 10.25-10.25 10.25z" fill="#64b5f6"/><path d="m12 3.75c-4.549 0-8.25 3.701-8.25 8.25s3.701 8.25 8.25 8.25 8.25-3.701 8.25-8.25-3.701-8.25-8.25-8.25z" fill="#eceff1"/><path d="m12 1.75c-5.652 0-10.25 4.598-10.25 10.25s4.598 10.25 10.25 10.25v-2c-4.549 0-8.25-3.701-8.25-8.25s3.701-8.25 8.25-8.25z" fill="#579ed6"/><path d="m12 3.75c-4.549 0-8.25 3.701-8.25 8.25s3.701 8.25 8.25 8.25z" fill="#cdd0d2"/><g fill="#2196f3"><path d="m12 24c-.553 0-1-.448-1-1v-2.391c0-.552.447-1 1-1s1 .448 1 1v2.391c0 .552-.447 1-1 1z"/><path d="m12 4.391c-.553 0-1-.448-1-1v-2.391c0-.552.447-1 1-1s1 .448 1 1v2.391c0 .552-.447 1-1 1z"/><path d="m3.392 13h-2.392c-.553 0-1-.448-1-1s.447-1 1-1h2.392c.553 0 1 .448 1 1s-.448 1-1 1z"/><path d="m23 13h-2.392c-.553 0-1-.448-1-1s.447-1 1-1h2.392c.553 0 1 .448 1 1s-.447 1-1 1z"/></g><path d="m12 19.609c-.407 0-.757.243-.913.591-.056.125-.087.263-.087.409v1.593.798c0 .552.447 1 1 1z" fill="#1d83d4"/><path d="m12 0c-.553 0-1 .448-1 1v.798 1.593c0 .146.031.284.087.409.156.348.506.591.913.591z" fill="#1d83d4"/><path d="m19.609 12c0 .407.243.757.591.913.125.056.263.087.409.087h1.593.798c.552 0 1-.447 1-1z" fill="#1d83d4"/><path d="m0 12c0 .553.448 1 1 1h.798 1.593c.146 0 .284-.031.409-.087.349-.156.591-.506.591-.913z" fill="#1d83d4"/><path d="m10.5 17.248c-.96 0-1.92-.366-2.651-1.097-.708-.708-1.099-1.649-1.099-2.651 0-1.001.39-1.943 1.099-2.651 1.463-1.462 3.842-1.462 5.303 0 .708.708 1.099 1.649 1.099 2.651s-.391 1.943-1.099 2.651c-.731.731-1.692 1.097-2.652 1.097zm0-5.497c-.448 0-.897.171-1.237.512-.331.33-.513.77-.513 1.237s.182.907.513 1.237c.682.682 1.793.682 2.475 0 .331-.331.513-.77.513-1.237s-.182-.907-.513-1.237c-.341-.341-.79-.512-1.238-.512zm-1.944-.195h.01z" fill="#607d8b"/><path d="m12.5 12.5c-.256 0-.512-.098-.707-.293-.391-.391-.391-1.023 0-1.414l3.5-3.5c.391-.391 1.023-.391 1.414 0s.391 1.023 0 1.414l-3.5 3.5c-.195.195-.451.293-.707.293z" fill="#607d8b"/><path d="m16.244 11.25c-.26 0-.516-.102-.707-.293l-2.494-2.494c-.286-.286-.371-.715-.218-1.089.154-.373.519-.617.923-.618l2.5-.006h.002c.266 0 .519.105.707.293s.294.443.293.71l-.006 2.5c-.001.404-.245.768-.618.922-.124.05-.253.075-.382.075z" fill="#607d8b"/><path d="m10.501 9.752c-.96 0-1.921.365-2.652 1.096-.709.709-1.099 1.651-1.099 2.652 0 1.002.391 1.943 1.099 2.651l1.414-1.414c-.331-.33-.513-.77-.513-1.237s.182-.907.513-1.237c.341-.341.789-.512 1.237-.512s.896.171 1.237.512l.056-.056c-.391-.391-.391-1.023 0-1.414l.556-.556c-.571-.323-1.21-.485-1.848-.485z" fill="#546d79"/><path d="m13.583 9.003-1.234 1.234-.556.556c-.391.391-.391 1.023 0 1.414l2.497-2.497z" fill="#546d79"/><path d="m16.25 6.75h-.002l-2.5.006c-.404.001-.769.245-.923.618-.153.374-.068.803.218 1.089l.54.54.707.707 2.667-2.667c-.187-.188-.441-.293-.707-.293z" fill="#546d79"/></svg>