<svg id="color" enable-background="new 0 0 24 24" height="512" viewBox="0 0 24 24" width="512" xmlns="http://www.w3.org/2000/svg"><path d="m23.25 4h-22.5c-.41 0-.75.34-.75.75v16.5c0 1.52 1.23 2.75 2.75 2.75h2.25v-6.25c0-1.52 1.23-2.75 2.75-2.75h8.5c1.52 0 2.75 1.23 2.75 2.75v6.25h2.25c1.52 0 2.75-1.23 2.75-2.75v-16.5c0-.41-.34-.75-.75-.75z" fill="#607d8b"/><path d="m19 17.75v6.25h-14v-6.25c0-1.52 1.23-2.75 2.75-2.75h8.5c1.52 0 2.75 1.23 2.75 2.75z" fill="#fff"/><path d="m23.25 5.5h-22.5c-.26 0-.501-.134-.638-.355s-.149-.497-.033-.729l1.72-3.45c.298-.596.899-.966 1.571-.966h17.26c.672 0 1.273.37 1.571.964l1.72 3.451c.116.232.104.508-.033.729-.137.222-.378.356-.638.356z" fill="#607d8b"/><path d="m.008 4.639c-.005.036-.008.073-.008.111v16.5c0 1.52 1.23 2.75 2.75 2.75h2.25v-6.25c0-1.52 1.23-2.75 2.75-2.75h4.25v-9.5h-11.25c-.26 0-.501-.134-.638-.355-.094-.153-.13-.333-.104-.506z" fill="#546d79"/><path d="m12 15h-4.25c-1.52 0-2.75 1.23-2.75 2.75v6.25h7z" fill="#dedede"/><path d="m12 0h-8.63c-.672 0-1.273.37-1.571.965l-1.72 3.45c-.036.072-.059.147-.071.224-.026.173.009.352.104.505.137.222.378.356.638.356h11.25z" fill="#546d79"/><path d="m0 5v4c0 1.657 1.343 3 3 3s3-1.343 3-3v-4z" fill="#2196f3"/><path d="m3 5h-3v4c0 1.657 1.343 3 3 3z" fill="#1d83d4"/><path d="m6 5v4c0 1.657 1.343 3 3 3s3-1.343 3-3v-4z" fill="#64b5f6"/><path d="m9 5h-3v4c0 1.657 1.343 3 3 3z" fill="#579ed6"/><path d="m12 5v4c0 1.657 1.343 3 3 3s3-1.343 3-3v-4z" fill="#2196f3"/><path d="m15 5h-3v4c0 1.657 1.343 3 3 3z" fill="#1d83d4"/><path d="m18 5v4c0 1.657 1.343 3 3 3s3-1.343 3-3v-4z" fill="#64b5f6"/><path d="m21 5h-3v4c0 1.657 1.343 3 3 3z" fill="#579ed6"/></svg>