<svg id="color" enable-background="new 0 0 24 24" height="512" viewBox="0 0 24 24" width="512" xmlns="http://www.w3.org/2000/svg"><path d="m5 23c-1.103 0-2-.897-2-2s.897-2 2-2 2 .897 2 2-.897 2-2 2z" fill="#607d8b"/><path d="m15 23c-1.103 0-2-.897-2-2s.897-2 2-2 2 .897 2 2-.897 2-2 2z" fill="#607d8b"/><path d="m5 19c-1.103 0-2 .897-2 2s.897 2 2 2z" fill="#546d79"/><path d="m15 19c-1.103 0-2 .897-2 2s.897 2 2 2z" fill="#546d79"/><path d="m23 1.75h-1.614c-1.011 0-1.865.757-1.985 1.759l-.302 2.491h2.015l.273-2.25h1.613c.552 0 1-.448 1-1s-.448-1-1-1z" fill="#b0bec5"/><path d="m21.12 6-1.34 11h-15.54c-.76 0-1.44-.5-1.67-1.22l-2.36-7.5c-.17-.54-.08-1.11.26-1.56.33-.46.84-.72 1.41-.72z" fill="#eceff1"/><path d="m17.765 17-.151 1.25h-14.114c-.552 0-1 .448-1 1s.448 1 1 1h14.114c1.011 0 1.865-.757 1.985-1.759l.181-1.491z" fill="#b0bec5"/><path d="m10.623 6h-8.743c-.57 0-1.08.26-1.41.72-.34.45-.43 1.02-.26 1.56l2.36 7.5c.23.72.91 1.22 1.67 1.22h6.383z" fill="#cdd0d2"/><path d="m10.623 18.25h-7.123c-.552 0-1 .448-1 1s.448 1 1 1h7.123z" fill="#99a5ac"/><path d="m15.25 3.75h-2.5c-.404 0-.769.244-.924.617-.155.374-.069.804.217 1.09l.543.543-1.033 1.033-1.355-.678c-.386-.193-.851-.116-1.155.188l-3 3c-.391.391-.391 1.023 0 1.414.195.195.451.293.707.293s.512-.098.707-.293l2.49-2.49 1.355.678c.385.191.85.117 1.154-.187l1.544-1.544.543.543c.191.191.447.293.707.293.129 0 .259-.025.383-.076.374-.155.617-.52.617-.924v-2.5c0-.552-.448-1-1-1z" fill="#2196f3"/><path d="m15.25 3.75h-2.5c-.404 0-.769.244-.924.617-.155.374-.069.804.217 1.09l.543.543-1.033 1.033-1.355-.678c-.143-.071-.296-.105-.447-.105-.26 0-.516.101-.708.293l-3 3c-.391.391-.391 1.023 0 1.414l3.452-3.452c.096-.096.224-.147.354-.147.076 0 .152.017.223.053l1.355.678c.071.035.148.053.223.053.13 0 .258-.05.354-.147l3.952-3.952c-.18-.181-.43-.293-.706-.293z" fill="#1d83d4"/></svg>