<svg id="color" enable-background="new 0 0 24 24" height="512" viewBox="0 0 24 24" width="512" xmlns="http://www.w3.org/2000/svg"><path d="m17.325 24h-8.775c-.414 0-.75-.336-.75-.75v-2.9l-2.015.614c-.176.064-.404.102-.648.102-1.22 0-2.213-.995-2.213-2.218v-2.674h-1.687c-.682 0-1.237-.556-1.237-1.239 0-.23.066-.459.191-.66l2.279-3.63c.297-.474.454-1.019.454-1.577.001-5.001 4.056-9.068 9.039-9.068s9.037 4.067 9.037 9.065c0 1.871-.568 3.671-1.643 5.206-.839 1.198-1.282 2.603-1.282 4.062v4.916c0 .415-.336.751-.75.751z" fill="#eceff1"/><path d="m11.5.012c-4.769.242-8.575 4.211-8.575 9.056 0 .558-.157 1.103-.454 1.577l-2.279 3.63c-.126.201-.192.429-.192.66 0 .683.555 1.239 1.237 1.239h1.687v2.674c0 1.223.993 2.218 2.213 2.218.243 0 .472-.038.648-.102l2.015-.614v2.9c0 .414.336.75.75.75h2.95z" fill="#cdd0d2"/><path d="m21.329 8.981c-.403-.094-.654-.498-.56-.901l1.75-7.5c.095-.403.496-.655.901-.56.403.094.654.498.56.901l-1.75 7.5c-.094.403-.497.653-.901.56z" fill="#90a4ae"/><path d="m16 12c-.689 0-1.25-.561-1.25-1.25s.561-1.25 1.25-1.25 1.25.561 1.25 1.25-.561 1.25-1.25 1.25z" fill="#546e7a"/><path d="m20 12c-.689 0-1.25-.561-1.25-1.25s.561-1.25 1.25-1.25 1.25.561 1.25 1.25-.561 1.25-1.25 1.25z" fill="#546e7a"/><path d="m16 9.5c-.689 0-1.25.561-1.25 1.25s.561 1.25 1.25 1.25z" fill="#49606a"/><path d="m20 9.5c-.689 0-1.25.561-1.25 1.25s.561 1.25 1.25 1.25z" fill="#49606a"/><path d="m21.5 9.001h-7.75c-.352 0-.656-.244-.732-.587l-1-4.5c-.105-.471.253-.914.732-.914h9.8c.48 0 .84.448.73.92l-1.05 4.5c-.079.34-.381.581-.73.581z" fill="#2196f3"/><path d="m17.649 3h-4.899c-.479 0-.837.443-.732.913l1 4.5c.076.343.381.587.732.587h3.899z" fill="#1d83d4"/></svg>