<svg id="color" enable-background="new 0 0 24 24" height="512" viewBox="0 0 24 24" width="512" xmlns="http://www.w3.org/2000/svg"><path d="m24 19.5h-24v-15h24z" fill="#cfd8dc"/><path d="m0 4.5v15-1h7 5v-13h-5-7z" fill="#b4bcc0"/><path d="m10 18c-.689 0-1.25-.561-1.25-1.25s.561-1.25 1.25-1.25 1.25.561 1.25 1.25-.561 1.25-1.25 1.25z" fill="#2196f3"/><path d="m14 18c-.689 0-1.25-.561-1.25-1.25s.561-1.25 1.25-1.25 1.25.561 1.25 1.25-.561 1.25-1.25 1.25z" fill="#2196f3"/><path d="m10 15.5c-.689 0-1.25.561-1.25 1.25s.561 1.25 1.25 1.25z" fill="#1d83d4"/><path d="m14 15.5c-.689 0-1.25.561-1.25 1.25s.561 1.25 1.25 1.25z" fill="#1d83d4"/><path d="m17.42 6.02c-.404-.095-.806.157-.9.56l-.565 2.42h-9.205c-.479 0-.836.443-.732.913l1 4.5c.076.343.38.587.732.587h7.75c.349 0 .651-.24.73-.58l.485-2.079 1.265-5.42c.094-.404-.156-.807-.56-.901z" fill="#2196f3"/><path d="m12 9h-5.25c-.479 0-.836.443-.732.913l1 4.5c.076.343.38.587.732.587h4.25z" fill="#1d83d4"/><g fill="#607d8b"><path d="m15.5 18.5h8.5v2.75c0 1.519-1.231 2.75-2.75 2.75h-5c-.414 0-.75-.336-.75-.75zm7 1.5h-5.5v2.5h4.25c.689 0 1.25-.561 1.25-1.25z"/><path d="m0 18.5h8.5v4.75c0 .414-.336.75-.75.75h-5c-1.519 0-2.75-1.231-2.75-2.75zm7 1.5h-5.5v1.25c0 .689.561 1.25 1.25 1.25h4.25z"/><path d="m7 18.5h10v4.75c0 .414-.336.75-.75.75h-8.5c-.414 0-.75-.336-.75-.75zm8.5 1.5h-7v2.5h7z"/></g><path d="m2.75 22.5c-.689 0-1.25-.561-1.25-1.25v-1.25h5.5v2.5zm4.25-4h-7v1 1.75c0 1.519 1.231 2.75 2.75 2.75h5c-.414 0-.75-.336-.75-.75z" fill="#546d79"/><path d="m12 20h-3.5v2.5h3.5z" fill="#dedede"/><path d="m12 18.5h-5v4.75c0 .414.336.75.75.75h4.25v-1.5h-3.5v-2.5h3.5z" fill="#546d79"/><path d="m24 5.5h-8.5v-4.75c0-.414.336-.75.75-.75h5c1.519 0 2.75 1.231 2.75 2.75zm-7-1.5h5.5v-1.25c0-.689-.561-1.25-1.25-1.25h-4.25z" fill="#607d8b"/><path d="m17 5.5h-10v-4.75c0-.414.336-.75.75-.75h8.5c.414 0 .75.336.75.75zm-8.5-1.5h7v-2.5h-7z" fill="#607d8b"/><path d="m8.5 5.5h-8.5v-2.75c0-1.519 1.231-2.75 2.75-2.75h5c.414 0 .75.336.75.75zm-7-1.5h5.5v-2.5h-4.25c-.689 0-1.25.561-1.25 1.25z" fill="#607d8b"/><path d="m12 4h-3.5v1.5h-1.5 5zm0-4h-4.25c.414 0 .75.336.75.75v.75h3.5z" fill="#546d79"/><path d="m7 1.5v2.5h-5.5v-1.25c0-.689.561-1.25 1.25-1.25zm.75-1.5h-5c-1.519 0-2.75 1.231-2.75 2.75v1.75 1h7 1.5v-1.5-2.5-.75c0-.414-.336-.75-.75-.75z" fill="#546d79"/></svg>