<svg id="color" enable-background="new 0 0 24 24" height="512" viewBox="0 0 24 24" width="512" xmlns="http://www.w3.org/2000/svg"><path d="m24 8.65v1.59l-11.07 5.78c-.58.3-1.279.3-1.859 0l-11.071-5.78v-1.59c0-.83.46-1.59 1.19-1.98l9.75-5.21c.659-.35 1.46-.35 2.119 0l9.75 5.21c.731.39 1.191 1.15 1.191 1.98z" fill="#2196f3"/><path d="m21 2.75c0-1.519-1.231-2.75-2.75-2.75h-12.5c-1.519 0-2.75 1.231-2.75 2.75v17.32c0 .414.336.75.75.75h16.5c.414 0 .75-.336.75-.75z" fill="#eceff1"/><path d="m24 10.24v10.51c0 1.24-1.01 2.25-2.25 2.25h-19.5c-1.24 0-2.25-1.01-2.25-2.25v-10.51l11.07 5.78c.58.3 1.279.3 1.859 0z" fill="#64b5f6"/><path d="m3 5.703-1.81.967c-.73.39-1.19 1.15-1.19 1.98v1.59l3 1.566z" fill="#1d83d4"/><path d="m12 0h-6.25c-1.519 0-2.75 1.231-2.75 2.75v2.953 6.104l8.07 4.214c.29.15.61.225.93.225z" fill="#cdd0d2"/><path d="m0 10.24v10.51c0 1.24 1.01 2.25 2.25 2.25h9.75v-6.755c-.32 0-.64-.075-.93-.225l-8.07-4.213z" fill="#579ed6"/><path d="m9.5 6.75c-.689 0-1.25-.561-1.25-1.25s.561-1.25 1.25-1.25 1.25.56 1.25 1.25-.561 1.25-1.25 1.25z" fill="#b0bec5"/><path d="m14.5 11.751c-.689 0-1.25-.561-1.25-1.25s.561-1.25 1.25-1.25 1.25.561 1.25 1.25-.561 1.25-1.25 1.25z" fill="#b0bec5"/><path d="m9.5 4.251c-.689 0-1.25.56-1.25 1.25 0 .689.561 1.25 1.25 1.25z" fill="#99a5ac"/><path d="m14.5 9.25c-.689 0-1.25.561-1.25 1.25s.561 1.25 1.25 1.25z" fill="#99a5ac"/><path d="m10.749 11.751c-.138 0-.278-.029-.413-.09-.503-.228-.725-.821-.496-1.324l2.5-5.5c.228-.502.817-.727 1.324-.497.503.228.725.821.496 1.324l-2.5 5.5c-.167.369-.53.587-.911.587z" fill="#b0bec5"/><path d="m13.249 4.25c-.381 0-.742.219-.909.587l-2.5 5.5c-.229.502-.007 1.095.496 1.324l3.328-7.32c-.135-.062-.276-.091-.415-.091z" fill="#99a5ac"/></svg>