<svg id="color" enable-background="new 0 0 24 24" height="512" viewBox="0 0 24 24" width="512" xmlns="http://www.w3.org/2000/svg"><path d="m22 4h-4v17c0 1.657 1.343 3 3 3 1.657 0 3-1.343 3-3v-15c0-1.105-.895-2-2-2z" fill="#90a4ae"/><path d="m18 21v-19c0-1.104-.896-2-2-2h-14c-1.104 0-2 .896-2 2v19c0 1.657 1.343 3 3 3h18c-1.657 0-3-1.343-3-3z" fill="#eceff1"/><path d="m9 0h-7c-1.104 0-2 .896-2 2v19c0 1.657 1.343 3 3 3h6z" fill="#cdd0d2"/><path d="m8.25 9h-4.5c-.414 0-.75-.336-.75-.75v-4.5c0-.414.336-.75.75-.75h4.5c.414 0 .75.336.75.75v4.5c0 .414-.336.75-.75.75z" fill="#2196f3"/><g fill="#b0bec5"><path d="m14.25 5.5h-2.5c-.414 0-.75-.336-.75-.75s.336-.75.75-.75h2.5c.414 0 .75.336.75.75s-.336.75-.75.75z"/><path d="m14.25 8.5h-2.5c-.414 0-.75-.336-.75-.75s.336-.75.75-.75h2.5c.414 0 .75.336.75.75s-.336.75-.75.75z"/><path d="m14.25 12.5h-10.5c-.414 0-.75-.336-.75-.75s.336-.75.75-.75h10.5c.414 0 .75.336.75.75s-.336.75-.75.75z"/><path d="m14.25 16.25h-10.5c-.414 0-.75-.336-.75-.75s.336-.75.75-.75h10.5c.414 0 .75.336.75.75s-.336.75-.75.75z"/><path d="m14.25 20h-10.5c-.414 0-.75-.336-.75-.75s.336-.75.75-.75h10.5c.414 0 .75.336.75.75s-.336.75-.75.75z"/></g><path d="m9 6h-6v2.25c0 .414.336.75.75.75h4.5c.414 0 .75-.336.75-.75z" fill="#1d83d4"/><path d="m15 4.75h-4c0 .414.336.75.75.75h2.5c.414 0 .75-.336.75-.75z" fill="#99a5ac"/><path d="m15 7.75h-4c0 .414.336.75.75.75h2.5c.414 0 .75-.336.75-.75z" fill="#99a5ac"/><path d="m15 11.75h-12c0 .414.336.75.75.75h10.5c.414 0 .75-.336.75-.75z" fill="#99a5ac"/><path d="m15 15.5h-12c0 .414.336.75.75.75h10.5c.414 0 .75-.336.75-.75z" fill="#99a5ac"/><path d="m15 19.25h-12c0 .414.336.75.75.75h10.5c.414 0 .75-.336.75-.75z" fill="#99a5ac"/></svg>