<svg id="color" enable-background="new 0 0 24 24" height="512" viewBox="0 0 24 24" width="512" xmlns="http://www.w3.org/2000/svg"><path d="m15.5 21h-11.5c-1.517 0-2.75-1.233-2.75-2.75v-15.5c0-1.517 1.233-2.75 2.75-2.75h11.5c1.517 0 2.75 1.233 2.75 2.75v15.5c0 1.517-1.233 2.75-2.75 2.75z" fill="#cfd8dc"/><path d="m9.75 0h-5.75c-1.517 0-2.75 1.233-2.75 2.75v15.5c0 1.517 1.233 2.75 2.75 2.75h5.75z" fill="#b4bcc0"/><path d="m20.25 24h-11.5c-1.517 0-2.75-1.233-2.75-2.75v-15.5c0-1.517 1.233-2.75 2.75-2.75h11.5c1.517 0 2.75 1.233 2.75 2.75v15.5c0 1.517-1.233 2.75-2.75 2.75z" fill="#2196f3"/><path d="m14.5 3h-5.75c-1.517 0-2.75 1.233-2.75 2.75v15.5c0 1.517 1.233 2.75 2.75 2.75h5.75z" fill="#1d83d4"/><g fill="#eceff1"><path d="m13.25 12.25h-3.5c-.414 0-.75-.336-.75-.75v-3.5c0-.414.336-.75.75-.75h3.5c.414 0 .75.336.75.75v3.5c0 .414-.336.75-.75.75z"/><path d="m19.5 12h-3c-.414 0-.75-.336-.75-.75s.336-.75.75-.75h3c.414 0 .75.336.75.75s-.336.75-.75.75z"/><path d="m19.5 9h-3c-.414 0-.75-.336-.75-.75s.336-.75.75-.75h3c.414 0 .75.336.75.75s-.336.75-.75.75z"/><path d="m19.25 20h-9.5c-.414 0-.75-.336-.75-.75s.336-.75.75-.75h9.5c.414 0 .75.336.75.75s-.336.75-.75.75z"/><path d="m19.25 16h-9.5c-.414 0-.75-.336-.75-.75s.336-.75.75-.75h9.5c.414 0 .75.336.75.75s-.336.75-.75.75z"/></g><path d="m20.25 8.25h-4.5c0 .414.336.75.75.75h3c.414 0 .75-.336.75-.75z" fill="#cdd0d2"/><path d="m20 15.25h-11c0 .414.336.75.75.75h9.5c.414 0 .75-.336.75-.75z" fill="#cdd0d2"/><path d="m20 19.25h-11c0 .414.336.75.75.75h9.5c.414 0 .75-.336.75-.75z" fill="#cdd0d2"/><path d="m20.25 11.25h-4.5c0 .414.336.75.75.75h3c.414 0 .75-.336.75-.75z" fill="#cdd0d2"/><path d="m14 9.75h-5v1.75c0 .414.336.75.75.75h3.5c.414 0 .75-.336.75-.75z" fill="#cdd0d2"/></svg>