<svg id="color" enable-background="new 0 0 24 24" height="512" viewBox="0 0 24 24" width="512" xmlns="http://www.w3.org/2000/svg"><path d="m12 0c-6.617 0-12 5.383-12 12s5.383 12 12 12 12-5.383 12-12-5.383-12-12-12zm8.4 17.406c-.801-.381-1.702-.7-2.677-.956.208-1.08.341-2.242.387-3.469h3.841c-.159 1.621-.711 3.124-1.551 4.425zm-18.35-4.424h3.84c.046 1.227.179 2.389.387 3.469-.975.255-1.876.575-2.677.956-.84-1.302-1.392-2.805-1.55-4.425zm1.55-6.388c.801.381 1.702.7 2.677.956-.206 1.069-.339 2.219-.386 3.433h-3.84c.164-1.607.715-3.098 1.549-4.389zm9.4 1.636c.947-.038 1.875-.124 2.765-.266.178.925.298 1.937.345 3.018h-3.11zm0-1.999v-3.88c.857.578 1.677 1.864 2.264 3.667-.729.108-1.487.179-2.264.213zm-2-3.88v3.88c-.777-.033-1.535-.105-2.264-.213.587-1.803 1.407-3.089 2.264-3.667zm0 5.879v2.752h-3.11c.047-1.081.167-2.092.345-3.018.89.142 1.818.228 2.765.266zm-3.111 4.752h3.111v2.788c-.947.038-1.875.124-2.765.266-.18-.936-.3-1.96-.346-3.054zm3.111 4.787v3.88c-.857-.578-1.677-1.864-2.264-3.667.729-.108 1.487-.179 2.264-.213zm2 3.88v-3.88c.777.033 1.535.105 2.264.213-.587 1.803-1.407 3.089-2.264 3.667zm0-5.879v-2.788h3.111c-.046 1.094-.166 2.118-.346 3.054-.89-.142-1.818-.228-2.765-.266zm5.109-4.788c-.048-1.214-.18-2.363-.386-3.433.975-.255 1.876-.575 2.677-.956.834 1.292 1.385 2.782 1.549 4.388h-3.84zm1.005-5.999c-.574.243-1.201.454-1.872.631-.321-1.037-.718-1.961-1.183-2.745 1.147.512 2.183 1.23 3.055 2.114zm-11.172-2.114c-.465.784-.863 1.708-1.183 2.745-.671-.177-1.299-.388-1.873-.631.872-.884 1.908-1.602 3.056-2.114zm-3.056 16.148c.574-.243 1.201-.454 1.872-.631.321 1.037.718 1.961 1.183 2.745-1.147-.512-2.183-1.23-3.055-2.114zm11.172 2.114c.465-.784.862-1.708 1.183-2.745.671.177 1.299.388 1.872.631-.871.884-1.907 1.602-3.055 2.114z" fill="#cfd8dc"/><path d="m7.941 21.131c-1.148-.512-2.184-1.23-3.055-2.114.574-.243 1.201-.454 1.873-.631.321 1.037.718 1.961 1.182 2.745zm3.059.518c-.857-.579-1.677-1.864-2.264-3.667.729-.108 1.487-.18 2.264-.213zm-7.4-4.243c-.84-1.301-1.392-2.805-1.55-4.424h3.841c.046 1.227.179 2.389.387 3.469-.976.255-1.877.575-2.678.955zm4.635-1.37c-.18-.935-.3-1.959-.346-3.054h3.111v2.788c-.947.038-1.876.125-2.765.266zm-.345-5.054c.048-1.081.167-2.092.345-3.018.889.141 1.818.228 2.765.266v2.752zm-5.838 0c.163-1.606.714-3.097 1.548-4.388.801.38 1.702.7 2.677.956-.206 1.069-.338 2.219-.386 3.433h-3.839zm4.707-5.368c-.672-.177-1.299-.388-1.873-.631.872-.884 1.907-1.602 3.055-2.114-.464.784-.861 1.708-1.182 2.745zm4.241.617c-.777-.034-1.535-.105-2.264-.213.587-1.804 1.407-3.089 2.264-3.667zm1-6.231c-6.617 0-12 5.383-12 12s5.383 12 12 12z" fill="#b4bcc0"/><path d="m8.187 15.813 4.615-5.676c.293-.293.768-.293 1.061 0s.293.768 0 1.061z" fill="#607d8b"/><path d="m16.692 11.24c-.192 0-.384-.073-.53-.22l-3.182-3.182c-.141-.141-.22-.332-.22-.53 0-.199.079-.39.22-.53l3.502-3.502c.293-.293.768-.293 1.061 0l3.183 3.182c.141.141.22.331.22.53s-.079.39-.22.53l-3.502 3.502c-.148.147-.339.22-.532.22z" fill="#ffb300"/><path d="m15.631 13.715c-.192 0-.384-.073-.53-.22l-4.596-4.596c-.293-.293-.293-.768 0-1.061l1.061-1.061c.682-.683 1.793-.683 2.475 0l3.183 3.182c.682.682.682 1.791.001 2.474l-1.062 1.062c-.148.147-.341.22-.532.22z" fill="#ffc107"/><path d="m21.288 8.765c-.192 0-.384-.073-.53-.22l-5.304-5.303c-.141-.141-.22-.332-.22-.53 0-.199.079-.39.22-.53l1.769-1.768c.294-.293.769-.292 1.061 0l5.303 5.303c.293.293.293.768 0 1.061l-1.768 1.768c-.147.146-.339.219-.531.219z" fill="#ffc107"/><path d="m12.803 11.197-4.616 4.616 5.091-4.14z" fill="#546d79"/><path d="m18.106 5.894-2.475 2.475 1.591 1.591c.19.19.326.412.411.65l2.594-2.595z" fill="#de9c00"/><g fill="#dea806"><path d="m15.631 8.369-2.828 2.828.476.476 1.822 1.822c.146.146.338.22.53.22.191 0 .384-.073.53-.219l1.062-1.062c.491-.493.628-1.208.41-1.824-.084-.237-.221-.46-.411-.65z"/><path d="m20.934 3.066-2.828 2.828 2.121 2.121.53.53c.146.146.338.22.53.22s.384-.073.53-.22l1.768-1.768c.293-.293.293-.768 0-1.061z"/></g></svg>