<svg id="color" enable-background="new 0 0 24 24" height="512" viewBox="0 0 24 24" width="512" xmlns="http://www.w3.org/2000/svg"><path d="m12 14h-9.25c-1.519 0-2.75-1.231-2.75-2.75v-8.5c0-1.519 1.231-2.75 2.75-2.75h9.25z" fill="#2196f3"/><path d="m7.25 10c-.414 0-.75-.336-.75-.75v-3.15c0-.331-.224-.6-.5-.6s-.5.269-.5.6v3.15c0 .414-.336.75-.75.75s-.75-.336-.75-.75v-3.15c0-1.158.897-2.1 2-2.1s2 .942 2 2.1v3.15c0 .414-.336.75-.75.75z" fill="#fff"/><path d="m7.25 8.2h-2.5c-.414 0-.5-.336-.5-.75s.086-.75.5-.75h2.5c.414 0 .5.336.5.75s-.086.75-.5.75z" fill="#fff"/><path d="m6 5.5c-.276 0-.5.269-.5.6v.6h.5zm0-5.5h-3.25c-1.519 0-2.75 1.231-2.75 2.75v8.5c0 1.519 1.231 2.75 2.75 2.75h3.25v-5.8h-.5v1.05c0 .414-.336.75-.75.75s-.75-.336-.75-.75v-3.15c0-1.158.897-2.1 2-2.1z" fill="#1d83d4"/><path d="m6 4c-1.103 0-2 .942-2 2.1v3.15c0 .414.336.75.75.75s.75-.336.75-.75v-1.05h-.75c-.414 0-.5-.336-.5-.75s.086-.75.5-.75h.75v-.6c0-.331.224-.6.5-.6z" fill="#dedede"/><path d="m6 6.7h-.5-.75c-.414 0-.5.336-.5.75s.086.75.5.75h.75.5z" fill="#dedede"/><path d="m21.25 14h-9.25v-14h9.25c1.519 0 2.75 1.231 2.75 2.75v8.5c0 1.519-1.231 2.75-2.75 2.75z" fill="#64b5f6"/><g fill="#fff"><path d="m18.208 7.75h-1.458c-.414 0-.75-.336-.75-.75s.336-.75.75-.75h1.459c.158 0 .292-.172.292-.375s-.133-.375-.292-.375h-1.459c-.414 0-.75-.336-.75-.75s.336-.75.75-.75h1.459c.987 0 1.791.841 1.791 1.875s-.804 1.875-1.792 1.875z"/><path d="m18.208 10h-1.458c-.414 0-.75-.336-.75-.75s.336-.75.75-.75h1.459c.158 0 .292-.172.292-.375s-.133-.375-.292-.375h-1.459c-.414 0-.75-.336-.75-.75s.336-.75.75-.75h1.459c.987 0 1.791.841 1.791 1.875s-.804 1.875-1.792 1.875z"/><path d="m16.75 10c-.414 0-.75-.336-.75-.75v-4.5c0-.414.336-.75.75-.75s.75.336.75.75v4.5c0 .414-.336.75-.75.75z"/></g><path d="m18 7.75h-.5v.75h.5zm0-2.25h-.5v.75h.5zm0-5.5h-6v14h6v-4h-1.25c-.414 0-.75-.336-.75-.75v-2.25-2.25c0-.414.336-.75.75-.75h1.25z" fill="#579ed6"/><path d="m18 4h-1.25c.414 0 .75.336.75.75v.75h.5z" fill="#dedede"/><path d="m18 8.5h-.5v.75c0 .414-.336.75-.75.75s-.75-.336-.75-.75c0 .414.336.75.75.75h1.25zm0-2.25h-.5v1.5h.5z" fill="#dedede"/><path d="m16.75 4c-.414 0-.75.336-.75.75v2.25 2.25c0 .414.336.75.75.75s.75-.336.75-.75v-.75-.75-1.5-.75-.75c0-.414-.336-.75-.75-.75z" fill="#dedede"/><path d="m15.153 13.375 2.796 2.796.009.009c1.664 1.664 1.173 3.935-.505 5.613l-1.183 1.183c-1.197 1.179-2.932 1.301-5.625.032s-3.157-.327-3.745-.914c-.214-.214-.23-.702.477-1.409 1.122-1.122 3.284-.487 3.284-.487l-5.36-5.36c-.387-.387-.383-1.015.008-1.406s1.019-.395 1.406-.008l2.796 2.796c-.205-.205-.302-.481-.282-.753.011-.234.106-.469.29-.653.391-.391 1.019-.395 1.406-.008l.466.466c-.205-.205-.302-.481-.282-.753.011-.234.106-.469.29-.653.391-.391 1.019-.395 1.406-.008l.932.932c-.205-.205-.302-.481-.282-.753.011-.234.106-.469.29-.653.393-.392 1.021-.395 1.408-.009z" fill="#ffcc80"/><path d="m13.457 14.037 2.148 2.148c-.132.132-.338.133-.469.003l-1.398-1.398c-.205-.205-.301-.481-.281-.753z" fill="#ffa726"/><path d="m11.111 14.519 2.615 2.615c-.132.132-.338.133-.469.003l-1.864-1.864c-.206-.206-.303-.482-.282-.754z" fill="#ffa726"/><path d="m9.23 15.467 2.615 2.615c-.132.132-.338.133-.469.003l-1.864-1.865c-.205-.205-.302-.481-.282-.753z" fill="#ffa726"/><path d="m6.034 13.223c-.256 0-.513.099-.71.296-.392.392-.395 1.02-.008 1.406l5.359 5.36s-.609-.179-1.349-.179c-.654 0-1.409.14-1.935.666-.707.707-.69 1.194-.477 1.409.181.182.351.217.579.217.073 0 .153-.004.24-.007.088-.004.183-.007.29-.007.526 0 1.311.09 2.635.713 1.305.615 2.384.903 3.286.903.961 0 1.721-.327 2.339-.934l.936-.936-7.42-7.42c-.096.048-.186.111-.266.191-.184.184-.278.419-.289.653l2.614 2.614c-.066.067-.152.1-.237.1-.084 0-.167-.032-.232-.097l-1.864-1.864c-.187-.187-.284-.434-.284-.683 0 .249.096.495.284.683l-2.796-2.796c-.191-.192-.443-.288-.695-.288z" fill="#deb26f"/><path d="m9.244 15.555c-.002.023-.003.047-.003.07 0 .249.096.495.284.683l1.864 1.864c.065.065.148.097.232.097.085 0 .17-.033.237-.1z" fill="#de9121"/></svg>