<svg id="color" enable-background="new 0 0 24 24" height="512" viewBox="0 0 24 24" width="512" xmlns="http://www.w3.org/2000/svg"><path d="m12 22.25c-5.652 0-10.25-4.598-10.25-10.25s4.598-10.25 10.25-10.25 10.25 4.598 10.25 10.25-4.598 10.25-10.25 10.25z" fill="#64b5f6"/><path d="m12 3.75c-4.549 0-8.25 3.701-8.25 8.25s3.701 8.25 8.25 8.25 8.25-3.701 8.25-8.25-3.701-8.25-8.25-8.25z" fill="#eceff1"/><g fill="#2196f3"><path d="m12 24c-.553 0-1-.448-1-1v-2.391c0-.552.447-1 1-1s1 .448 1 1v2.391c0 .552-.447 1-1 1z"/><path d="m12 4.391c-.553 0-1-.448-1-1v-2.391c0-.552.447-1 1-1s1 .448 1 1v2.391c0 .552-.447 1-1 1z"/><path d="m3.392 13h-2.392c-.553 0-1-.448-1-1s.447-1 1-1h2.392c.553 0 1 .448 1 1s-.448 1-1 1z"/></g><path d="m12 18.5c-.174 0-.347-.06-.488-.18-.184-.158-4.512-3.905-4.512-7.757 0-2.792 2.243-5.063 5-5.063s5 2.271 5 5.062c0 3.853-4.328 7.6-4.512 7.757-.141.121-.314.181-.488.181z" fill="#607d8b"/><path d="m12 12.5c-1.103 0-2-.897-2-2s.897-2 2-2 2 .897 2 2-.897 2-2 2z" fill="#fff"/><path d="m3.8 12.913c-.125.056-.263.087-.408.087h-1.594c.472 4.855 4.346 8.729 9.202 9.202v-1.593c0-.146.031-.284.087-.409-3.821-.423-6.864-3.466-7.287-7.287zm7.2-11.115c-4.856.473-8.729 4.347-9.202 9.202h1.593c.146 0 .284.031.409.087.423-3.821 3.466-6.864 7.287-7.287-.056-.125-.087-.263-.087-.409z" fill="#579ed6"/><path d="m11.087 3.8c-3.821.423-6.864 3.466-7.287 7.287.349.156.592.506.592.913s-.243.757-.591.913c.423 3.821 3.466 6.864 7.287 7.287.156-.348.506-.591.913-.591v-1.109c-.174 0-.347-.06-.488-.18-.185-.158-4.513-3.905-4.513-7.757 0-2.792 2.243-5.063 5-5.063v-1.109c-.407 0-.757-.243-.913-.591z" fill="#cdd0d2"/><path d="m12 19.609c-.407 0-.757.243-.913.591-.056.125-.087.263-.087.409v1.593.798c0 .552.447 1 1 1z" fill="#1d83d4"/><path d="m12 0c-.553 0-1 .448-1 1v.798 1.593c0 .146.031.284.087.409.156.348.506.591.913.591z" fill="#1d83d4"/><path d="m12 5.5c-2.757 0-5 2.271-5 5.062 0 3.853 4.328 7.6 4.512 7.757.141.12.314.18.488.18v-6c-1.103 0-2-.897-2-2s.897-2 2-2z" fill="#546d79"/><path d="m12 8.5c-1.103 0-2 .897-2 2s.897 2 2 2z" fill="#dedede"/><path d="m23 13h-2.392c-.553 0-1-.448-1-1s.447-1 1-1h2.392c.553 0 1 .448 1 1s-.447 1-1 1z" fill="#2196f3"/><path d="m19.609 12c0 .407.243.757.591.913.125.056.263.087.409.087h1.593.798c.552 0 1-.447 1-1z" fill="#1d83d4"/><path d="m0 12c0 .553.448 1 1 1h.798 1.593c.146 0 .284-.031.409-.087.349-.156.591-.506.591-.913z" fill="#1d83d4"/></svg>