<svg id="color" enable-background="new 0 0 24 24" height="512" viewBox="0 0 24 24" width="512" xmlns="http://www.w3.org/2000/svg"><path d="m21 0h-18c-1.654 0-3 1.346-3 3v16c0 1.654 1.346 3 3 3h18c1.654 0 3-1.346 3-3v-16c0-1.654-1.346-3-3-3z" fill="#607d8b"/><path d="m21 20h-18c-.551 0-1-.448-1-1v-14h20v14c0 .552-.449 1-1 1z" fill="#fff"/><g fill="#cfd8dc"><path d="m19.25 12.5h-14.5c-.414 0-.75-.336-.75-.75v-4.5c0-.414.336-.75.75-.75h14.5c.414 0 .75.336.75.75v4.5c0 .414-.336.75-.75.75zm-13.75-1.5h13v-3h-13z"/><path d="m19.33 15.49h-14.53c-.414 0-.75-.336-.75-.75s.336-.75.75-.75h14.53c.414 0 .75.336.75.75s-.336.75-.75.75z"/><path d="m19.33 18.49h-14.53c-.414 0-.75-.336-.75-.75s.336-.75.75-.75h14.53c.414 0 .75.336.75.75s-.336.75-.75.75z"/></g><path d="m12 0h-9c-1.654 0-3 1.346-3 3v16c0 1.654 1.346 3 3 3h9v-2h-9c-.551 0-1-.448-1-1v-14h10z" fill="#546d79"/><path d="m12 8h-6.5v3h6.5zm0-3h-10v14c0 .552.449 1 1 1h9v-1.51h-7.2c-.414 0-.75-.336-.75-.75s.336-.75.75-.75h7.2v-1.5h-7.2c-.414 0-.75-.336-.75-.75s.336-.75.75-.75h7.2v-1.49h-7.25c-.414 0-.75-.336-.75-.75v-4.5c0-.414.336-.75.75-.75h7.25z" fill="#dedede"/><path d="m12 6.5h-7.25c-.414 0-.75.336-.75.75v4.5c0 .414.336.75.75.75h7.25v-1.5h-6.5v-3h6.5z" fill="#b4bcc0"/><path d="m12 13.99h-7.2c-.414 0-.75.336-.75.75s.336.75.75.75h7.2z" fill="#b4bcc0"/><path d="m12 16.99h-7.2c-.414 0-.75.336-.75.75s.336.75.75.75h7.2z" fill="#b4bcc0"/><path d="m18 12c-3.308 0-6 2.692-6 6 0 3.309 2.692 6 6 6s6-2.691 6-6-2.692-6-6-6z" fill="#ffc107"/><path d="m19.237 20.651-1.237-1.237-1.237 1.237c-.391.391-1.024.391-1.415 0-.39-.391-.39-1.024 0-1.414l1.238-1.237-1.238-1.237c-.39-.391-.39-1.023 0-1.414.391-.391 1.024-.391 1.415 0l1.237 1.236 1.237-1.237c.391-.391 1.024-.391 1.415 0 .39.391.39 1.023 0 1.414l-1.238 1.238 1.238 1.238c.39.39.39 1.023 0 1.414-.391.39-1.024.39-1.415-.001z" fill="#fff"/><path d="m18 12c-3.308 0-6 2.692-6 6 0 3.309 2.692 6 6 6v-4.585l-1.237 1.237c-.195.195-.451.293-.707.293s-.512-.098-.707-.293c-.39-.391-.39-1.024 0-1.414l1.237-1.238-1.238-1.237c-.39-.391-.39-1.023 0-1.414.195-.195.451-.293.707-.293s.512.098.707.293l1.238 1.236z" fill="#dea806"/><path d="m16.055 15.055c-.256 0-.512.098-.707.293-.39.391-.39 1.023 0 1.414l1.238 1.238-1.238 1.238c-.39.39-.39 1.023 0 1.414.195.195.451.293.707.293s.512-.098.707-.293l1.238-1.238v-2.829l-1.237-1.237c-.196-.195-.452-.293-.708-.293z" fill="#dedede"/></svg>