<svg id="color" enable-background="new 0 0 24 24" height="512" viewBox="0 0 24 24" width="512" xmlns="http://www.w3.org/2000/svg"><path d="m9.75 19.5c-5.376 0-9.75-4.374-9.75-9.75s4.374-9.75 9.75-9.75 9.75 4.374 9.75 9.75-4.374 9.75-9.75 9.75z" fill="#607d8b"/><path d="m17.5 9.75c0 .34-.02.67-.07 1-.49 3.8-3.75 6.75-7.68 6.75s-7.19-2.95-7.68-6.75c-.05-.33-.07-.66-.07-1s.02-.67.07-1c.49-3.8 3.75-6.75 7.68-6.75s7.19 2.95 7.68 6.75c.05.33.07.66.07 1z" fill="#eceff1"/><path d="m23 24c-.256 0-.512-.098-.707-.293l-6.98-6.98c-.391-.391-.391-1.023 0-1.414s1.023-.391 1.414 0l6.98 6.98c.391.391.391 1.023 0 1.414-.195.195-.451.293-.707.293z" fill="#607d8b"/><path d="m2.859 2.859c-1.766 1.766-2.859 4.203-2.859 6.891 0 5.376 4.374 9.75 9.75 9.75 2.329 0 4.469-.821 6.148-2.188l-.585-.585c-.391-.391-.391-1.023 0-1.414l-.088-.088c-1.403 1.404-3.34 2.275-5.475 2.275-3.93 0-7.19-2.95-7.68-6.75-.05-.33-.07-.66-.07-1s.02-.67.07-1c.224-1.736 1.026-3.294 2.205-4.475z" fill="#546d79"/><path d="m4.275 4.275c-1.18 1.181-1.981 2.739-2.205 4.475-.05.33-.07.66-.07 1s.02.67.07 1c.49 3.8 3.75 6.75 7.68 6.75 2.135 0 4.072-.871 5.475-2.275z" fill="#cdd0d2"/><path d="m15.312 15.312c-.391.391-.391 1.023 0 1.414l.585.585 6.395 6.395c.196.196.452.294.708.294.256 0 .512-.098.707-.293z" fill="#546d79"/><path d="m7 13.5c-.256 0-.512-.098-.707-.293-.391-.391-.391-1.023 0-1.414l5.5-5.5c.391-.391 1.023-.391 1.414 0s.391 1.023 0 1.414l-5.5 5.5c-.195.195-.451.293-.707.293z" fill="#ffc107"/><path d="m12.5 13.5c-.256 0-.512-.098-.707-.293l-5.5-5.5c-.391-.391-.391-1.023 0-1.414s1.023-.391 1.414 0l5.5 5.5c.391.391.391 1.023 0 1.414-.195.195-.451.293-.707.293z" fill="#ffc107"/><g fill="#dea806"><path d="m8.336 9.75-2.043 2.043c-.391.391-.391 1.023 0 1.414.195.195.451.293.707.293s.512-.098.707-.293l2.043-2.043z"/><path d="m7 6c-.256 0-.512.098-.707.293-.391.391-.391 1.023 0 1.414l2.043 2.043 1.414 1.414v-2.828l-2.043-2.043c-.195-.195-.451-.293-.707-.293z"/></g></svg>