<svg id="color" enable-background="new 0 0 24 24" height="512" viewBox="0 0 24 24" width="512" xmlns="http://www.w3.org/2000/svg"><path d="m12 22.25c-5.652 0-10.25-4.598-10.25-10.25s4.598-10.25 10.25-10.25 10.25 4.598 10.25 10.25-4.598 10.25-10.25 10.25z" fill="#64b5f6"/><path d="m12 3.75c-4.549 0-8.25 3.701-8.25 8.25s3.701 8.25 8.25 8.25 8.25-3.701 8.25-8.25-3.701-8.25-8.25-8.25z" fill="#eceff1"/><g fill="#2196f3"><path d="m12 24c-.553 0-1-.448-1-1v-2.391c0-.552.447-1 1-1s1 .448 1 1v2.391c0 .552-.447 1-1 1z"/><path d="m12 4.391c-.553 0-1-.448-1-1v-2.391c0-.552.447-1 1-1s1 .448 1 1v2.391c0 .552-.447 1-1 1z"/><path d="m3.392 13h-2.392c-.553 0-1-.448-1-1s.447-1 1-1h2.392c.553 0 1 .448 1 1s-.448 1-1 1z"/></g><path d="m8.75 16.5c-.244 0-.488-.088-.681-.267-.404-.376-.428-1.009-.052-1.414l6.5-7c.376-.405 1.008-.428 1.414-.052.404.376.428 1.009.052 1.414l-6.5 7c-.197.212-.465.319-.733.319z" fill="#607d8b"/><path d="m15.25 16.5c-.268 0-.536-.107-.733-.319l-6.5-7c-.375-.405-.352-1.038.052-1.414s1.037-.353 1.414.052l6.5 7c.375.405.352 1.038-.052 1.414-.193.179-.437.267-.681.267z" fill="#607d8b"/><path d="m3.8 12.913c-.125.056-.263.087-.408.087h-1.594c.472 4.855 4.346 8.729 9.202 9.202v-1.593c0-.146.031-.284.087-.409-3.821-.423-6.864-3.466-7.287-7.287zm7.2-11.115c-4.856.473-8.729 4.347-9.202 9.202h1.593c.146 0 .284.031.409.087.423-3.821 3.466-6.864 7.287-7.287-.056-.125-.087-.263-.087-.409z" fill="#579ed6"/><path d="m11.087 3.8c-3.821.423-6.864 3.466-7.287 7.287.349.156.592.506.592.913s-.243.757-.592.913c.423 3.821 3.466 6.864 7.287 7.287.156-.348.506-.591.913-.591v-6.139l-2.517 2.711c-.197.212-.465.319-.733.319-.244 0-.488-.088-.681-.267-.404-.376-.428-1.009-.052-1.414l2.618-2.819-2.618-2.819c-.375-.405-.352-1.038.052-1.414.192-.179.437-.268.68-.268.268 0 .536.107.733.32l2.518 2.711v-6.139c-.407 0-.757-.243-.913-.591z" fill="#cdd0d2"/><path d="m12 19.609c-.407 0-.757.243-.913.591-.056.125-.087.263-.087.409v1.593.798c0 .552.447 1 1 1z" fill="#1d83d4"/><path d="m12 0c-.553 0-1 .448-1 1v.798 1.593c0 .146.031.284.087.409.156.348.506.591.913.591z" fill="#1d83d4"/><path d="m10.635 12-2.618 2.819c-.375.405-.352 1.038.052 1.414.193.179.437.267.681.267.268 0 .536-.107.733-.319l2.517-2.711z" fill="#546d79"/><path d="m8.75 7.499c-.244 0-.488.089-.68.268-.405.376-.428 1.009-.053 1.414l2.618 2.819 1.365 1.47v-2.94l-2.517-2.711c-.198-.212-.465-.32-.733-.32z" fill="#546d79"/><path d="m23 13h-2.392c-.553 0-1-.448-1-1s.447-1 1-1h2.392c.553 0 1 .448 1 1s-.447 1-1 1z" fill="#2196f3"/><path d="m19.609 12c0 .407.243.757.591.913.125.056.263.087.409.087h1.593.798c.552 0 1-.447 1-1z" fill="#1d83d4"/><path d="m0 12c0 .553.448 1 1 1h.798 1.593c.146 0 .284-.031.409-.087.349-.156.591-.506.591-.913z" fill="#1d83d4"/></svg>