<svg id="color" enable-background="new 0 0 24 24" height="512" viewBox="0 0 24 24" width="512" xmlns="http://www.w3.org/2000/svg"><path d="m15.449 10.937c-.273-.12-.449-.389-.449-.687v-2.25h-1.25c-.965 0-1.75-.785-1.75-1.75v-4.5c0-.965.785-1.75 1.75-1.75h8.5c.965 0 1.75.785 1.75 1.75v4.5c0 .965-.785 1.75-1.75 1.75h-2.957l-3.035 2.801c-.222.205-.54.254-.809.136z" fill="#ffc107"/><path d="m18 0h-4.25c-.965 0-1.75.785-1.75 1.75v4.5c0 .965.785 1.75 1.75 1.75h1.25v2.25c0 .298.176.567.449.687.096.042.199.063.301.063.184 0 .366-.067.509-.199l1.741-1.607z" fill="#dea806"/><path d="m24 23c0 .55-.45 1-1 1h-22c-.55 0-1-.45-1-1s.45-1 1-1h22c.55 0 1 .45 1 1z" fill="#90a4ae"/><path d="m24 23h-24c0 .55.45 1 1 1h22c.55 0 1-.45 1-1z" fill="#7d8f97"/><path d="m21.75 14h-3.5c-.69 0-1.25.56-1.25 1.25v6.75h6v-6.75c0-.69-.56-1.25-1.25-1.25z" fill="#64b5f6"/><path d="m13.75 10h-3.5c-.69 0-1.25.56-1.25 1.25v10.75h6v-10.75c0-.69-.56-1.25-1.25-1.25z" fill="#42a5f5"/><path d="m5.75 6h-3.5c-.69 0-1.25.56-1.25 1.25v14.75h6v-14.75c0-.69-.56-1.25-1.25-1.25z" fill="#2196f3"/><path d="m4 6h-1.75c-.69 0-1.25.56-1.25 1.25v14.75h3z" fill="#1d83d4"/><path d="m12 10h-1.75c-.69 0-1.25.56-1.25 1.25v10.75h3z" fill="#3990d5"/><path d="m20 14h-1.75c-.69 0-1.25.56-1.25 1.25v6.75h3z" fill="#579ed6"/></svg>