<svg id="color" enable-background="new 0 0 24 24" height="512" viewBox="0 0 24 24" width="512" xmlns="http://www.w3.org/2000/svg"><path d="m10 9.395v-5.395c-5.514 0-10 4.486-10 10h5.395c0-2.54 2.065-4.605 4.605-4.605z" fill="#64b5f6"/><path d="m10 4v5.395c2.54 0 4.605 2.066 4.605 4.605 0 2.54-2.066 4.605-4.605 4.605-1.211 0-2.348-.468-3.213-1.312l-3.899 3.737.039.042c1.886 1.888 4.399 2.928 7.073 2.928 5.514 0 10-4.486 10-10s-4.486-10-10-10z" fill="#2196f3"/><path d="m6.787 17.294-.044-.037c-.869-.869-1.348-2.026-1.348-3.257h-5.395c0 2.674 1.04 5.186 2.927 7.073l-.039-.042z" fill="#eceff1"/><path d="m10 4c-5.514 0-10 4.486-10 10h5.395c0-2.54 2.066-4.605 4.605-4.605z" fill="#579ed6"/><path d="m6.787 17.294-3.899 3.737.039.042c1.886 1.887 4.399 2.927 7.073 2.927v-5.395c-1.211 0-2.348-.468-3.213-1.311zm3.213-13.294v5.395z" fill="#1d83d4"/><path d="m5.395 14h-5.395c0 2.674 1.04 5.186 2.927 7.073l-.039-.042 3.899-3.737-.044-.037c-.869-.869-1.348-2.026-1.348-3.257z" fill="#cdd0d2"/><path d="m15.449 10.937c-.273-.12-.449-.389-.449-.687v-2.25h-1.25c-.965 0-1.75-.785-1.75-1.75v-4.5c0-.965.785-1.75 1.75-1.75h8.5c.965 0 1.75.785 1.75 1.75v4.5c0 .965-.785 1.75-1.75 1.75h-2.957l-3.035 2.801c-.222.205-.54.254-.809.136z" fill="#ffc107"/><path d="m18 0h-4.25c-.965 0-1.75.785-1.75 1.75v4.5c0 .965.785 1.75 1.75 1.75h1.25v2.25c0 .298.176.567.449.687.096.042.199.063.301.063.184 0 .366-.067.509-.199l1.741-1.607z" fill="#dea806"/></svg>