<svg id="color" enable-background="new 0 0 24 24" height="512" viewBox="0 0 24 24" width="512" xmlns="http://www.w3.org/2000/svg"><path d="m15.25 24h-12.5c-1.517 0-2.75-1.233-2.75-2.75v-15.5c0-1.517 1.233-2.75 2.75-2.75h12.5c1.517 0 2.75 1.233 2.75 2.75v15.5c0 1.517-1.233 2.75-2.75 2.75z" fill="#cfd8dc"/><path d="m12.25 6h-6.5c-.965 0-1.75-.785-1.75-1.75v-1.5c0-.414.336-.75.75-.75h1.604c.328-1.153 1.389-2 2.646-2s2.318.847 2.646 2h1.604c.414 0 .75.336.75.75v1.5c0 .965-.785 1.75-1.75 1.75z" fill="#2196f3"/><g fill="#fff"><path d="m14.25 14.25h-10.5c-.553 0-1-.448-1-1v-3.5c0-.552.447-1 1-1h10.5c.553 0 1 .448 1 1v3.5c0 .552-.447 1-1 1z"/><path d="m14.25 17.75h-10.5c-.553 0-1-.448-1-1s.447-1 1-1h10.5c.553 0 1 .448 1 1s-.447 1-1 1z"/><path d="m14.25 21.25h-10.5c-.553 0-1-.448-1-1s.447-1 1-1h10.5c.553 0 1 .448 1 1s-.447 1-1 1z"/></g><path d="m4 3h-1.25c-1.517 0-2.75 1.233-2.75 2.75v15.5c0 1.517 1.233 2.75 2.75 2.75h6.25v-2.75h-5.25c-.553 0-1-.448-1-1s.447-1 1-1h5.25v-1.5h-5.25c-.553 0-1-.448-1-1s.447-1 1-1h5.25v-1.5h-5.25c-.553 0-1-.448-1-1v-3.5c0-.552.447-1 1-1h5.25v-2.75h-3.25c-.965 0-1.75-.785-1.75-1.75z" fill="#b4bcc0"/><path d="m9 0c-1.257 0-2.318.847-2.646 2h-1.604c-.414 0-.75.336-.75.75v.25 1.25c0 .965.785 1.75 1.75 1.75h3.25z" fill="#1d83d4"/><path d="m9 8.75h-5.25c-.553 0-1 .448-1 1v3.5c0 .552.447 1 1 1h5.25z" fill="#dedede"/><path d="m9 15.75h-5.25c-.553 0-1 .448-1 1s.447 1 1 1h5.25z" fill="#dedede"/><path d="m9 19.25h-5.25c-.553 0-1 .448-1 1s.447 1 1 1h5.25z" fill="#dedede"/><path d="m22.25 24h-9.5c-.965 0-1.75-.785-1.75-1.75v-5.5c0-.965.785-1.75 1.75-1.75h9.5c.965 0 1.75.785 1.75 1.75v5.5c0 .965-.785 1.75-1.75 1.75z" fill="#64b5f6"/><path d="m16.966 18.913c.326.206.742.206 1.068 0l5.423-3.424c-.314-.301-.738-.489-1.207-.489h-9.5c-.469 0-.893.188-1.207.489z" fill="#2196f3"/><path d="m12.739 15c-.96.006-1.739.789-1.739 1.75v5.5c0 .965.785 1.75 1.75 1.75h4.751v-4.933h-.001c-.186 0-.371-.051-.534-.154l-5.423-3.424c.312-.299.732-.486 1.196-.489zm.005 0c-.002 0-.003 0-.005 0z" fill="#579ed6"/><path d="m17.501 15h-4.751c-.002 0-.004 0-.006 0s-.003 0-.005 0c-.464.003-.884.19-1.196.489l5.423 3.424c.163.103.349.154.534.154h.001z" fill="#1d83d4"/></svg>