<svg id="color" enable-background="new 0 0 24 24" height="512" viewBox="0 0 24 24" width="512" xmlns="http://www.w3.org/2000/svg"><path d="m15.25 24h-12.5c-1.517 0-2.75-1.233-2.75-2.75v-15.5c0-1.517 1.233-2.75 2.75-2.75h12.5c1.517 0 2.75 1.233 2.75 2.75v15.5c0 1.517-1.233 2.75-2.75 2.75z" fill="#cfd8dc"/><path d="m12.25 6h-6.5c-.965 0-1.75-.785-1.75-1.75v-1.5c0-.414.336-.75.75-.75h1.604c.328-1.153 1.389-2 2.646-2s2.318.847 2.646 2h1.604c.414 0 .75.336.75.75v1.5c0 .965-.785 1.75-1.75 1.75z" fill="#2196f3"/><g fill="#fff"><path d="m14.25 14.25h-10.5c-.553 0-1-.448-1-1v-3.5c0-.552.447-1 1-1h10.5c.553 0 1 .448 1 1v3.5c0 .552-.447 1-1 1z"/><path d="m14.25 17.75h-10.5c-.553 0-1-.448-1-1s.447-1 1-1h10.5c.553 0 1 .448 1 1s-.447 1-1 1z"/><path d="m14.25 21.25h-10.5c-.553 0-1-.448-1-1s.447-1 1-1h10.5c.553 0 1 .448 1 1s-.447 1-1 1z"/></g><path d="m4 3h-1.25c-1.517 0-2.75 1.233-2.75 2.75v15.5c0 1.517 1.233 2.75 2.75 2.75h6.25v-2.75h-5.25c-.553 0-1-.448-1-1s.447-1 1-1h5.25v-1.5h-5.25c-.553 0-1-.448-1-1s.447-1 1-1h5.25v-1.5h-5.25c-.553 0-1-.448-1-1v-3.5c0-.552.447-1 1-1h5.25v-2.75h-3.25c-.965 0-1.75-.785-1.75-1.75z" fill="#b4bcc0"/><path d="m9 0c-1.257 0-2.318.847-2.646 2h-1.604c-.414 0-.75.336-.75.75v.25 1.25c0 .965.785 1.75 1.75 1.75h3.25z" fill="#1d83d4"/><path d="m9 8.75h-5.25c-.553 0-1 .448-1 1v3.5c0 .552.447 1 1 1h5.25z" fill="#dedede"/><path d="m9 15.75h-5.25c-.553 0-1 .448-1 1s.447 1 1 1h5.25z" fill="#dedede"/><path d="m9 19.25h-5.25c-.553 0-1 .448-1 1s.447 1 1 1h5.25z" fill="#dedede"/><path d="m16.75 22c-2.895 0-5.25-2.355-5.25-5.25s2.355-5.25 5.25-5.25 5.25 2.355 5.25 5.25-2.355 5.25-5.25 5.25zm0-8.5c-1.792 0-3.25 1.458-3.25 3.25s1.458 3.25 3.25 3.25 3.25-1.458 3.25-3.25-1.458-3.25-3.25-3.25z" fill="#4caf50"/><path d="m23 24c-.256 0-.512-.098-.707-.293l-2.818-2.818c-.391-.391-.391-1.023 0-1.414s1.023-.391 1.414 0l2.818 2.818c.391.391.391 1.023 0 1.414-.195.195-.451.293-.707.293z" fill="#4caf50"/><path d="m16.75 13.5c-1.792 0-3.25 1.458-3.25 3.25s1.458 3.25 3.25 3.25 3.25-1.458 3.25-3.25-1.458-3.25-3.25-3.25z" fill="#fafafa"/><path d="m13.039 13.039c-.95.951-1.539 2.263-1.539 3.711 0 2.895 2.355 5.25 5.25 5.25 1.087 0 2.097-.332 2.936-.9l-.211-.211c-.391-.391-.391-1.023 0-1.414l-.428-.428c-.589.588-1.401.953-2.297.953-1.792 0-3.25-1.458-3.25-3.25 0-.896.365-1.709.953-2.297z" fill="#429846"/><path d="m19.475 19.475c-.391.391-.391 1.024 0 1.414l.211.211 2.607 2.607c.195.195.451.293.707.293s.512-.098.707-.293z" fill="#429846"/><path d="m14.453 14.453c-.589.589-.953 1.401-.953 2.297 0 1.792 1.458 3.25 3.25 3.25.896 0 1.708-.365 2.297-.953z" fill="#dadada"/></svg>