<svg id="color" enable-background="new 0 0 24 24" height="512" viewBox="0 0 24 24" width="512" xmlns="http://www.w3.org/2000/svg"><path d="m10 24c-5.514 0-10-4.486-10-10s4.486-10 10-10 10 4.486 10 10-4.486 10-10 10z" fill="#64b5f6"/><path d="m10 4v10l-7.068 7.068c1.811 1.81 4.311 2.932 7.068 2.932 5.514 0 10-4.486 10-10s-4.486-10-10-10z" fill="#2196f3"/><path d="m3.463 21.562c1.754 1.518 4.04 2.438 6.537 2.438-2.497 0-4.783-.92-6.537-2.438zm6.537-17.562c-5.514 0-10 4.486-10 10 0 2.757 1.121 5.257 2.932 7.068l7.068-7.068z" fill="#579ed6"/><path d="m10 4v10l-7.068 7.068c.171.171.348.335.531.494 1.754 1.518 4.04 2.438 6.537 2.438z" fill="#1d83d4"/><path d="m15.449 10.937c-.273-.12-.449-.389-.449-.687v-2.25h-1.25c-.965 0-1.75-.785-1.75-1.75v-4.5c0-.965.785-1.75 1.75-1.75h8.5c.965 0 1.75.785 1.75 1.75v4.5c0 .965-.785 1.75-1.75 1.75h-2.957l-3.035 2.801c-.221.205-.54.254-.809.136z" fill="#ffc107"/><path d="m18 0h-4.25c-.965 0-1.75.785-1.75 1.75v4.5c0 .965.785 1.75 1.75 1.75h1.25v2.25c0 .298.176.567.449.687.096.042.199.063.301.063.184 0 .366-.067.509-.199l1.741-1.607z" fill="#dea806"/></svg>