<svg id="color" enable-background="new 0 0 24 24" height="512" viewBox="0 0 24 24" width="512" xmlns="http://www.w3.org/2000/svg"><path d="m24 8.65v1.59l-11.07 5.78c-.58.3-1.28.3-1.86 0l-11.07-5.78v-1.59c0-.83.46-1.59 1.19-1.98l9.75-5.21c.66-.35 1.46-.35 2.12 0l9.75 5.21c.73.39 1.19 1.15 1.19 1.98z" fill="#2196f3"/><path d="m21 2.75c0-1.519-1.231-2.75-2.75-2.75h-12.5c-1.519 0-2.75 1.231-2.75 2.75v17.32c0 .414.336.75.75.75h16.5c.414 0 .75-.336.75-.75z" fill="#eceff1"/><path d="m24 10.24v10.51c0 1.24-1.01 2.25-2.25 2.25h-19.5c-1.24 0-2.25-1.01-2.25-2.25v-10.51l11.07 5.78c.58.3 1.28.3 1.86 0z" fill="#64b5f6"/><path d="m3 5.703-1.81.967c-.73.39-1.19 1.15-1.19 1.98v1.59l3 1.566z" fill="#1d83d4"/><path d="m12.64 0h-6.89c-1.519 0-2.75 1.231-2.75 2.75v2.953 6.104l8.07 4.213c.29.15.61.225.93.225.216 0 .433-.034.64-.103z" fill="#cdd0d2"/><path d="m0 10.24v10.51c0 1.24 1.01 2.25 2.25 2.25h10.39v-6.858c-.207.069-.424.103-.64.103-.32 0-.64-.075-.93-.225l-8.07-4.213z" fill="#579ed6"/><path d="m6.499 9.25c-.36 0-.678-.26-.739-.626-.068-.409.208-.796.616-.864l5.86-.977 4.878-2.927c.354-.213.816-.098 1.029.257s.098.816-.257 1.029l-5 3c-.081.048-.169.081-.262.097l-6 1z" fill="#b0bec5"/><path d="m17.499 3.75c-.131 0-.264.035-.385.107l-4.878 2.927-5.86.976c-.408.068-.684.455-.616.864l6.74-1.124 5.643-3.386c-.14-.234-.389-.364-.644-.364z" fill="#99a5ac"/><g fill="#607d8b"><path d="m6.5 10.25c-.965 0-1.75-.785-1.75-1.75s.785-1.75 1.75-1.75 1.75.785 1.75 1.75-.785 1.75-1.75 1.75z"/><path d="m12.5 9.25c-.965 0-1.75-.785-1.75-1.75s.785-1.75 1.75-1.75 1.75.785 1.75 1.75-.785 1.75-1.75 1.75z"/><path d="m17.5 6.25c-.965 0-1.75-.785-1.75-1.75s.785-1.75 1.75-1.75 1.75.785 1.75 1.75-.785 1.75-1.75 1.75z"/></g><path d="m6.5 6.75c-.965 0-1.75.785-1.75 1.75s.785 1.75 1.75 1.75z" fill="#546d79"/><path d="m12.5 5.75c-.965 0-1.75.785-1.75 1.75s.785 1.75 1.75 1.75c.047 0 .094-.002.14-.006v-3.488c-.046-.004-.093-.006-.14-.006z" fill="#546d79"/><path d="m17.5 2.75c-.965 0-1.75.785-1.75 1.75s.785 1.75 1.75 1.75z" fill="#546d79"/></svg>