<svg id="color" enable-background="new 0 0 24 24" height="512" viewBox="0 0 24 24" width="512" xmlns="http://www.w3.org/2000/svg"><path d="m20 23h-19c-.553 0-1-.448-1-1s.447-1 1-1h19c.553 0 1 .448 1 1s-.447 1-1 1z" fill="#90a4ae"/><path d="m21 22h-21c0 .552.447 1 1 1h19c.553 0 1-.448 1-1z" fill="#7d8f97"/><path d="m15.75 11c-.102 0-.204-.021-.301-.063-.273-.12-.449-.389-.449-.687v-2.25h-1.25c-.965 0-1.75-.785-1.75-1.75v-4.5c0-.965.785-1.75 1.75-1.75h8.5c.965 0 1.75.785 1.75 1.75v4.5c0 .965-.785 1.75-1.75 1.75h-2.957l-3.035 2.801c-.141.131-.323.199-.508.199z" fill="#ffc107"/><path d="m18 0h-4.25c-.965 0-1.75.785-1.75 1.75v4.5c0 .965.785 1.75 1.75 1.75h1.25v2.25c0 .298.176.567.449.687.096.042.199.063.301.063.184 0 .366-.067.509-.199l1.741-1.607z" fill="#dea806"/><path d="m5.5 19.5c-.26 0-.52-.101-.716-.301-.386-.395-.378-1.029.018-1.415l2.447-2.389c.297-.29.742-.366 1.119-.191l2.167 1.004 3.595-3.752c.382-.399 1.016-.412 1.413-.03.399.382.413 1.015.03 1.414l-4.089 4.268c-.295.309-.757.395-1.143.215l-2.189-1.015-1.954 1.907c-.194.19-.446.285-.698.285z" fill="#2196f3"/><path d="m15 16.5c-.26 0-.516-.102-.707-.293l-2.5-2.5c-.286-.286-.372-.716-.217-1.09.154-.373.52-.617.924-.617h2.5c.553 0 1 .448 1 1v2.5c0 .404-.243.769-.617.924-.124.051-.254.076-.383.076z" fill="#2196f3"/><path d="m12.375 14.289-1.839 1.92-2.167-1.004c-.135-.062-.278-.093-.421-.093-.256 0-.508.098-.699.284l-2.447 2.389c-.395.386-.403 1.019-.018 1.415l.011.011 2.905-2.857c.096-.094.222-.143.351-.143.071 0 .143.015.211.047l2.179 1.01c.068.031.139.047.211.047.133 0 .263-.053.36-.152l2.084-2.153z" fill="#1d83d4"/><path d="m15 12h-2.5c-.404 0-.77.244-.924.617-.155.374-.069.804.217 1.09l.582.582.72.72 2.621-2.707c-.182-.186-.435-.302-.716-.302z" fill="#1d83d4"/><path d="m2 24c-.553 0-1-.448-1-1v-19c0-.552.447-1 1-1s1 .448 1 1v19c0 .552-.447 1-1 1z" fill="#90a4ae"/><path d="m2 3c-.553 0-1 .448-1 1v19c0 .552.447 1 1 1z" fill="#7d8f97"/></svg>