<svg id="color" enable-background="new 0 0 24 24" height="512" viewBox="0 0 24 24" width="512" xmlns="http://www.w3.org/2000/svg"><path d="m23 8.04h-22c-.552 0-1 .448-1 1v11.96c0 1.654 1.346 3 3 3h18c1.654 0 3-1.346 3-3v-11.96c0-.552-.448-1-1-1z" fill="#eceff1"/><path d="m21 3h-18c-1.657 0-3 1.343-3 3v3.04h24v-3.04c0-1.657-1.343-3-3-3z" fill="#607d8b"/><path d="m12 9.04h-12v11.96c0 1.654 1.346 3 3 3h9z" fill="#cdd0d2"/><path d="m12 3h-9c-1.657 0-3 1.343-3 3v3.04h12z" fill="#546d79"/><path d="m6 0h-1c-.552 0-1 .448-1 1v4c0 .552.448 1 1 1h1c.552 0 1-.448 1-1v-4c0-.552-.448-1-1-1z" fill="#78909c"/><path d="m19 0h-1c-.552 0-1 .448-1 1v4c0 .552.448 1 1 1h1c.552 0 1-.448 1-1v-4c0-.552-.448-1-1-1z" fill="#78909c"/><path d="m5.5 0h-.5c-.553 0-1 .447-1 1v4c0 .553.447 1 1 1h.5z" fill="#687d88"/><path d="m18.5 0h-.5c-.553 0-1 .447-1 1v4c0 .553.447 1 1 1h.5z" fill="#687d88"/><path d="m9.25 20h-4.5c-.965 0-1.75-.785-1.75-1.75v-4.5c0-.965.785-1.75 1.75-1.75h4.5c.965 0 1.75.785 1.75 1.75v4.5c0 .965-.785 1.75-1.75 1.75z" fill="#2196f3"/><path d="m16.75 19.25c-.285 0-.558-.122-.747-.335l-2-2.25c-.367-.413-.33-1.045.083-1.412.412-.367 1.044-.33 1.411.083l1.201 1.352 2.763-3.551c.339-.435.967-.514 1.403-.176.436.339.515.968.175 1.403l-3.5 4.5c-.182.235-.459.376-.756.386z" fill="#2196f3"/><g fill="#1d83d4"><path d="m7 12h-2.25c-.965 0-1.75.785-1.75 1.75v4.5c0 .965.785 1.75 1.75 1.75h2.25z"/><path d="m14.75 15c-.236 0-.473.083-.664.253-.413.367-.45.999-.083 1.412l2 2.25c.189.214.462.335.747.335l.033-.001c.276-.009.536-.132.717-.338v-3.255l-.802 1.03-1.201-1.352c-.198-.221-.472-.334-.747-.334z"/></g></svg>