<svg id="color" enable-background="new 0 0 24 24" height="512" viewBox="0 0 24 24" width="512" xmlns="http://www.w3.org/2000/svg"><path d="m17.325 24h-8.775c-.414 0-.75-.336-.75-.75v-2.9l-2.015.614c-.176.063-.404.102-.647.102-1.22 0-2.213-.995-2.213-2.218v-2.674h-1.688c-.682 0-1.237-.556-1.237-1.239 0-.23.066-.458.191-.66l2.279-3.63c.297-.474.454-1.019.454-1.577.001-5.001 4.055-9.068 9.039-9.068s9.037 4.067 9.037 9.065c0 1.871-.568 3.671-1.643 5.206-.839 1.198-1.282 2.603-1.282 4.062v4.917c0 .414-.336.75-.75.75z" fill="#eceff1"/><path d="m11.5.012c-4.769.242-8.575 4.211-8.575 9.056 0 .558-.157 1.103-.454 1.577l-2.279 3.63c-.126.201-.192.429-.192.66 0 .683.555 1.239 1.237 1.239h1.687v2.674c0 1.223.993 2.218 2.213 2.218.243 0 .472-.038.648-.102l2.015-.614v2.9c0 .414.336.75.75.75h2.95z" fill="#cdd0d2"/><path d="m16.75 10.5c-2.895 0-5.25-2.355-5.25-5.25s2.355-5.25 5.25-5.25 5.25 2.355 5.25 5.25-2.355 5.25-5.25 5.25zm0-8.5c-1.792 0-3.25 1.458-3.25 3.25s1.458 3.25 3.25 3.25 3.25-1.458 3.25-3.25-1.458-3.25-3.25-3.25z" fill="#4caf50"/><path d="m23 12.5c-.256 0-.512-.098-.707-.293l-2.818-2.818c-.391-.391-.391-1.023 0-1.414s1.023-.391 1.414 0l2.818 2.818c.391.391.391 1.023 0 1.414-.195.195-.451.293-.707.293z" fill="#4caf50"/><circle cx="16.75" cy="5.25" fill="#fafafa" r="3.25"/><path d="m13.039 1.539c-.95.951-1.539 2.263-1.539 3.711 0 2.895 2.355 5.25 5.25 5.25 1.087 0 2.097-.332 2.936-.9l-.211-.211c-.391-.391-.391-1.023 0-1.414l-.428-.428c-.589.588-1.401.953-2.297.953-1.792 0-3.25-1.458-3.25-3.25 0-.896.365-1.709.953-2.297z" fill="#429846"/><path d="m19.475 7.975c-.391.391-.391 1.024 0 1.414l.211.211 2.607 2.607c.195.195.451.293.707.293s.512-.098.707-.293z" fill="#429846"/><path d="m14.453 2.953c-.589.589-.953 1.401-.953 2.297 0 1.792 1.458 3.25 3.25 3.25.896 0 1.708-.365 2.297-.953z" fill="#dadada"/></svg>