<svg id="color" enable-background="new 0 0 24 24" height="512" viewBox="0 0 24 24" width="512" xmlns="http://www.w3.org/2000/svg"><path d="m10 18.5c-.414 0-.75-.336-.75-.75v-6c0-.414.336-.75.75-.75s.75.336.75.75v6c0 .414-.336.75-.75.75z" fill="#b0bec5"/><path d="m11.5 12h-1.5c-.414 0-.75-.336-.75-.75 0-2.876 1.826-4.25 3.75-4.25h1.5c.414 0 .75.336.75.75v.5c0 2.068-1.682 3.75-3.75 3.75z" fill="#4caf50"/><path d="m14.987 7.18-5.605 4.496c.136.195.362.324.618.324h1.5c2.068 0 3.75-1.682 3.75-3.75v-.5c0-.228-.102-.433-.263-.57z" fill="#429846"/><path d="m9.75 12.75h-1.5c-2.619 0-4.75-2.131-4.75-4.75v-.5c0-.414.336-.75.75-.75h1.5c2.619 0 4.75 2.131 4.75 4.75v.5c0 .414-.336.75-.75.75z" fill="#4caf50"/><path d="m3.695 6.996c-.121.133-.195.31-.195.504v.5c0 2.619 2.131 4.75 4.75 4.75h1.5c.22 0 .418-.095.555-.246z" fill="#429846"/><path d="m23 24c-.256 0-.512-.098-.707-.293l-6.98-6.98c-.391-.391-.391-1.023 0-1.414s1.023-.391 1.414 0l6.98 6.98c.391.391.391 1.023 0 1.414-.195.195-.451.293-.707.293z" fill="#607d8b"/><path d="m9.75 19.5c-5.376 0-9.75-4.374-9.75-9.75s4.374-9.75 9.75-9.75 9.75 4.374 9.75 9.75-4.374 9.75-9.75 9.75zm0-17.5c-4.273 0-7.75 3.477-7.75 7.75s3.477 7.75 7.75 7.75 7.75-3.477 7.75-7.75-3.477-7.75-7.75-7.75z" fill="#607d8b"/><g fill="#546d79"><path d="m16.641 16.641c-.236.236-.484.46-.743.671l6.395 6.395c.195.195.451.293.707.293.256 0 .512-.098.707-.293z"/><path d="m2.859 2.859c-1.766 1.766-2.859 4.203-2.859 6.891 0 5.376 4.374 9.75 9.75 9.75 2.329 0 4.469-.821 6.148-2.188.259-.211.507-.435.743-.671l-1.413-1.413c-1.404 1.403-3.341 2.272-5.478 2.272-4.273 0-7.75-3.477-7.75-7.75 0-2.137.869-4.074 2.272-5.478z"/></g></svg>