<svg id="color" enable-background="new 0 0 24 24" height="512" viewBox="0 0 24 24" width="512" xmlns="http://www.w3.org/2000/svg"><path d="m17.25 24h-14.5c-1.517 0-2.75-1.233-2.75-2.75v-18.5c0-1.517 1.233-2.75 2.75-2.75h14.5c1.517 0 2.75 1.233 2.75 2.75v18.5c0 1.517-1.233 2.75-2.75 2.75z" fill="#eceff1"/><path d="m10 0h-7.25c-1.517 0-2.75 1.233-2.75 2.75v18.5c0 1.517 1.233 2.75 2.75 2.75h7.25z" fill="#cdd0d2"/><path d="m16.25 13h-12.5c-.414 0-.75-.336-.75-.75s.336-.75.75-.75h12.5c.414 0 .75.336.75.75s-.336.75-.75.75z" fill="#90a4ae"/><path d="m16.25 17h-12.5c-.414 0-.75-.336-.75-.75s.336-.75.75-.75h12.5c.414 0 .75.336.75.75s-.336.75-.75.75z" fill="#90a4ae"/><path d="m16.25 21h-12.5c-.414 0-.75-.336-.75-.75s.336-.75.75-.75h12.5c.414 0 .75.336.75.75s-.336.75-.75.75z" fill="#90a4ae"/><g fill="#607d8b"><path d="m11.25 6.75h-2.5c-.414 0-.75-.336-.75-.75s.336-.75.75-.75h2.5c.414 0 .75.336.75.75s-.336.75-.75.75z"/><path d="m11.25 9h-1.5c-.965 0-1.75-.785-1.75-1.75v-2.5c0-.965.785-1.75 1.75-1.75h1.5c.414 0 .75.336.75.75s-.336.75-.75.75h-1.5c-.138 0-.25.112-.25.25v2.5c0 .138.112.25.25.25h1.5c.414 0 .75.336.75.75s-.336.75-.75.75z"/><path d="m15.25 9h-.5c-.965 0-1.75-.785-1.75-1.75v-2.5c0-.965.785-1.75 1.75-1.75h.5c.965 0 1.75.785 1.75 1.75v2.5c0 .965-.785 1.75-1.75 1.75zm-.5-4.5c-.138 0-.25.112-.25.25v2.5c0 .138.112.25.25.25h.5c.138 0 .25-.112.25-.25v-2.5c0-.138-.112-.25-.25-.25z"/><path d="m5.208 9h-1.458c-.414 0-.75-.336-.75-.75s.336-.75.75-.75h1.458c.159 0 .292-.172.292-.375s-.133-.375-.292-.375h-.416c-.988 0-1.792-.841-1.792-1.875s.804-1.875 1.792-1.875h1.458c.414 0 .75.336.75.75s-.336.75-.75.75h-1.458c-.159 0-.292.172-.292.375s.133.375.292.375h.417c.987 0 1.791.841 1.791 1.875s-.804 1.875-1.792 1.875z"/></g><path d="m12 6h-2.5v.75h1.75c.414 0 .75-.336.75-.75z" fill="#546d79"/><path d="m9.5 6h-1.5v1.25c0 .965.785 1.75 1.75 1.75h1.5c.414 0 .75-.336.75-.75s-.336-.75-.75-.75h-1.5c-.138 0-.25-.112-.25-.25v-.5z" fill="#546d79"/><path d="m17 6h-1.5v1.25c0 .138-.112.25-.25.25h-.5c-.138 0-.25-.112-.25-.25v-1.25h-1.5v1.25c0 .965.785 1.75 1.75 1.75h.5c.965 0 1.75-.785 1.75-1.75z" fill="#546d79"/><path d="m6.641 6h-3.282c.327.455.847.75 1.432.75h.417c.159 0 .292.172.292.375s-.133.375-.292.375h-1.458c-.414 0-.75.336-.75.75s.336.75.75.75h1.458c.988 0 1.792-.841 1.792-1.875 0-.422-.134-.811-.359-1.125z" fill="#546d79"/><path d="m17 12.25h-14c0 .414.336.75.75.75h12.5c.414 0 .75-.336.75-.75z" fill="#7d8f97"/><path d="m17 16.25h-14c0 .414.336.75.75.75h12.5c.414 0 .75-.336.75-.75z" fill="#7d8f97"/><path d="m17 20.25h-14c0 .414.336.75.75.75h12.5c.414 0 .75-.336.75-.75z" fill="#7d8f97"/><path d="m19.436 19.377-2.185-1.566c-.172-.122-.386-.17-.593-.124-.206.043-.385.172-.491.354l-2.063 3.511c-.141.239-.138.536.008.772.145.236.414.378.686.355l1.118-.07.489.978c.123.246.371.404.646.414h.025c.265 0 .511-.14.646-.369l1.923-3.264c.196-.336.106-.764-.209-.991z" fill="#388e3c"/><path d="m16.815 17.669c-.052 0-.105.006-.157.017-.206.043-.385.172-.491.354l-2.063 3.511c-.141.239-.138.536.008.772.134.22.377.358.629.358.019 0 .038-.001.057-.002l1.118-.07 2.323-4.09-.987-.708c-.13-.092-.282-.142-.437-.142z" fill="#317c34"/><path d="m23.896 21.551-2.069-3.522c-.177-.301-.534-.44-.87-.336l-2.622.817c-.217.067-.392.23-.475.443-.083.212-.065.45.049.647l2.364 4.03c.136.23.382.37.647.37h.024c.274-.01.521-.167.645-.412l.493-.979 1.12.07c.281.04.541-.119.686-.355.146-.237.149-.534.008-.773z" fill="#4caf50"/><path d="m19.517 18.141-1.182.369c-.217.067-.392.23-.475.443-.083.212-.065.45.049.647l2.364 4.03c.136.23.382.37.647.37h.024c.274-.01.521-.167.645-.412l.493-.979z" fill="#429846"/><path d="m18.993 12c-2.206 0-4 1.794-4 4s1.794 4 4 4 4-1.794 4-4-1.794-4-4-4z" fill="#ffc107"/><path d="m18.993 12c-2.206 0-4 1.794-4 4s1.794 4 4 4z" fill="#dea806"/></svg>