<svg id="color" enable-background="new 0 0 24 24" height="512" viewBox="0 0 24 24" width="512" xmlns="http://www.w3.org/2000/svg"><path d="m17.25 24h-14.5c-1.517 0-2.75-1.233-2.75-2.75v-18.5c0-1.517 1.233-2.75 2.75-2.75h14.5c1.517 0 2.75 1.233 2.75 2.75v18.5c0 1.517-1.233 2.75-2.75 2.75z" fill="#eceff1"/><path d="m10 0h-7.25c-1.517 0-2.75 1.233-2.75 2.75v18.5c0 1.517 1.233 2.75 2.75 2.75h7.25z" fill="#cdd0d2"/><path d="m16.25 13h-12.5c-.414 0-.75-.336-.75-.75s.336-.75.75-.75h12.5c.414 0 .75.336.75.75s-.336.75-.75.75z" fill="#90a4ae"/><path d="m16.25 17h-12.5c-.414 0-.75-.336-.75-.75s.336-.75.75-.75h12.5c.414 0 .75.336.75.75s-.336.75-.75.75z" fill="#90a4ae"/><path d="m16.25 21h-12.5c-.414 0-.75-.336-.75-.75s.336-.75.75-.75h12.5c.414 0 .75.336.75.75s-.336.75-.75.75z" fill="#90a4ae"/><g fill="#607d8b"><path d="m11.25 6.75h-2.5c-.414 0-.75-.336-.75-.75s.336-.75.75-.75h2.5c.414 0 .75.336.75.75s-.336.75-.75.75z"/><path d="m11.25 9h-1.5c-.965 0-1.75-.785-1.75-1.75v-2.5c0-.965.785-1.75 1.75-1.75h1.5c.414 0 .75.336.75.75s-.336.75-.75.75h-1.5c-.138 0-.25.112-.25.25v2.5c0 .138.112.25.25.25h1.5c.414 0 .75.336.75.75s-.336.75-.75.75z"/><path d="m15.25 9h-.5c-.965 0-1.75-.785-1.75-1.75v-2.5c0-.965.785-1.75 1.75-1.75h.5c.965 0 1.75.785 1.75 1.75v2.5c0 .965-.785 1.75-1.75 1.75zm-.5-4.5c-.138 0-.25.112-.25.25v2.5c0 .138.112.25.25.25h.5c.138 0 .25-.112.25-.25v-2.5c0-.138-.112-.25-.25-.25z"/><path d="m5.208 9h-1.458c-.414 0-.75-.336-.75-.75s.336-.75.75-.75h1.458c.159 0 .292-.172.292-.375s-.133-.375-.292-.375h-.416c-.988 0-1.792-.841-1.792-1.875s.804-1.875 1.792-1.875h1.458c.414 0 .75.336.75.75s-.336.75-.75.75h-1.458c-.159 0-.292.172-.292.375s.133.375.292.375h.417c.987 0 1.791.841 1.791 1.875s-.804 1.875-1.792 1.875z"/></g><path d="m12 6h-2.5v.75h1.75c.414 0 .75-.336.75-.75z" fill="#546d79"/><path d="m9.5 6h-1.5v1.25c0 .965.785 1.75 1.75 1.75h1.5c.414 0 .75-.336.75-.75s-.336-.75-.75-.75h-1.5c-.138 0-.25-.112-.25-.25v-.5z" fill="#546d79"/><path d="m17 6h-1.5v1.25c0 .138-.112.25-.25.25h-.5c-.138 0-.25-.112-.25-.25v-1.25h-1.5v1.25c0 .965.785 1.75 1.75 1.75h.5c.965 0 1.75-.785 1.75-1.75z" fill="#546d79"/><path d="m6.641 6h-3.282c.327.455.847.75 1.432.75h.417c.159 0 .292.172.292.375s-.133.375-.292.375h-1.458c-.414 0-.75.336-.75.75s.336.75.75.75h1.458c.988 0 1.792-.841 1.792-1.875 0-.422-.134-.811-.359-1.125z" fill="#546d79"/><path d="m17 12.25h-14c0 .414.336.75.75.75h12.5c.414 0 .75-.336.75-.75z" fill="#7d8f97"/><path d="m17 16.25h-14c0 .414.336.75.75.75h12.5c.414 0 .75-.336.75-.75z" fill="#7d8f97"/><path d="m17 20.25h-14c0 .414.336.75.75.75h12.5c.414 0 .75-.336.75-.75z" fill="#7d8f97"/><path d="m16.75 22c-2.895 0-5.25-2.355-5.25-5.25s2.355-5.25 5.25-5.25 5.25 2.355 5.25 5.25-2.355 5.25-5.25 5.25zm0-8.5c-1.792 0-3.25 1.458-3.25 3.25s1.458 3.25 3.25 3.25 3.25-1.458 3.25-3.25-1.458-3.25-3.25-3.25z" fill="#2196f3"/><path d="m23 24c-.256 0-.512-.098-.707-.293l-2.818-2.818c-.391-.391-.391-1.023 0-1.414s1.023-.391 1.414 0l2.818 2.818c.391.391.391 1.023 0 1.414-.195.195-.451.293-.707.293z" fill="#2196f3"/><path d="m16.75 13.5c-1.792 0-3.25 1.458-3.25 3.25s1.458 3.25 3.25 3.25 3.25-1.458 3.25-3.25-1.458-3.25-3.25-3.25z" fill="#fafafa"/><path d="m13.039 13.039c-.95.951-1.539 2.263-1.539 3.711 0 2.895 2.355 5.25 5.25 5.25 1.087 0 2.098-.332 2.936-.9l-.211-.211c-.391-.391-.391-1.023 0-1.414l-.428-.428c-.589.588-1.401.953-2.297.953-1.792 0-3.25-1.458-3.25-3.25 0-.896.364-1.708.953-2.297z" fill="#1d83d4"/><path d="m19.475 19.475c-.391.391-.391 1.023 0 1.414l.211.211 2.607 2.607c.195.195.451.293.707.293s.512-.098.707-.293z" fill="#1d83d4"/><path d="m14.453 14.453c-.589.588-.953 1.401-.953 2.297 0 1.792 1.458 3.25 3.25 3.25.896 0 1.709-.365 2.297-.953z" fill="#dadada"/></svg>