<svg id="color" enable-background="new 0 0 24 24" height="512" viewBox="0 0 24 24" width="512" xmlns="http://www.w3.org/2000/svg"><path d="m17 20.5h-10v-2.01c0-1.135-.487-2.246-1.37-3.13-2.078-2.078-2.989-4.951-2.5-7.884.628-3.875 3.933-6.998 7.859-7.422 2.6-.28 5.096.515 7.023 2.245 1.899 1.703 2.988 4.146 2.988 6.701 0 2.406-.937 4.668-2.64 6.37-.878.878-1.36 1.985-1.36 3.12z" fill="#eceff1"/><path d="m7 21.29c0 1.497 1.213 2.71 2.709 2.71h4.6c1.483 0 2.69-1.216 2.69-2.71v-1.79h-9.999z" fill="#607d8b"/><path d="m12-.001c-.334 0-.672.018-1.011.055-3.926.425-7.231 3.548-7.859 7.423-.489 2.933.422 5.806 2.5 7.884.883.883 1.37 1.994 1.37 3.129v2.01-1h5z" fill="#cdd0d2"/><path d="m12 19.5h-5v1 .79c0 1.497 1.213 2.71 2.709 2.71h2.291z" fill="#546d79"/><g fill="#2196f3"><path d="m13.25 9.5h-2.5c-.414 0-.25-.336-.25-.75s-.164-.75.25-.75h2.5c.414 0 .75.336.75.75s-.336.75-.75.75z"/><path d="m13.25 11.75h-1.5c-.965 0-1.75-.785-1.75-1.75v-2.5c0-.965.785-1.75 1.75-1.75h1.5c.414 0 .75.336.75.75s-.336.75-.75.75h-1.5c-.138 0-.25.112-.25.25v2.5c0 .138.112.25.25.25h1.5c.414 0 .75.336.75.75s-.336.75-.75.75z"/><path d="m17.75 11.75h-.5c-.965 0-1.75-.785-1.75-1.75v-2.5c0-.965.785-1.75 1.75-1.75h.5c.965 0 1.75.785 1.75 1.75v2.5c0 .965-.785 1.75-1.75 1.75zm-.5-4.5c-.138 0-.25.112-.25.25v2.5c0 .138.112.25.25.25h.5c.138 0 .25-.112.25-.25v-2.5c0-.138-.112-.25-.25-.25z"/><path d="m6.709 11.75h-1.459c-.414 0-.75-.336-.75-.75s.336-.75.75-.75h1.458c.159 0 .292-.172.292-.375s-.133-.375-.291-.375h-.417c-.988 0-1.792-.841-1.792-1.875s.804-1.875 1.791-1.875h1.459c.414 0 .75.336.75.75s-.336.75-.75.75h-1.458c-.159 0-.292.172-.292.375s.133.375.292.375h.417c.987 0 1.791.841 1.791 1.875s-.804 1.875-1.791 1.875z"/></g><path d="m14 8.75h-2.5v.75h1.75c.414 0 .75-.336.75-.75z" fill="#1d83d4"/><path d="m11.5 8.75h-1.5v1.25c0 .965.785 1.75 1.75 1.75h1.5c.414 0 .75-.336.75-.75s-.336-.75-.75-.75h-1.5c-.138 0-.25-.112-.25-.25v-.5z" fill="#1d83d4"/><path d="m19.5 8.75h-1.5v1.25c0 .138-.112.25-.25.25h-.5c-.138 0-.25-.112-.25-.25v-1.25h-1.5v1.25c0 .965.785 1.75 1.75 1.75h.5c.965 0 1.75-.785 1.75-1.75z" fill="#1d83d4"/><path d="m8.141 8.75h-3.282c.327.455.848.75 1.433.75h.417c.158 0 .291.172.291.375s-.133.375-.291.375h-1.459c-.414 0-.75.336-.75.75s.336.75.75.75h1.458c.988 0 1.791-.841 1.791-1.875.001-.422-.133-.811-.358-1.125z" fill="#1d83d4"/></svg>