<svg id="color" enable-background="new 0 0 24 24" height="512" viewBox="0 0 24 24" width="512" xmlns="http://www.w3.org/2000/svg"><path d="m21.25 24h-18.5c-1.517 0-2.75-1.233-2.75-2.75v-6.5c0-1.517 1.233-2.75 2.75-2.75h18.5c1.517 0 2.75 1.233 2.75 2.75v6.5c0 1.517-1.233 2.75-2.75 2.75z" fill="#b0bec5"/><path d="m3.281 12h-.531c-1.517 0-2.75 1.233-2.75 2.75v6.5c0 1.517 1.233 2.75 2.75 2.75h9.25v-10.86c-3.13 0-6.389-.367-8.719-1.14z" fill="#99a5ac"/><path d="m12 13.14c-5.779 0-12-1.252-12-4s6.221-4 12-4 12 1.252 12 4-6.221 4-12 4z" fill="#607d8b"/><path d="m17 9c0 2-10 2-10 0v-6.375c0-1.444 1.182-2.625 2.625-2.625h1.631c.824 0 1.494.667 1.494 1.488l.541-.252c.823-.364 1.764-.288 2.517.204.746.486 1.192 1.307 1.192 2.195z" fill="#455a64"/><path d="m7 5.465c-3.877.532-7 1.728-7 3.675 0 1.26 1.308 2.206 3.281 2.86 2.331.773 5.59 1.14 8.719 1.14v-2.64c-2.5 0-5-.5-5-1.5z" fill="#546d79"/><path d="m11.256 0h-1.631c-1.443 0-2.625 1.181-2.625 2.625v2.84 3.535c0 1 2.5 1.5 5 1.5v-10.302c-.219-.126-.473-.198-.744-.198z" fill="#3c4e57"/><g fill="#fff"><path d="m13.25 18.75h-2.5c-.414 0-.75-.336-.75-.75s.336-.75.75-.75h2.5c.414 0 .75.336.75.75s-.336.75-.75.75z"/><path d="m13.25 21h-1.5c-.965 0-1.75-.785-1.75-1.75v-2.5c0-.965.785-1.75 1.75-1.75h1.5c.414 0 .75.336.75.75s-.336.75-.75.75h-1.5c-.138 0-.25.112-.25.25v2.5c0 .138.112.25.25.25h1.5c.414 0 .75.336.75.75s-.336.75-.75.75z"/><path d="m18.25 21h-.5c-.965 0-1.75-.785-1.75-1.75v-2.5c0-.965.785-1.75 1.75-1.75h.5c.965 0 1.75.785 1.75 1.75v2.5c0 .965-.785 1.75-1.75 1.75zm-.5-4.5c-.138 0-.25.112-.25.25v2.5c0 .138.112.25.25.25h.5c.138 0 .25-.112.25-.25v-2.5c0-.138-.112-.25-.25-.25z"/><path d="m6.209 21h-1.459c-.414 0-.75-.336-.75-.75s.336-.75.75-.75h1.459c.158 0 .291-.172.291-.375s-.133-.375-.291-.375h-.418c-.987 0-1.791-.841-1.791-1.875s.804-1.875 1.791-1.875h1.459c.414 0 .75.336.75.75s-.336.75-.75.75h-1.459c-.158 0-.291.172-.291.375s.133.375.291.375h.418c.987 0 1.791.841 1.791 1.875s-.804 1.875-1.791 1.875z"/></g><path d="m14 18h-2.5v.75h1.75c.414 0 .75-.336.75-.75z" fill="#dedede"/><path d="m11.5 18h-1.5v1.25c0 .965.785 1.75 1.75 1.75h1.5c.414 0 .75-.336.75-.75s-.336-.75-.75-.75h-1.5c-.138 0-.25-.112-.25-.25v-.5z" fill="#dedede"/><path d="m20 18h-1.5v1.25c0 .138-.112.25-.25.25h-.5c-.138 0-.25-.112-.25-.25v-1.25h-1.5v1.25c0 .965.785 1.75 1.75 1.75h.5c.965 0 1.75-.785 1.75-1.75z" fill="#dedede"/><path d="m7.641 18h-3.282c.327.455.847.75 1.432.75h.418c.158 0 .291.172.291.375s-.133.375-.291.375h-1.459c-.414 0-.75.336-.75.75s.336.75.75.75h1.459c.987 0 1.791-.841 1.791-1.875 0-.422-.134-.811-.359-1.125z" fill="#dedede"/></svg>