<svg id="color" enable-background="new 0 0 24 24" height="512" viewBox="0 0 24 24" width="512" xmlns="http://www.w3.org/2000/svg"><path d="m13.857 23.997c-.685 0-1.37-.256-1.894-.77l-11.151-10.926c-.518-.507-.814-1.215-.812-1.94l.02-8.617c.002-.948.776-1.722 1.724-1.724l8.617-.02c.695.035 1.432.294 1.94.813l10.925 11.15c1.034 1.056 1.025 2.764-.02 3.809l-7.436 7.436c-.524.525-1.219.789-1.913.789z" fill="#2196f3"/><g fill="#fff"><path d="m5 7c-1.103 0-2-.897-2-2s.897-2 2-2 2 .897 2 2-.897 2-2 2z"/><path d="m13.591 14.117c-.192 0-.384-.073-.53-.22l-1.768-1.768c-.293-.293-.293-.768 0-1.06.293-.293.768-.293 1.06 0l1.768 1.768c.293.293.293.768 0 1.06-.146.147-.338.22-.53.22z"/><path d="m12 15.708c-.192 0-.384-.073-.53-.22l-1.061-1.061c-.683-.682-.683-1.793 0-2.475l1.768-1.768c.662-.661 1.815-.661 2.475.001l1.061 1.06c.293.293.293.768 0 1.061s-.768.293-1.061 0l-1.061-1.061c-.128-.128-.226-.128-.354 0l-1.768 1.768c-.098.098-.098.256 0 .354l1.061 1.061c.293.293.293.768 0 1.061-.146.146-.338.219-.53.219z"/><path d="m15.535 18.829c-.448 0-.896-.171-1.237-.512l-.354-.353c-.683-.682-.683-1.793 0-2.475l1.768-1.768c.683-.683 1.792-.683 2.475 0l.354.353c.682.682.682 1.792 0 2.475l-1.768 1.768c-.341.341-.79.512-1.238.512zm1.415-4.121-.177.073-1.768 1.768c-.098.098-.098.256 0 .354l.354.354c.098.097.255.097.354-.001l1.767-1.768c.097-.098.097-.256 0-.353l-.354-.354z"/><path d="m8.438 11.725c-.473 0-.911-.179-1.24-.508l-1.031-1.031c-.293-.293-.293-.768 0-1.06.293-.293.768-.293 1.06 0l1.031 1.031.195.069c.058-.002.17-.022.276-.128.144-.145.171-.361.059-.473l-.294-.294c-.698-.699-.672-1.862.058-2.593.732-.73 1.896-.756 2.593-.059l1.031 1.031c.293.293.293.768 0 1.06-.293.293-.768.293-1.061 0l-1.03-1.03c-.113-.111-.328-.084-.472.059-.143.143-.17.359-.058.471l.294.294c.698.699.672 1.862-.059 2.593-.346.347-.8.547-1.279.566z"/></g><path d="m15.777 15.777-.772.772c-.098.098-.098.256 0 .354l.354.354c.049.048.113.073.177.073s.128-.024.177-.073l.771-.772zm-15.249-15.249c-.312.312-.506.743-.508 1.217l-.02 8.616c-.002.725.294 1.433.812 1.94l11.15 10.925c.524.514 1.209.77 1.894.77.694 0 1.389-.264 1.915-.79l3.718-3.718-1.944-1.944-.772.772c-.341.341-.79.512-1.238.512s-.896-.171-1.237-.512l-.354-.353c-.683-.682-.683-1.793 0-2.475l.772-.772-.719-.719c-.123.08-.265.12-.407.12-.192 0-.384-.073-.53-.22l-1.237-1.238-.353.353c-.098.098-.098.256 0 .354l1.061 1.061c.293.293.293.768 0 1.061-.146.146-.338.22-.53.22s-.384-.073-.53-.22l-1.061-1.061c-.683-.682-.683-1.793 0-2.475l.772-.772-.889-.889c-.084.315-.252.615-.502.865-.346.347-.8.547-1.279.566l-.073.001c-.473 0-.911-.179-1.24-.508l-1.031-1.031c-.293-.293-.293-.768 0-1.06.146-.147.338-.22.53-.22s.384.073.53.22l1.031 1.031.195.069c.058-.002.17-.022.276-.128.143-.143.17-.359.058-.471l-.294-.294c-.363-.364-.53-.853-.504-1.341l-1.576-1.576c-.362.362-.862.586-1.414.586-1.103 0-2-.897-2-2 0-.552.224-1.052.586-1.414z" fill="#1d83d4"/><path d="m3.586 3.586c-.362.362-.586.862-.586 1.414 0 1.103.897 2 2 2 .552 0 1.052-.224 1.414-.586z" fill="#dedede"/><path d="m12.241 12.241-.418.418 1.237 1.238c.146.147.338.22.53.22.142 0 .283-.04.407-.12z" fill="#dedede"/><path d="m11.181 11.181-.772.772c-.683.682-.683 1.793 0 2.475l1.061 1.061c.146.146.338.22.53.22s.384-.073.53-.22c.293-.293.293-.768 0-1.061l-1.061-1.061c-.098-.098-.098-.256 0-.354l.353-.353.418-.418z" fill="#dedede"/><path d="m14.717 14.717-.772.772c-.683.682-.683 1.793 0 2.475l.354.353c.341.341.789.512 1.237.512s.896-.171 1.238-.512l.772-.772-1.061-1.061-.771.772c-.049.049-.113.073-.177.073s-.128-.024-.177-.073l-.354-.354c-.098-.098-.098-.256 0-.354l.772-.772z" fill="#dedede"/><path d="m7.99 7.99c-.026.488.141.977.504 1.341l.294.294c.112.112.085.328-.059.472-.105.106-.218.125-.276.128l-.195-.069-1.031-1.031c-.146-.147-.338-.22-.53-.22s-.384.073-.53.22c-.293.293-.293.768 0 1.06l1.031 1.031c.329.33.768.508 1.24.508l.073-.001c.479-.019.933-.219 1.279-.566.25-.25.418-.55.502-.865z" fill="#dedede"/></svg>