<svg id="color" enable-background="new 0 0 24 24" height="512" viewBox="0 0 24 24" width="512" xmlns="http://www.w3.org/2000/svg"><path d="m20 5h-16c-1.103 0-2 .897-2 2v10h20v-10c0-1.103-.897-2-2-2z" fill="#607d8b"/><path d="m23 17h-22c-.552 0-1 .447-1 1s.448 1 1 1h22c.552 0 1-.447 1-1s-.448-1-1-1z" fill="#90a4ae"/><path d="m20 17h-16v-10h16z" fill="#eceff1"/><path d="m12 5h-8c-1.103 0-2 .897-2 2v10h10-8v-10h8z" fill="#546d79"/><path d="m12 17h-10-1c-.552 0-1 .447-1 1s.448 1 1 1h11z" fill="#7d8f97"/><path d="m12 7h-8v10h8z" fill="#cdd0d2"/><g fill="#2196f3"><path d="m13.25 12.75h-2.5c-.414 0-.75-.336-.75-.75s.336-.75.75-.75h2.5c.414 0 .75.336.75.75s-.336.75-.75.75z"/><path d="m13.25 15h-1.5c-.965 0-1.75-.785-1.75-1.75v-2.5c0-.965.785-1.75 1.75-1.75h1.5c.414 0 .75.336.75.75s-.336.75-.75.75h-1.5c-.138 0-.25.112-.25.25v2.5c0 .138.112.25.25.25h1.5c.414 0 .75.336.75.75s-.336.75-.75.75z"/><path d="m17.25 15h-.5c-.965 0-1.75-.785-1.75-1.75v-2.5c0-.965.785-1.75 1.75-1.75h.5c.965 0 1.75.785 1.75 1.75v2.5c0 .965-.785 1.75-1.75 1.75zm-.5-4.5c-.138 0-.25.112-.25.25v2.5c0 .138.112.25.25.25h.5c.138 0 .25-.112.25-.25v-2.5c0-.138-.112-.25-.25-.25z"/><path d="m7.209 15h-1.459c-.414 0-.75-.336-.75-.75s.336-.75.75-.75h1.459c.158 0 .291-.172.291-.375s-.133-.375-.291-.375h-.417c-.988 0-1.792-.841-1.792-1.875s.804-1.875 1.792-1.875h1.458c.414 0 .75.336.75.75s-.336.75-.75.75h-1.458c-.158 0-.291.172-.291.375s.133.375.291.375h.417c.987 0 1.791.841 1.791 1.875s-.804 1.875-1.791 1.875z"/></g><path d="m14 12h-2.5v.75h1.75c.414 0 .75-.336.75-.75z" fill="#1d83d4"/><path d="m11.5 12h-1.5v1.25c0 .965.785 1.75 1.75 1.75h1.5c.414 0 .75-.336.75-.75s-.336-.75-.75-.75h-1.5c-.138 0-.25-.112-.25-.25v-.5z" fill="#1d83d4"/><path d="m19 12h-1.5v1.25c0 .138-.112.25-.25.25h-.5c-.138 0-.25-.112-.25-.25v-1.25h-1.5v1.25c0 .965.785 1.75 1.75 1.75h.5c.965 0 1.75-.785 1.75-1.75z" fill="#1d83d4"/><path d="m8.641 12h-3.282c.327.455.848.75 1.432.75h.417c.158 0 .291.172.291.375s-.132.375-.29.375h-1.459c-.414 0-.75.336-.75.75s.336.75.75.75h1.459c.987 0 1.791-.841 1.791-1.875 0-.422-.134-.811-.359-1.125z" fill="#1d83d4"/></svg>