<svg id="color" enable-background="new 0 0 24 24" height="512" viewBox="0 0 24 24" width="512" xmlns="http://www.w3.org/2000/svg"><path d="m17.25 10.75c-.552 0-1-.448-1-1v-3.75c0-2.343-1.907-4.25-4.25-4.25s-4.25 1.907-4.25 4.25v3.75c0 .552-.448 1-1 1s-1-.448-1-1v-3.75c0-3.446 2.804-6.25 6.25-6.25s6.25 2.804 6.25 6.25v3.75c0 .552-.448 1-1 1z" fill="#607d8b"/><path d="m18.75 24h-13.5c-1.241 0-2.25-1.009-2.25-2.25v-10.5c0-1.241 1.009-2.25 2.25-2.25h13.5c1.241 0 2.25 1.009 2.25 2.25v10.5c0 1.241-1.009 2.25-2.25 2.25z" fill="#ffc107"/><path d="m12-.25c-3.446 0-6.25 2.804-6.25 6.25v3h2v-3c0-2.343 1.907-4.25 4.25-4.25z" fill="#546d79"/><path d="m12 9h-4.25-2-.5c-1.241 0-2.25 1.009-2.25 2.25v10.5c0 1.241 1.009 2.25 2.25 2.25h6.75z" fill="#dea806"/><g fill="#fff"><path d="m13.25 17.75h-2.5c-.414 0-.75-.336-.75-.75s.336-.75.75-.75h2.5c.414 0 .75.336.75.75s-.336.75-.75.75z"/><path d="m13.25 20h-1.5c-.965 0-1.75-.785-1.75-1.75v-2.5c0-.965.785-1.75 1.75-1.75h1.5c.414 0 .75.336.75.75s-.336.75-.75.75h-1.5c-.138 0-.25.112-.25.25v2.5c0 .138.112.25.25.25h1.5c.414 0 .75.336.75.75s-.336.75-.75.75z"/><path d="m17.25 20h-.5c-.965 0-1.75-.785-1.75-1.75v-2.5c0-.965.785-1.75 1.75-1.75h.5c.965 0 1.75.785 1.75 1.75v2.5c0 .965-.785 1.75-1.75 1.75zm-.5-4.5c-.138 0-.25.112-.25.25v2.5c0 .138.112.25.25.25h.5c.138 0 .25-.112.25-.25v-2.5c0-.138-.112-.25-.25-.25z"/><path d="m7.208 20h-1.458c-.414 0-.75-.336-.75-.75s.336-.75.75-.75h1.458c.158 0 .291-.172.291-.375s-.132-.375-.291-.375h-.416c-.988 0-1.792-.841-1.792-1.875s.804-1.875 1.792-1.875h1.458c.414 0 .75.336.75.75s-.336.75-.75.75h-1.458c-.158 0-.291.172-.291.375s.133.375.291.375h.417c.987 0 1.791.841 1.791 1.875s-.804 1.875-1.792 1.875z"/></g><path d="m14 17h-2.5v.75h1.75c.414 0 .75-.336.75-.75z" fill="#dedede"/><path d="m11.5 17h-1.5v1.25c0 .965.785 1.75 1.75 1.75h1.5c.414 0 .75-.336.75-.75s-.336-.75-.75-.75h-1.5c-.138 0-.25-.112-.25-.25v-.5z" fill="#dedede"/><path d="m19 17h-1.5v1.25c0 .138-.112.25-.25.25h-.5c-.138 0-.25-.112-.25-.25v-1.25h-1.5v1.25c0 .965.785 1.75 1.75 1.75h.5c.965 0 1.75-.785 1.75-1.75z" fill="#dedede"/><path d="m8.641 17h-3.282c.327.455.847.75 1.432.75h.417c.158 0 .291.172.291.375s-.132.375-.291.375h-1.458c-.414 0-.75.336-.75.75s.336.75.75.75h1.458c.988 0 1.792-.841 1.792-1.875 0-.422-.134-.811-.359-1.125z" fill="#dedede"/></svg>