<svg id="color" enable-background="new 0 0 24 24" height="512" viewBox="0 0 24 24" width="512" xmlns="http://www.w3.org/2000/svg"><path d="m8.001 6.5c-.26 0-.516-.102-.707-.293l-4.5-4.5c-.286-.286-.372-.716-.217-1.09.154-.373.519-.617.924-.617h4.5c.552 0 1 .448 1 1v4.5c0 .404-.244.769-.617.924-.125.051-.255.076-.383.076z" fill="#2196f3"/><g fill="#607d8b"><path d="m13.25 12.75h-2.5c-.414 0-.75-.336-.75-.75s.336-.75.75-.75h2.5c.414 0 .75.336.75.75s-.336.75-.75.75z"/><path d="m13.25 15h-1.5c-.965 0-1.75-.785-1.75-1.75v-2.5c0-.965.785-1.75 1.75-1.75h1.5c.414 0 .75.336.75.75s-.336.75-.75.75h-1.5c-.138 0-.25.112-.25.25v2.5c0 .138.112.25.25.25h1.5c.414 0 .75.336.75.75s-.336.75-.75.75z"/><path d="m17.25 15h-.5c-.965 0-1.75-.785-1.75-1.75v-2.5c0-.965.785-1.75 1.75-1.75h.5c.965 0 1.75.785 1.75 1.75v2.5c0 .965-.785 1.75-1.75 1.75zm-.5-4.5c-.138 0-.25.112-.25.25v2.5c0 .138.112.25.25.25h.5c.138 0 .25-.112.25-.25v-2.5c0-.138-.112-.25-.25-.25z"/><path d="m7.208 15h-1.458c-.414 0-.75-.336-.75-.75s.336-.75.75-.75h1.458c.158 0 .292-.172.292-.375s-.133-.375-.292-.375h-.416c-.988 0-1.792-.841-1.792-1.875s.804-1.875 1.792-1.875h1.458c.414 0 .75.336.75.75s-.336.75-.75.75h-1.458c-.158 0-.292.172-.292.375s.133.375.292.375h.417c.987 0 1.791.841 1.791 1.875s-.804 1.875-1.792 1.875z"/></g><path d="m15.834.198c-.521-.185-1.092.087-1.276.608-.185.522.088 1.092.608 1.277 4.088 1.449 6.834 5.334 6.834 9.667 0 3.442-1.737 6.597-4.5 8.478v2.336c3.949-2.105 6.5-6.25 6.5-10.814 0-5.178-3.281-9.82-8.166-11.552z" fill="#2196f3"/><path d="m8.834 21.917c-4.088-1.449-6.834-5.334-6.834-9.667 0-3.841 2.161-7.327 5.5-9.08v-2.206c-4.513 1.904-7.5 6.349-7.5 11.286 0 5.178 3.281 9.82 8.166 11.552.521.185 1.092-.087 1.276-.608.186-.524-.088-1.092-.608-1.277z" fill="#2196f3"/><path d="m20.75 24h-4.5c-.552 0-1-.448-1-1v-4.5c0-.404.244-.769.617-.924.374-.156.803-.07 1.09.217l4.5 4.5c.286.286.372.716.217 1.09-.155.373-.52.617-.924.617z" fill="#2196f3"/><path d="m14 12h-2.5v.75h1.75c.414 0 .75-.336.75-.75z" fill="#546d79"/><path d="m11.5 12h-1.5v1.25c0 .965.785 1.75 1.75 1.75h1.5c.414 0 .75-.336.75-.75s-.336-.75-.75-.75h-1.5c-.138 0-.25-.112-.25-.25v-.5z" fill="#546d79"/><path d="m19 12h-1.5v1.25c0 .138-.112.25-.25.25h-.5c-.138 0-.25-.112-.25-.25v-1.25h-1.5v1.25c0 .965.785 1.75 1.75 1.75h.5c.965 0 1.75-.785 1.75-1.75z" fill="#546d79"/><path d="m8.641 12h-3.282c.327.455.847.75 1.432.75h.417c.158 0 .292.172.292.375s-.133.375-.292.375h-1.458c-.414 0-.75.336-.75.75s.336.75.75.75h1.458c.988 0 1.792-.841 1.792-1.875 0-.422-.134-.811-.359-1.125z" fill="#546d79"/><path d="m23.997 12h-2.001c-.07 2.882-1.356 5.543-3.435 7.398l1.418 1.418c2.445-2.224 3.948-5.393 4.018-8.816z" fill="#1d83d4"/><path d="m2.003 12h-2c-.002.083-.003.167-.003.25 0 5.178 3.281 9.82 8.166 11.552.111.039.223.058.334.058.411 0 .797-.256.942-.666.186-.524-.088-1.092-.608-1.277-4.088-1.449-6.834-5.334-6.834-9.667 0-.083.001-.167.003-.25z" fill="#1d83d4"/><path d="m16.25 17.499c-.129 0-.259.025-.383.077-.374.155-.617.52-.617.924v4.5c0 .552.448 1 1 1h4.5c.404 0 .769-.244.924-.617.155-.374.069-.804-.217-1.09l-1.477-1.477-1.418-1.418-1.605-1.605c-.192-.192-.447-.294-.707-.294z" fill="#1d83d4"/></svg>