<svg id="color" enable-background="new 0 0 24 24" height="512" viewBox="0 0 24 24" width="512" xmlns="http://www.w3.org/2000/svg"><path d="m23 8.04h-22c-.553 0-1 .448-1 1v11.96c0 1.654 1.346 3 3 3h18c1.654 0 3-1.346 3-3v-11.96c0-.552-.447-1-1-1z" fill="#eceff1"/><path d="m21 3h-18c-1.657 0-3 1.343-3 3v3.04h24v-3.04c0-1.657-1.343-3-3-3z" fill="#607d8b"/><path d="m12 9.04h-12v11.96c0 1.654 1.346 3 3 3h9z" fill="#cdd0d2"/><path d="m12 3h-9c-1.657 0-3 1.343-3 3v3.04h12z" fill="#546d79"/><path d="m6 0h-1c-.553 0-1 .447-1 1v4c0 .553.447 1 1 1h1c.553 0 1-.447 1-1v-4c0-.553-.447-1-1-1z" fill="#78909c"/><path d="m19 0h-1c-.553 0-1 .447-1 1v4c0 .553.447 1 1 1h1c.553 0 1-.447 1-1v-4c0-.553-.447-1-1-1z" fill="#78909c"/><path d="m5.5 0h-.5c-.553 0-1 .447-1 1v4c0 .553.447 1 1 1h.5z" fill="#687d88"/><path d="m18.5 0h-.5c-.553 0-1 .447-1 1v4c0 .553.447 1 1 1h.5z" fill="#687d88"/><g fill="#2196f3"><path d="m13.25 16.75h-2.5c-.414 0-.75-.336-.75-.75s.336-.75.75-.75h2.5c.414 0 .75.336.75.75s-.336.75-.75.75z"/><path d="m13.25 19h-1.5c-.965 0-1.75-.785-1.75-1.75v-2.5c0-.965.785-1.75 1.75-1.75h1.5c.414 0 .75.336.75.75s-.336.75-.75.75h-1.5c-.138 0-.25.112-.25.25v2.5c0 .138.112.25.25.25h1.5c.414 0 .75.336.75.75s-.336.75-.75.75z"/><path d="m18.25 19h-.5c-.965 0-1.75-.785-1.75-1.75v-2.5c0-.965.785-1.75 1.75-1.75h.5c.965 0 1.75.785 1.75 1.75v2.5c0 .965-.785 1.75-1.75 1.75zm-.5-4.5c-.138 0-.25.112-.25.25v2.5c0 .138.112.25.25.25h.5c.138 0 .25-.112.25-.25v-2.5c0-.138-.112-.25-.25-.25z"/><path d="m6.208 19h-1.458c-.414 0-.75-.336-.75-.75s.336-.75.75-.75h1.458c.158 0 .292-.172.292-.375s-.134-.375-.292-.375h-.416c-.988 0-1.792-.841-1.792-1.875s.804-1.875 1.792-1.875h1.458c.414 0 .75.336.75.75s-.336.75-.75.75h-1.458c-.158 0-.292.172-.292.375s.134.375.292.375h.416c.988 0 1.792.841 1.792 1.875s-.804 1.875-1.792 1.875z"/></g><path d="m14 16.02h-2.5v.731h1.75c.408-.001.739-.326.75-.731z" fill="#1d83d4"/><path d="m11.5 16.02h-1.5v1.231c0 .965.785 1.75 1.75 1.75h1.5c.414 0 .75-.336.75-.75s-.336-.75-.75-.75h-1.5c-.138 0-.25-.112-.25-.25v-.5z" fill="#1d83d4"/><path d="m20 16.02h-1.5v1.231c0 .138-.112.25-.25.25h-.5c-.138 0-.25-.112-.25-.25v-1.231h-1.5v1.231c0 .965.785 1.75 1.75 1.75h.5c.965 0 1.75-.785 1.75-1.75z" fill="#1d83d4"/><path d="m7.655 16.02h-3.282c.328.444.842.731 1.419.731h.416c.158 0 .292.172.292.375s-.134.375-.292.375h-1.458c-.414-.001-.75.335-.75.749s.336.75.75.75h1.458c.988 0 1.792-.841 1.792-1.875 0-.413-.128-.795-.345-1.105z" fill="#1d83d4"/></svg>