<svg id="color" enable-background="new 0 0 24 24" height="512" viewBox="0 0 24 24" width="512" xmlns="http://www.w3.org/2000/svg"><path d="m21.25 14h-18.5c-1.517 0-2.75-1.233-2.75-2.75v-8.5c0-1.517 1.233-2.75 2.75-2.75h18.5c1.517 0 2.75 1.233 2.75 2.75v8.5c0 1.517-1.233 2.75-2.75 2.75z" fill="#2196f3"/><path d="m12.125 0h-9.375c-1.517 0-2.75 1.233-2.75 2.75v8.5c0 1.517 1.233 2.75 2.75 2.75h9.375z" fill="#1d83d4"/><g fill="#fafafa"><path d="m13.25 10h-1.5c-.965 0-1.75-.785-1.75-1.75v-2.5c0-.965.785-1.75 1.75-1.75h1.5c.414 0 .75.336.75.75s-.336.75-.75.75h-1.5c-.138 0-.25.112-.25.25v2.5c0 .138.112.25.25.25h1.5c.414 0 .75.336.75.75s-.336.75-.75.75z"/><path d="m13.25 7.75h-2.5c-.414 0-.5-.336-.5-.75s.086-.75.5-.75h2.5c.414 0 .75.336.75.75s-.336.75-.75.75z"/><path d="m18.25 10h-.5c-.965 0-1.75-.785-1.75-1.75v-2.5c0-.965.785-1.75 1.75-1.75h.5c.965 0 1.75.785 1.75 1.75v2.5c0 .965-.785 1.75-1.75 1.75zm-.5-4.5c-.138 0-.25.112-.25.25v2.5c0 .138.112.25.25.25h.5c.138 0 .25-.112.25-.25v-2.5c0-.138-.112-.25-.25-.25z"/><path d="m6.208 10h-1.458c-.414 0-.75-.336-.75-.75s.336-.75.75-.75h1.458c.159 0 .292-.172.292-.375s-.133-.375-.291-.375h-.417c-.988 0-1.792-.841-1.792-1.875s.804-1.875 1.792-1.875h1.458c.414 0 .75.336.75.75s-.336.75-.75.75h-1.458c-.159 0-.292.172-.292.375s.133.375.292.375h.417c.987 0 1.791.841 1.791 1.875s-.804 1.875-1.792 1.875z"/></g><path d="m10.25 7h-.25v1.25c0 .965.785 1.75 1.75 1.75h1.5c.414 0 .75-.336.75-.75s-.336-.75-.75-.75h-1.5c-.138 0-.25-.112-.25-.25v-.5h-.75c-.414 0-.5-.336-.5-.75z" fill="#dadada"/><path d="m14 7h-3.75c0 .414.086.75.5.75h.75 1.75c.414 0 .75-.336.75-.75z" fill="#dadada"/><path d="m20 7h-1.5v1.25c0 .138-.112.25-.25.25h-.5c-.138 0-.25-.112-.25-.25v-1.25h-1.5v1.25c0 .965.785 1.75 1.75 1.75h.5c.965 0 1.75-.785 1.75-1.75z" fill="#dadada"/><path d="m7.641 7h-3.282c.327.455.847.75 1.432.75h.417c.159 0 .292.172.292.375s-.133.375-.292.375h-1.458c-.414 0-.75.336-.75.75s.336.75.75.75h1.458c.988 0 1.792-.841 1.792-1.875 0-.422-.134-.811-.359-1.125z" fill="#dadada"/><path d="m16.75 22c-2.895 0-5.25-2.355-5.25-5.25s2.355-5.25 5.25-5.25 5.25 2.355 5.25 5.25-2.355 5.25-5.25 5.25zm0-8.5c-1.792 0-3.25 1.458-3.25 3.25s1.458 3.25 3.25 3.25 3.25-1.458 3.25-3.25-1.458-3.25-3.25-3.25z" fill="#607d8b"/><path d="m23 24c-.256 0-.512-.098-.707-.293l-2.818-2.818c-.391-.391-.391-1.023 0-1.414s1.023-.391 1.414 0l2.818 2.818c.391.391.391 1.023 0 1.414-.195.195-.451.293-.707.293z" fill="#607d8b"/><path d="m16.75 13.5c-1.792 0-3.25 1.458-3.25 3.25s1.458 3.25 3.25 3.25 3.25-1.458 3.25-3.25-1.458-3.25-3.25-3.25z" fill="#fff"/><path d="m13.039 13.039c-.95.951-1.539 2.263-1.539 3.711 0 2.895 2.355 5.25 5.25 5.25 1.087 0 2.098-.332 2.936-.9l-.211-.211c-.391-.391-.391-1.023 0-1.414l-.428-.428c-.588.588-1.401.953-2.297.953-1.792 0-3.25-1.458-3.25-3.25 0-.896.365-1.708.953-2.297z" fill="#546d79"/><path d="m19.475 19.475c-.391.391-.391 1.023 0 1.414l.211.211 2.607 2.607c.195.195.451.293.707.293s.512-.098.707-.293z" fill="#546d79"/><path d="m14.453 14.453c-.589.589-.953 1.401-.953 2.297 0 1.792 1.458 3.25 3.25 3.25.896 0 1.708-.365 2.297-.953z" fill="#dedede"/></svg>