<svg id="color" enable-background="new 0 0 24 24" height="512" viewBox="0 0 24 24" width="512" xmlns="http://www.w3.org/2000/svg"><path d="m22 17.5c-2 0-6 2.531-8 2.531s-4.25-1.531-4.25-1.531 2.693.5 4.25.5 2-.531 2-1.25c0-1.75-2.973-2.022-4.476-2.25-1.477-.822-3.037-1.333-5.481-1.54-.015.142-.037.284-.077.425l-2.009 7.08c2.275 1.035 6.986 2.535 9.043 2.535 3 0 11-4 11-5s-1-1.5-2-1.5z" fill="#ffe0b2"/><path d="m22 17.5c-2 0-6 2.531-8 2.531s-4.25-1.531-4.25-1.531l-4.671-.209-.366.51-.756 2.664c2.275 1.035 6.986 2.535 9.043 2.535 3 0 11-4 11-5 0-.996-.993-1.496-1.989-1.5-.004 0-.007 0-.011 0z" fill="#dec39b"/><path d="m3.5 22h-2.75c-.414 0-.75-.336-.75-.75v-8.5c0-.414.336-.75.75-.75 3.505 0 5.138 1.216 5.205 1.268.242.185.349.498.27.792l-2 7.386c-.089.327-.386.554-.725.554z" fill="#607d8b"/><path d="m0 18.094v3.156c0 .414.336.75.75.75h2.75c.339 0 .636-.227.725-.554l.866-3.199z" fill="#546d79"/><g fill="#2196f3"><path d="m17.25 5.75h-2.5c-.414 0-.75-.336-.75-.75s.336-.75.75-.75h2.5c.414 0 .75.336.75.75s-.336.75-.75.75z"/><path d="m17.25 8h-1.5c-.965 0-1.75-.785-1.75-1.75v-2.5c0-.965.785-1.75 1.75-1.75h1.5c.414 0 .75.336.75.75s-.336.75-.75.75h-1.5c-.138 0-.25.112-.25.25v2.5c0 .138.112.25.25.25h1.5c.414 0 .75.336.75.75s-.336.75-.75.75z"/><path d="m22.25 8h-.5c-.965 0-1.75-.785-1.75-1.75v-2.5c0-.965.785-1.75 1.75-1.75h.5c.965 0 1.75.785 1.75 1.75v2.5c0 .965-.785 1.75-1.75 1.75zm-.5-4.5c-.138 0-.25.112-.25.25v2.5c0 .138.112.25.25.25h.5c.138 0 .25-.112.25-.25v-2.5c0-.138-.112-.25-.25-.25z"/><path d="m10.208 8h-1.458c-.414 0-.75-.336-.75-.75s.336-.75.75-.75h1.458c.158 0 .292-.172.292-.375s-.134-.375-.292-.375h-.416c-.988 0-1.792-.841-1.792-1.875s.804-1.875 1.792-1.875h1.458c.414 0 .75.336.75.75s-.336.75-.75.75h-1.458c-.158 0-.292.172-.292.375s.134.375.292.375h.416c.988 0 1.792.841 1.792 1.875s-.804 1.875-1.792 1.875z"/></g><path d="m18 5h-2.5v.75h1.75c.414 0 .75-.336.75-.75z" fill="#1d83d4"/><path d="m15.5 5h-1.5v1.25c0 .965.785 1.75 1.75 1.75h1.5c.414 0 .75-.336.75-.75s-.336-.75-.75-.75h-1.5c-.138 0-.25-.112-.25-.25v-.5z" fill="#1d83d4"/><path d="m24 5h-1.5v1.25c0 .138-.112.25-.25.25h-.5c-.138 0-.25-.112-.25-.25v-1.25h-1.5v1.25c0 .965.785 1.75 1.75 1.75h.5c.965 0 1.75-.785 1.75-1.75z" fill="#1d83d4"/><path d="m11.641 5h-3.282c.327.455.848.75 1.433.75h.416c.158 0 .292.172.292.375s-.134.375-.292.375h-1.458c-.414 0-.75.336-.75.75s.336.75.75.75h1.458c.988 0 1.792-.841 1.792-1.875 0-.422-.134-.811-.359-1.125z" fill="#1d83d4"/></svg>