<svg id="color" enable-background="new 0 0 24 24" height="512" viewBox="0 0 24 24" width="512" xmlns="http://www.w3.org/2000/svg"><path d="m16 3c0-1.654-1.346-3-3-3h-10c-1.654 0-3 1.346-3 3v18c0 1.654 1.346 3 3 3h10c1.654 0 3-1.346 3-3z" fill="#607d8b"/><path d="m14 21c0 .553-.448 1-1 1h-10c-.552 0-1-.447-1-1v-18c0-.553.448-1 1-1h.5c.552 0 1 .447 1 1s.448 1 1 1h5c.552 0 1-.447 1-1s.448-1 1-1h.5c.552 0 1 .447 1 1z" fill="#fff"/><path d="m8 0h-5c-1.654 0-3 1.346-3 3v18c0 1.654 1.346 3 3 3h5v-2h-5c-.552 0-1-.447-1-1v-18c0-.553.448-1 1-1h.5c.552 0 1 .447 1 1s.448 1 1 1h2.5z" fill="#546d79"/><path d="m3.5 2h-.5c-.552 0-1 .447-1 1v18c0 .553.448 1 1 1h5v-18h-2.5c-.552 0-1-.447-1-1s-.448-1-1-1z" fill="#dedede"/><g fill="#2196f3"><path d="m17.25 13.75h-2.5c-.414 0-.75-.336-.75-.75s.336-.75.75-.75h2.5c.414 0 .75.336.75.75s-.336.75-.75.75z"/><path d="m17.25 16h-1.5c-.965 0-1.75-.785-1.75-1.75v-2.5c0-.965.785-1.75 1.75-1.75h1.5c.414 0 .75.336.75.75s-.336.75-.75.75h-1.5c-.138 0-.25.112-.25.25v2.5c0 .138.112.25.25.25h1.5c.414 0 .75.336.75.75s-.336.75-.75.75z"/><path d="m22.25 16h-.5c-.965 0-1.75-.785-1.75-1.75v-2.5c0-.965.785-1.75 1.75-1.75h.5c.965 0 1.75.785 1.75 1.75v2.5c0 .965-.785 1.75-1.75 1.75zm-.5-4.5c-.138 0-.25.112-.25.25v2.5c0 .138.112.25.25.25h.5c.138 0 .25-.112.25-.25v-2.5c0-.138-.112-.25-.25-.25z"/><path d="m10.208 16h-1.458c-.414 0-.75-.336-.75-.75s.336-.75.75-.75h1.458c.158 0 .291-.172.291-.375s-.133-.375-.291-.375h-.417c-.987 0-1.791-.841-1.791-1.875s.804-1.875 1.791-1.875h1.458c.414 0 .75.336.75.75s-.336.75-.75.75h-1.458c-.158 0-.291.172-.291.375s.133.375.291.375h.417c.988 0 1.792.841 1.792 1.875s-.804 1.875-1.792 1.875z"/></g><path d="m18 13h-2.5v.75h1.75c.414 0 .75-.336.75-.75z" fill="#1d83d4"/><path d="m15.5 13h-1.5v1.25c0 .965.785 1.75 1.75 1.75h1.5c.414 0 .75-.336.75-.75s-.336-.75-.75-.75h-1.5c-.138 0-.25-.112-.25-.25v-.5z" fill="#1d83d4"/><path d="m24 13h-1.5v1.25c0 .138-.112.25-.25.25h-.5c-.138 0-.25-.112-.25-.25v-1.25h-1.5v1.25c0 .965.785 1.75 1.75 1.75h.5c.965 0 1.75-.785 1.75-1.75z" fill="#1d83d4"/><path d="m11.641 13h-3.282c.327.455.848.75 1.432.75h.417c.158 0 .291.172.291.375s-.133.375-.291.375h-1.458c-.414 0-.75.336-.75.75s.336.75.75.75h1.458c.988 0 1.792-.841 1.792-1.875 0-.422-.134-.811-.359-1.125z" fill="#1d83d4"/></svg>