<svg id="color" enable-background="new 0 0 24 24" height="512" viewBox="0 0 24 24" width="512" xmlns="http://www.w3.org/2000/svg"><path d="m21.25 12h-18.5c-1.517 0-2.75-1.233-2.75-2.75v-6.5c0-1.517 1.233-2.75 2.75-2.75h18.5c1.517 0 2.75 1.233 2.75 2.75v6.5c0 1.517-1.233 2.75-2.75 2.75z" fill="#607d8b"/><path d="m12 0h-9.25c-1.517 0-2.75 1.233-2.75 2.75v6.5c0 1.517 1.233 2.75 2.75 2.75h7.593c.475-.316 1.045-.5 1.657-.5z" fill="#546d79"/><path d="m12 17.5c1.654 0 3-1.346 3-3s-1.346-3-3-3-3 1.346-3 3 1.346 3 3 3z" fill="#2196f3"/><path d="m14.75 19h-5.5c-1.517 0-2.75 1.233-2.75 2.75v1.5c0 .414.336.75.75.75h9.5c.414 0 .75-.336.75-.75v-1.5c0-1.517-1.233-2.75-2.75-2.75z" fill="#2196f3"/><path d="m12 11.5c-.612 0-1.182.184-1.657.5-.809.538-1.343 1.458-1.343 2.5 0 1.654 1.346 3 3 3z" fill="#1d83d4"/><path d="m12 19h-2.75c-1.517 0-2.75 1.233-2.75 2.75v1.5c0 .414.336.75.75.75h4.75z" fill="#1d83d4"/><g fill="#fff"><path d="m13.25 6.75h-2.5c-.414 0-.75-.336-.75-.75s.336-.75.75-.75h2.5c.414 0 .75.336.75.75s-.336.75-.75.75z"/><path d="m13.25 9h-1.5c-.965 0-1.75-.785-1.75-1.75v-2.5c0-.965.785-1.75 1.75-1.75h1.5c.414 0 .75.336.75.75s-.336.75-.75.75h-1.5c-.138 0-.25.112-.25.25v2.5c0 .138.112.25.25.25h1.5c.414 0 .75.336.75.75s-.336.75-.75.75z"/><path d="m18.25 9h-.5c-.965 0-1.75-.785-1.75-1.75v-2.5c0-.965.785-1.75 1.75-1.75h.5c.965 0 1.75.785 1.75 1.75v2.5c0 .965-.785 1.75-1.75 1.75zm-.5-4.5c-.138 0-.25.112-.25.25v2.5c0 .138.112.25.25.25h.5c.138 0 .25-.112.25-.25v-2.5c0-.138-.112-.25-.25-.25z"/><path d="m6.209 9h-1.459c-.414 0-.75-.336-.75-.75s.336-.75.75-.75h1.459c.158 0 .291-.172.291-.375s-.133-.375-.291-.375h-.418c-.987 0-1.791-.841-1.791-1.875s.804-1.875 1.791-1.875h1.459c.414 0 .75.336.75.75s-.336.75-.75.75h-1.459c-.158 0-.291.172-.291.375s.133.375.291.375h.418c.987 0 1.791.841 1.791 1.875s-.804 1.875-1.791 1.875z"/></g><path d="m14 6h-2.5v.75h1.75c.414 0 .75-.336.75-.75z" fill="#dedede"/><path d="m11.5 6h-1.5v1.25c0 .965.785 1.75 1.75 1.75h1.5c.414 0 .75-.336.75-.75s-.336-.75-.75-.75h-1.5c-.138 0-.25-.112-.25-.25v-.5z" fill="#dedede"/><path d="m20 6h-1.5v1.25c0 .138-.112.25-.25.25h-.5c-.138 0-.25-.112-.25-.25v-1.25h-1.5v1.25c0 .965.785 1.75 1.75 1.75h.5c.965 0 1.75-.785 1.75-1.75z" fill="#dedede"/><path d="m7.641 6h-3.282c.327.455.847.75 1.432.75h.418c.158 0 .291.172.291.375s-.133.375-.291.375h-1.459c-.414 0-.75.336-.75.75s.336.75.75.75h1.459c.987 0 1.791-.841 1.791-1.875 0-.422-.134-.811-.359-1.125z" fill="#dedede"/><path d="m4 17c1.104 0 2-.897 2-2s-.897-2-2-2c-1.104 0-2 .897-2 2s.896 2 2 2z" fill="#64b5f6"/><path d="m6.67 18.4c-1.01.76-1.67 1.98-1.67 3.35v.25h-4.25c-.41 0-.75-.34-.75-.75v-.5c0-1.52 1.23-2.75 2.75-2.75h2.5c.52 0 1.01.15 1.42.4z" fill="#64b5f6"/><path d="m20 17c1.104 0 2-.897 2-2s-.896-2-2-2-2 .897-2 2 .896 2 2 2z" fill="#64b5f6"/><path d="m24 20.75v.5c0 .41-.34.75-.75.75h-4.25v-.25c0-1.37-.66-2.59-1.67-3.35.41-.25.9-.4 1.42-.4h2.5c1.52 0 2.75 1.23 2.75 2.75z" fill="#64b5f6"/><path d="m4 13c-1.104 0-2 .897-2 2s.896 2 2 2z" fill="#579ed6"/><path d="m4 18h-1.25c-1.52 0-2.75 1.23-2.75 2.75v.5c0 .41.34.75.75.75h3.25z" fill="#579ed6"/><path d="m20 13c-1.104 0-2 .897-2 2s.896 2 2 2z" fill="#579ed6"/><path d="m20 18h-1.25c-.52 0-1.01.15-1.42.4 1.01.76 1.67 1.98 1.67 3.35v.25h1z" fill="#579ed6"/></svg>