<svg id="color" enable-background="new 0 0 24 24" height="512" viewBox="0 0 24 24" width="512" xmlns="http://www.w3.org/2000/svg"><path d="m12 22.25c-5.652 0-10.25-4.598-10.25-10.25s4.598-10.25 10.25-10.25 10.25 4.598 10.25 10.25-4.598 10.25-10.25 10.25z" fill="#64b5f6"/><path d="m12 3.75c-4.549 0-8.25 3.701-8.25 8.25s3.701 8.25 8.25 8.25 8.25-3.701 8.25-8.25-3.701-8.25-8.25-8.25z" fill="#eceff1"/><g fill="#2196f3"><path d="m12 24c-.553 0-1-.448-1-1v-2.391c0-.552.447-1 1-1s1 .448 1 1v2.391c0 .552-.447 1-1 1z"/><path d="m12 4.391c-.553 0-1-.448-1-1v-2.391c0-.552.447-1 1-1s1 .448 1 1v2.391c0 .552-.447 1-1 1z"/><path d="m3.392 13h-2.392c-.553 0-1-.448-1-1s.447-1 1-1h2.392c.553 0 1 .448 1 1s-.448 1-1 1z"/></g><path d="m15.703 12.469c.02-.155.047-.309.047-.469 0-.161-.028-.314-.047-.469l.9-.682c.201-.152.257-.431.131-.649l-.809-1.4c-.126-.218-.395-.309-.627-.211l-1.037.438c-.253-.192-.522-.363-.819-.487l-.138-1.101c-.031-.251-.243-.439-.495-.439h-1.617c-.252 0-.465.188-.496.438l-.138 1.101c-.298.124-.567.295-.82.487l-1.036-.437c-.233-.098-.502-.007-.628.211l-.809 1.4c-.126.218-.07.497.131.649l.9.682c-.018.155-.046.308-.046.469s.028.314.047.469l-.9.682c-.201.152-.257.431-.131.649l.809 1.4c.126.218.395.309.627.211l1.037-.437c.253.192.522.363.819.487l.138 1.101c.031.25.243.438.495.438h1.617c.252 0 .465-.188.496-.438l.138-1.101c.297-.124.566-.295.819-.487l1.037.437c.232.098.501.007.627-.211l.809-1.4c.126-.218.07-.497-.131-.649zm-3.703 1.531c-1.105 0-2-.896-2-2s.895-2 2-2c1.104 0 2 .896 2 2 0 1.105-.896 2-2 2z" fill="#607d8b"/><path d="m3.8 12.913c-.125.056-.263.087-.408.087h-1.594c.472 4.855 4.346 8.729 9.202 9.202v-1.593c0-.146.031-.284.087-.409-3.821-.423-6.864-3.466-7.287-7.287zm7.2-11.115c-4.856.473-8.729 4.347-9.202 9.202h1.593c.146 0 .284.031.409.087.423-3.821 3.466-6.864 7.287-7.287-.056-.125-.087-.263-.087-.409z" fill="#579ed6"/><path d="m12 10c-1.105 0-2 .896-2 2 0 1.105.895 2 2 2zm-.913-6.2c-3.821.423-6.864 3.466-7.287 7.287.349.156.592.506.592.913s-.243.757-.591.913c.423 3.821 3.466 6.864 7.287 7.287.156-.348.506-.591.913-.591v-2.609h-.809c-.252 0-.465-.188-.496-.438l-.138-1.101c-.297-.124-.566-.295-.819-.487l-1.037.437c-.063.027-.129.039-.194.039-.174 0-.342-.091-.434-.25l-.809-1.4c-.126-.218-.07-.497.131-.649l.9-.682c-.018-.155-.046-.308-.046-.469s.028-.314.047-.469l-.9-.682c-.201-.152-.257-.431-.131-.649l.809-1.4c.092-.159.259-.25.434-.25.065 0 .131.013.194.039l1.037.438c.253-.192.522-.363.819-.487l.138-1.101c.03-.251.242-.439.494-.439h.809v-2.609c-.407 0-.757-.243-.913-.591z" fill="#cdd0d2"/><path d="m12 19.609c-.407 0-.757.243-.913.591-.056.125-.087.263-.087.409v1.593.798c0 .552.447 1 1 1z" fill="#1d83d4"/><path d="m12 0c-.553 0-1 .448-1 1v.798 1.593c0 .146.031.284.087.409.156.348.506.591.913.591z" fill="#1d83d4"/><path d="m12 7h-.809c-.252 0-.465.188-.496.438l-.138 1.101c-.297.124-.566.295-.819.487l-1.036-.437c-.063-.027-.129-.039-.194-.039-.174 0-.342.091-.434.25l-.809 1.4c-.126.218-.07.497.131.649l.9.682c-.018.155-.046.308-.046.469s.028.314.047.469l-.9.682c-.201.152-.257.431-.131.649l.809 1.4c.092.159.259.25.434.25.065 0 .131-.013.194-.039l1.037-.437c.253.192.522.363.819.487l.138 1.101c.03.25.242.438.494.438h.809v-3c-1.105 0-2-.896-2-2s.895-2 2-2z" fill="#546d79"/><path d="m23 13h-2.392c-.553 0-1-.448-1-1s.447-1 1-1h2.392c.553 0 1 .448 1 1s-.447 1-1 1z" fill="#2196f3"/><path d="m19.609 12c0 .407.243.757.591.913.125.056.263.087.409.087h1.593.798c.552 0 1-.447 1-1z" fill="#1d83d4"/><path d="m0 12c0 .553.448 1 1 1h.798 1.593c.146 0 .284-.031.409-.087.349-.156.591-.506.591-.913z" fill="#1d83d4"/></svg>