<svg id="color" enable-background="new 0 0 24 24" height="512" viewBox="0 0 24 24" width="512" xmlns="http://www.w3.org/2000/svg"><path d="m8.741 12.5c-.323 0-.641-.156-.833-.446-.307-.459-.182-1.081.277-1.387l8.56-5.7c.461-.307 1.081-.182 1.387.278.307.459.182 1.081-.277 1.387l-8.56 5.7c-.171.114-.363.168-.554.168z" fill="#b0bec5"/><path d="m18.939 21.101c-.134 0-.27-.027-.4-.084l-9.82-4.3c-.506-.222-.736-.811-.515-1.317.221-.505.809-.737 1.317-.515l9.82 4.3c.506.222.736.811.515 1.317-.164.374-.531.599-.917.599z" fill="#b0bec5"/><path d="m17.299 4.799c-.191 0-.383.054-.554.168l-8.56 5.7c-.459.306-.584.927-.277 1.387l10.224-6.809c-.193-.289-.509-.446-.833-.446z" fill="#99a5ac"/><path d="m8.204 15.398c-.222.506.009 1.096.515 1.317l9.82 4.3c.131.057.267.084.4.084.386 0 .753-.224.917-.599z" fill="#99a5ac"/><g fill="#2196f3"><path d="m5.25 19.25c-2.895 0-5.25-2.355-5.25-5.25s2.355-5.25 5.25-5.25 5.25 2.355 5.25 5.25-2.355 5.25-5.25 5.25z"/><path d="m21 24c-1.654 0-3-1.346-3-3s1.346-3 3-3 3 1.346 3 3-1.346 3-3 3z"/><path d="m20 8c-2.206 0-4-1.794-4-4s1.794-4 4-4 4 1.794 4 4-1.794 4-4 4z"/></g><path d="m5.25 8.75c-2.895 0-5.25 2.355-5.25 5.25s2.355 5.25 5.25 5.25z" fill="#1d83d4"/><path d="m19.94 0c-2.178.032-3.94 1.814-3.94 4s1.762 3.968 3.94 4z" fill="#1d83d4"/><path d="m21 18c-1.654 0-3 1.346-3 3s1.346 3 3 3z" fill="#1d83d4"/></svg>