<svg id="color" enable-background="new 0 0 24 24" height="512" viewBox="0 0 24 24" width="512" xmlns="http://www.w3.org/2000/svg"><path d="m23 22h-19.25c-.965 0-1.75-.785-1.75-1.75s.785-1.75 1.75-1.75h5.75c2.067 0 3.75-1.682 3.75-3.75s-1.683-3.75-3.75-3.75h-4.25c-.553 0-1 .448-1 1s.447 1 1 1h4.25c.965 0 1.75.785 1.75 1.75s-.785 1.75-1.75 1.75h-5.75c-2.067 0-3.75 1.682-3.75 3.75s1.683 3.75 3.75 3.75h19.25c.553 0 .553-2 0-2z" fill="#b0bec5"/><path d="m9.5 12h-5.25c0 .552.447 1 1 1h4.25c.965 0 1.75.785 1.75 1.75s-.785 1.75-1.75 1.75h-5.75c-2.067 0-3.75 1.682-3.75 3.75s1.683 3.75 3.75 3.75h19.25c.276 0 .415-.5.415-1h-19.665c-1.519 0-2.75-1.231-2.75-2.75s1.231-2.75 2.75-2.75h5.75c1.519 0 2.75-1.231 2.75-2.75s-1.231-2.75-2.75-2.75z" fill="#99a5ac"/><path d="m5 13c-.174 0-.348-.06-.487-.18-.185-.158-4.513-3.905-4.513-7.758 0-2.791 2.243-5.062 5-5.062s5 2.271 5 5.062c0 3.853-4.328 7.6-4.513 7.757-.139.121-.313.181-.487.181z" fill="#ef5350"/><path d="m5 7c-1.103 0-2-.897-2-2s.897-2 2-2 2 .897 2 2-.897 2-2 2z" fill="#fff"/><path d="m5 0c-2.757 0-5 2.271-5 5.062 0 3.853 4.328 7.6 4.513 7.757.139.121.313.181.487.181v-6c-1.103 0-2-.897-2-2s.897-2 2-2z" fill="#d04846"/><path d="m5 3c-1.103 0-2 .897-2 2s.897 2 2 2z" fill="#dedede"/><path d="m24 18v5c0 .55-.45 1-1 1s-1-.45-1-1v-5z" fill="#607d8b"/><path d="m23 18h-1v5c0 .55.45 1 1 1z" fill="#546d79"/><path d="m24 11v7h-8.25c-.28 0-.54-.16-.67-.41s-.1-.55.06-.78l1.681-2.31-1.681-2.31c-.159-.23-.189-.53-.06-.78.13-.25.39-.41.67-.41z" fill="#3fa9f5"/><path d="m24 14.5h-7.18l-1.681 2.31c-.159.23-.189.53-.06.78.13.25.39.41.67.41h8.251z" fill="#3793d5"/></svg>