<svg id="color" enable-background="new 0 0 24 24" height="512" viewBox="0 0 24 24" width="512" xmlns="http://www.w3.org/2000/svg"><path d="m12 24c-6.617 0-12-5.383-12-12s5.383-12 12-12 12 5.383 12 12-5.383 12-12 12z" fill="#2196f3"/><path d="m12 2c-5.514 0-10 4.486-10 10s4.486 10 10 10 10-4.486 10-10-4.486-10-10-10z" fill="#90caf9"/><path d="m12 19.111c-3.921 0-7.111-3.19-7.111-7.111s3.19-7.111 7.111-7.111 7.111 3.19 7.111 7.111-3.19 7.111-7.111 7.111zm0-12.222c-2.818 0-5.111 2.293-5.111 5.111s2.293 5.111 5.111 5.111 5.111-2.293 5.111-5.111-2.293-5.111-5.111-5.111z" fill="#2196f3"/><path d="m12 15.2c-1.765 0-3.2-1.436-3.2-3.2 0-1.765 1.436-3.2 3.2-3.2 1.765 0 3.2 1.436 3.2 3.2 0 1.765-1.435 3.2-3.2 3.2zm0-4.4c-.662 0-1.2.539-1.2 1.2 0 .662.538 1.2 1.2 1.2s1.2-.539 1.2-1.2c0-.662-.538-1.2-1.2-1.2z" fill="#2196f3"/><path d="m12 0c-6.617 0-12 5.383-12 12s5.383 12 12 12v-2c-5.514 0-10-4.486-10-10s4.486-10 10-10z" fill="#1d83d4"/><path d="m12 6.889c-2.818 0-5.111 2.293-5.111 5.111s2.293 5.111 5.111 5.111v-1.911c-1.765 0-3.2-1.436-3.2-3.2 0-1.765 1.436-3.2 3.2-3.2zm0-4.889c-5.514 0-10 4.486-10 10s4.486 10 10 10v-2.889c-3.921 0-7.111-3.19-7.111-7.111s3.19-7.111 7.111-7.111z" fill="#7db0d9"/><path d="m12 4.889c-3.921 0-7.111 3.19-7.111 7.111s3.19 7.111 7.111 7.111v-2c-2.818 0-5.111-2.293-5.111-5.111s2.293-5.111 5.111-5.111z" fill="#1d83d4"/><path d="m12 10.8c-.662 0-1.2.539-1.2 1.2 0 .662.538 1.2 1.2 1.2z" fill="#7db0d9"/><path d="m12 8.8c-1.765 0-3.2 1.436-3.2 3.2 0 1.765 1.436 3.2 3.2 3.2v-2c-.662 0-1.2-.539-1.2-1.2 0-.662.538-1.2 1.2-1.2z" fill="#1d83d4"/><path d="m16.409 23.523h-.017c-.316-.007-.595-.212-.695-.513l-3.183-9.546c-.09-.27-.02-.567.182-.768.201-.201.497-.271.768-.181l9.547 3.182c.3.1.505.378.513.694.007.316-.186.604-.48.717l-4.286 1.648-1.647 4.285c-.113.292-.392.482-.702.482z" fill="#455a64"/><path d="m12.697 12.697c-.001 0-.001 0 0 0-.201.201-.272.498-.182.768l3.183 9.546c.101.3.379.505.695.513h.017c.31 0 .589-.19.7-.481l1.647-4.285z" fill="#3c4e57"/></svg>