<svg id="color" enable-background="new 0 0 24 24" height="512" viewBox="0 0 24 24" width="512" xmlns="http://www.w3.org/2000/svg"><path d="m12 22.25c-5.652 0-10.25-4.598-10.25-10.25s4.598-10.25 10.25-10.25 10.25 4.598 10.25 10.25-4.598 10.25-10.25 10.25z" fill="#64b5f6"/><circle cx="12" cy="12" fill="#eceff1" r="8.25"/><path d="m12 1.75c-5.652 0-10.25 4.598-10.25 10.25s4.598 10.25 10.25 10.25v-2c-4.549 0-8.25-3.701-8.25-8.25s3.701-8.25 8.25-8.25z" fill="#579ed6"/><path d="m12 3.75c-4.549 0-8.25 3.701-8.25 8.25s3.701 8.25 8.25 8.25z" fill="#cdd0d2"/><g fill="#2196f3"><path d="m12 24c-.553 0-1-.448-1-1v-2.391c0-.552.447-1 1-1s1 .448 1 1v2.391c0 .552-.447 1-1 1z"/><path d="m12 4.391c-.553 0-1-.448-1-1v-2.391c0-.552.447-1 1-1s1 .448 1 1v2.391c0 .552-.447 1-1 1z"/><path d="m3.392 13h-2.392c-.553 0-1-.448-1-1s.447-1 1-1h2.392c.553 0 1 .448 1 1s-.448 1-1 1z"/><path d="m23 13h-2.392c-.553 0-1-.448-1-1s.447-1 1-1h2.392c.553 0 1 .448 1 1s-.447 1-1 1z"/></g><path d="m15.14 15.366c-.403-.094-.654-.498-.56-.901l1.63-6.77c.095-.403.496-.655.901-.56.403.094.654.498.56.901l-1.63 6.77c-.095.403-.498.653-.901.56z" fill="#90a4ae"/><path d="m12 19.609c-.407 0-.757.243-.913.591-.056.125-.087.263-.087.409v1.593.798c0 .552.447 1 1 1z" fill="#1d83d4"/><path d="m12 0c-.553 0-1 .448-1 1v.798 1.593c0 .146.031.284.087.409.156.348.506.591.913.591z" fill="#1d83d4"/><path d="m19.609 12c0 .407.243.757.591.913.125.056.263.087.409.087h1.593.798c.552 0 1-.447 1-1z" fill="#1d83d4"/><path d="m0 12c0 .553.448 1 1 1h.798 1.593c.146 0 .284-.031.409-.087.349-.156.591-.506.591-.913z" fill="#1d83d4"/><path d="m9.811 18.385c-.689 0-1.25-.561-1.25-1.25s.561-1.25 1.25-1.25 1.25.561 1.25 1.25c0 .69-.561 1.25-1.25 1.25z" fill="#546e7a"/><path d="m13.811 18.385c-.689 0-1.25-.561-1.25-1.25s.561-1.25 1.25-1.25 1.25.561 1.25 1.25c0 .69-.561 1.25-1.25 1.25z" fill="#546e7a"/><path d="m9.811 15.885c-.689 0-1.25.561-1.25 1.25s.561 1.25 1.25 1.25z" fill="#49606a"/><path d="m13.811 15.885c-.689 0-1.25.561-1.25 1.25s.561 1.25 1.25 1.25z" fill="#49606a"/><path d="m15.311 15.385h-7.75c-.352 0-.656-.244-.732-.587l-1-4.5c-.104-.47.253-.913.732-.913h9.8c.48 0 .84.448.73.92l-1.05 4.5c-.079.34-.382.58-.73.58z" fill="#ffc107"/><path d="m12 9.385h-5.439c-.479 0-.837.443-.732.913l1 4.5c.076.343.381.587.732.587h4.439z" fill="#dea806"/></svg>