<svg id="color" enable-background="new 0 0 24 24" height="512" viewBox="0 0 24 24" width="512" xmlns="http://www.w3.org/2000/svg"><path d="m9.75 19.5c-5.376 0-9.75-4.374-9.75-9.75s4.374-9.75 9.75-9.75 9.75 4.374 9.75 9.75-4.374 9.75-9.75 9.75z" fill="#607d8b"/><path d="m17.5 9.75c0 .34-.02.67-.07 1-.49 3.8-3.75 6.75-7.68 6.75s-7.19-2.95-7.68-6.75c-.05-.33-.07-.66-.07-1s.02-.67.07-1c.49-3.8 3.75-6.75 7.68-6.75s7.19 2.95 7.68 6.75c.05.33.07.66.07 1z" fill="#eceff1"/><path d="m23 24c-.256 0-.512-.098-.707-.293l-6.98-6.98c-.391-.391-.391-1.023 0-1.414s1.023-.391 1.414 0l6.98 6.98c.391.391.391 1.023 0 1.414-.195.195-.451.293-.707.293z" fill="#607d8b"/><path d="m2.859 2.859c-1.766 1.766-2.859 4.203-2.859 6.891 0 5.376 4.374 9.75 9.75 9.75 2.329 0 4.469-.821 6.148-2.188l-.585-.585c-.391-.391-.391-1.023 0-1.414l-.088-.088c-1.403 1.404-3.34 2.275-5.475 2.275-3.93 0-7.19-2.95-7.68-6.75-.05-.33-.07-.66-.07-1s.02-.67.07-1c.224-1.736 1.026-3.294 2.205-4.475z" fill="#546d79"/><path d="m4.275 4.275c-1.18 1.181-1.981 2.739-2.205 4.475-.05.33-.07.66-.07 1s.02.67.07 1c.49 3.8 3.75 6.75 7.68 6.75 2.135 0 4.072-.871 5.475-2.275z" fill="#cdd0d2"/><path d="m15.312 15.312c-.391.391-.391 1.023 0 1.414l.585.585 6.395 6.395c.196.196.452.294.708.294.256 0 .512-.098.707-.293z" fill="#546d79"/><path d="m9.5 7.65c-.552 0-1-.448-1-1v-1.9c0-.552.448-1 1-1s1 .448 1 1v1.9c0 .552-.448 1-1 1z" fill="#2196f3"/><path d="m9.5 7.65v-3.9c-.552 0-1 .448-1 1v1.032.868c0 .552.448 1 1 1z" fill="#1d83d4"/><g fill="#2196f3"><path d="m9.5 15.25c-.552 0-1-.448-1-1v-1.9c0-.552.448-1 1-1s1 .448 1 1v1.9c0 .552-.448 1-1 1z"/><path d="m9.5 13.35c-2.123 0-3.85-1.727-3.85-3.85s1.727-3.85 3.85-3.85 3.85 1.727 3.85 3.85-1.727 3.85-3.85 3.85zm0-5.7c-1.02 0-1.85.83-1.85 1.85s.83 1.85 1.85 1.85 1.85-.83 1.85-1.85-.83-1.85-1.85-1.85z"/><path d="m14.25 10.5h-1.9c-.552 0-1-.448-1-1s.448-1 1-1h1.9c.552 0 1 .448 1 1s-.448 1-1 1z"/><path d="m6.65 10.5h-1.9c-.552 0-1-.448-1-1s.448-1 1-1h1.9c.552 0 1 .448 1 1s-.448 1-1 1z"/></g><path d="m11.35 9.5c0 1.02-.83 1.85-1.85 1.85s-1.85-.83-1.85-1.85c0 .552-.448 1-1 1h-.868c.441 1.64 1.941 2.85 3.718 2.85s3.277-1.21 3.718-2.85h-.868c-.552 0-1-.448-1-1z" fill="#1d83d4"/><path d="m15.25 9.5h-3.9c0 .552.448 1 1 1h.868 1.032c.552 0 1-.448 1-1z" fill="#1d83d4"/><path d="m7.65 9.5h-3.9c0 .552.448 1 1 1h1.032.868c.552 0 1-.448 1-1z" fill="#1d83d4"/><path d="m9.5 15.25v-3.9c-.552 0-1 .448-1 1v.868 1.032c0 .552.448 1 1 1z" fill="#1d83d4"/></svg>