<svg id="color" enable-background="new 0 0 24 24" height="512" viewBox="0 0 24 24" width="512" xmlns="http://www.w3.org/2000/svg"><path d="m9.75 19.5c-5.376 0-9.75-4.374-9.75-9.75s4.374-9.75 9.75-9.75 9.75 4.374 9.75 9.75-4.374 9.75-9.75 9.75z" fill="#607d8b"/><path d="m17.5 9.75c0 .34-.02.67-.07 1-.49 3.8-3.75 6.75-7.68 6.75s-7.19-2.95-7.68-6.75c-.05-.33-.07-.66-.07-1s.02-.67.07-1c.49-3.8 3.75-6.75 7.68-6.75s7.19 2.95 7.68 6.75c.05.33.07.66.07 1z" fill="#eceff1"/><path d="m23 24c-.256 0-.512-.098-.707-.293l-6.98-6.98c-.391-.391-.391-1.023 0-1.414s1.023-.391 1.414 0l6.98 6.98c.391.391.391 1.023 0 1.414-.195.195-.451.293-.707.293z" fill="#607d8b"/><path d="m2.859 2.859c-1.766 1.766-2.859 4.203-2.859 6.891 0 5.376 4.374 9.75 9.75 9.75 2.329 0 4.469-.821 6.148-2.188l-.585-.585c-.391-.391-.391-1.023 0-1.414l-.088-.088c-1.403 1.404-3.34 2.275-5.475 2.275-3.93 0-7.19-2.95-7.68-6.75-.05-.33-.07-.66-.07-1s.02-.67.07-1c.224-1.736 1.026-3.294 2.205-4.475z" fill="#546d79"/><path d="m4.275 4.275c-1.18 1.181-1.981 2.739-2.205 4.475-.05.33-.07.66-.07 1s.02.67.07 1c.49 3.8 3.75 6.75 7.68 6.75 2.135 0 4.072-.871 5.475-2.275z" fill="#cdd0d2"/><path d="m15.313 15.312c-.391.391-.391 1.023 0 1.414l.585.585 6.395 6.395c.195.196.451.294.707.294.256 0 .512-.098.707-.293z" fill="#546d79"/><path d="m12 10.25h-4.5c-.388 0-.712-.296-.747-.682l-.251-2.761c-.083-.91.223-1.819.84-2.495.616-.675 1.494-1.062 2.408-1.062s1.792.387 2.408 1.062c.617.675.922 1.584.84 2.495l-.251 2.761c-.035.386-.359.682-.747.682z" fill="#9e9e9e"/><path d="m9.75 16.25c-1.654 0-3-1.346-3-3v-1.25c0-.414.336-.75.75-.75h4.5c.414 0 .75.336.75.75v1.25c0 1.654-1.346 3-3 3z" fill="#9e9e9e"/><g fill="#8a8a8a"><path d="m9.75 3.25c-.914 0-1.792.387-2.408 1.062-.617.675-.922 1.584-.84 2.495l.251 2.761c.035.386.359.682.747.682h2.25z"/><path d="m9.75 11.25h-2.25c-.414 0-.75.336-.75.75v1.25c0 1.654 1.346 3 3 3z"/></g></svg>