<svg id="color" enable-background="new 0 0 24 24" height="512" viewBox="0 0 24 24" width="512" xmlns="http://www.w3.org/2000/svg"><g fill="#b0bec5"><path d="m20.25 19h-3c-.414 0-.75-.336-.75-.75v-6c0-.414.336-.75.75-.75h3c.965 0 1.75.785 1.75 1.75v4c0 .965-.785 1.75-1.75 1.75z"/><path d="m6.75 19h-3c-.965 0-1.75-.785-1.75-1.75v-4c0-.965.785-1.75 1.75-1.75h3c.414 0 .75.336.75.75v6c0 .414-.336.75-.75.75z"/><path d="m20.25 10.5h-3c-.414 0-.75-.336-.75-.75v-6c0-.414.336-.75.75-.75h3c.965 0 1.75.785 1.75 1.75v4c0 .965-.785 1.75-1.75 1.75z"/><path d="m6.75 10.5h-3c-.965 0-1.75-.785-1.75-1.75v-4c0-.965.785-1.75 1.75-1.75h3c.414 0 .75.336.75.75v6c0 .414-.336.75-.75.75z"/></g><path d="m22 6.75h-5.5v3c0 .414.336.75.75.75h3c.965 0 1.75-.785 1.75-1.75z" fill="#99a5ac"/><path d="m7.5 6.75h-5.5v2c0 .965.785 1.75 1.75 1.75h3c.414 0 .75-.336.75-.75z" fill="#99a5ac"/><path d="m22 15.25h-5.5v3c0 .414.336.75.75.75h3c.965 0 1.75-.785 1.75-1.75z" fill="#99a5ac"/><path d="m7.5 15.25h-5.5v2c0 .965.785 1.75 1.75 1.75h3c.414 0 .75-.336.75-.75z" fill="#99a5ac"/><path d="m15.25 24h-6.5c-1.517 0-2.75-1.233-2.75-2.75v-18.5c0-1.517 1.233-2.75 2.75-2.75h6.5c1.517 0 2.75 1.233 2.75 2.75v18.5c0 1.517-1.233 2.75-2.75 2.75z" fill="#607d8b"/><path d="m12 14.5c-1.379 0-2.5-1.122-2.5-2.5s1.121-2.5 2.5-2.5 2.5 1.122 2.5 2.5-1.121 2.5-2.5 2.5z" fill="#ffc107"/><path d="m12 8c-1.379 0-2.5-1.122-2.5-2.5s1.121-2.5 2.5-2.5 2.5 1.122 2.5 2.5-1.121 2.5-2.5 2.5z" fill="#f44336"/><path d="m12 21c-1.379 0-2.5-1.122-2.5-2.5s1.121-2.5 2.5-2.5 2.5 1.122 2.5 2.5-1.121 2.5-2.5 2.5z" fill="#4caf50"/><path d="m12 0h-3.25c-1.517 0-2.75 1.233-2.75 2.75v18.5c0 1.517 1.233 2.75 2.75 2.75h3.25v-3c-1.379 0-2.5-1.122-2.5-2.5s1.121-2.5 2.5-2.5v-1.5c-1.379 0-2.5-1.122-2.5-2.5s1.121-2.5 2.5-2.5v-1.5c-1.379 0-2.5-1.122-2.5-2.5s1.121-2.5 2.5-2.5z" fill="#546d79"/><path d="m12 9.5c-1.379 0-2.5 1.122-2.5 2.5s1.121 2.5 2.5 2.5z" fill="#dea806"/><path d="m12 3c-1.379 0-2.5 1.122-2.5 2.5s1.121 2.5 2.5 2.5z" fill="#d43a2f"/><path d="m12 16c-1.379 0-2.5 1.122-2.5 2.5s1.121 2.5 2.5 2.5z" fill="#429846"/></svg>