<svg id="color" enable-background="new 0 0 24 24" height="512" viewBox="0 0 24 24" width="512" xmlns="http://www.w3.org/2000/svg"><path d="m9.75 19.5c-5.376 0-9.75-4.374-9.75-9.75s4.374-9.75 9.75-9.75 9.75 4.374 9.75 9.75-4.374 9.75-9.75 9.75z" fill="#607d8b"/><path d="m17.5 9.75c0 .34-.02.67-.07 1-.49 3.8-3.75 6.75-7.68 6.75s-7.19-2.95-7.68-6.75c-.05-.33-.07-.66-.07-1s.02-.67.07-1c.49-3.8 3.75-6.75 7.68-6.75s7.19 2.95 7.68 6.75c.05.33.07.66.07 1z" fill="#eceff1"/><path d="m23 24c-.256 0-.512-.098-.707-.293l-6.98-6.98c-.391-.391-.391-1.023 0-1.414s1.023-.391 1.414 0l6.98 6.98c.391.391.391 1.023 0 1.414-.195.195-.451.293-.707.293z" fill="#607d8b"/><path d="m2.859 2.859c-1.765 1.766-2.859 4.203-2.859 6.891 0 5.376 4.374 9.75 9.75 9.75 2.329 0 4.469-.821 6.148-2.188l-.585-.585c-.391-.391-.391-1.023 0-1.414l-.088-.088c-1.403 1.404-3.34 2.275-5.475 2.275-3.93 0-7.19-2.95-7.68-6.75-.05-.33-.07-.66-.07-1 0-.34.02-.67.07-1 .224-1.736 1.026-3.294 2.205-4.475z" fill="#546d79"/><path d="m9.459 9.459.211.841.166-.464zm-2.149-.349-.37.99c-.15.39-.52.65-.94.65h-3.93c-.05-.33-.07-.66-.07-1 0 .34.02.67.07 1 .49 3.8 3.75 6.75 7.68 6.75 2.135 0 4.072-.871 5.475-2.275l-3.824-3.824-.961 2.689c-.14.4-.52.66-.94.66h-.05c-.44-.02-.81-.33-.92-.76zm-3.035-4.835c-1.18 1.181-1.981 2.739-2.205 4.475h3.24l.935-2.505z" fill="#cdd0d2"/><path d="m15.313 15.312c-.391.391-.391 1.023 0 1.414l.585.585 6.395 6.395c.195.196.451.294.707.294s.512-.098.707-.293z" fill="#546d79"/><path d="m17.5 9.75c0 .34-.02.67-.07 1h-4.43c-.43 0-.81-.28-.95-.68l-.08-.26-1.53 4.28c-.14.4-.52.66-.94.66h-.05c-.44-.02-.81-.33-.92-.76l-1.22-4.88-.37.99c-.15.39-.52.65-.94.65h-3.93c-.05-.33-.07-.66-.07-1s.02-.67.07-1h3.24l1.25-3.35c.16-.41.56-.67 1-.65.43.03.8.33.91.76l1.2 4.79 1.39-3.89c.14-.39.52-.66.94-.66h.01c.43 0 .8.28.94.68l.77 2.32h3.71c.05.33.07.66.07 1z" fill="#2196f3"/><path d="m7.071 9.75h-5.071c0 .34.02.67.07 1h3.93c.42 0 .79-.26.94-.65zm10.429 0h-7.634l-.196.55-.138-.55h-2.062l1.06 4.24c.11.43.48.74.92.76h.05c.42 0 .8-.26.94-.66l1.53-4.28.08.26c.14.4.52.68.95.68h4.43c.05-.33.07-.66.07-1z" fill="#1d83d4"/></svg>