<svg id="color" enable-background="new 0 0 24 24" height="512" viewBox="0 0 24 24" width="512" xmlns="http://www.w3.org/2000/svg"><path d="m12 10.266-4.017 2.734 1.231-4.862-3.714-3.173 4.778-.27 1.722-4.695 1.722 4.695 4.778.27-3.714 3.173 1.231 4.862z" fill="#ffc107"/><path d="m12 19c-1.103 0-2-.897-2-2s.897-2 2-2 2 .897 2 2-.897 2-2 2z" fill="#2196f3"/><path d="m15.25 24h-6.5c-.414 0-.75-.336-.75-.75v-.833c0-1.333 1.169-2.417 2.607-2.417h2.786c1.438 0 2.607 1.084 2.607 2.417v.833c0 .414-.336.75-.75.75z" fill="#2196f3"/><path d="m12 0-1.722 4.695-4.778.27 3.714 3.173-1.231 4.862 4.017-2.734z" fill="#dea806"/><path d="m12 15c-1.103 0-2 .897-2 2s.897 2 2 2z" fill="#1d83d4"/><path d="m12 20h-1.393c-1.438 0-2.607 1.084-2.607 2.417v.833c0 .414.336.75.75.75h3.25z" fill="#1d83d4"/><path d="m2.5 10.948-1.545 1.052.474-1.87-1.429-1.22 1.838-.104.662-1.806.662 1.806 1.838.104-1.429 1.22.474 1.87z" fill="#ffc107"/><path d="m21.5 10.948-1.545 1.052.474-1.87-1.429-1.22 1.838-.104.662-1.806.662 1.806 1.838.104-1.429 1.22.474 1.87z" fill="#ffc107"/><g fill="#dea806"><path d="m2.5 7-.662 1.806-1.838.104 1.429 1.22-.474 1.87 1.545-1.052z"/><path d="m21.5 7-.662 1.806-1.838.104 1.429 1.22-.474 1.87 1.545-1.052z"/></g></svg>