<svg id="color" enable-background="new 0 0 24 24" height="512" viewBox="0 0 24 24" width="512" xmlns="http://www.w3.org/2000/svg"><g fill="#b0bec5"><path d="m19.425 6.075c-.401 0-.778-.156-1.061-.44-.283-.282-.439-.659-.439-1.06 0-.4.156-.777.439-1.061.564-.566 1.554-.567 2.121 0 .283.283.439.66.439 1.061s-.156.778-.44 1.061c-.282.283-.659.439-1.059.439z"/><path d="m4.575 20.925c-.4 0-.777-.156-1.061-.439s-.439-.66-.439-1.061.156-.778.44-1.061c.566-.565 1.556-.565 2.121.001.283.282.439.659.439 1.06 0 .4-.156.777-.439 1.06-.283.284-.659.44-1.061.44z"/><path d="m22.5 13.5c-.827 0-1.5-.673-1.5-1.5s.673-1.5 1.5-1.5 1.5.673 1.5 1.5-.673 1.5-1.5 1.5z"/><path d="m1.5 13.5c-.827 0-1.5-.673-1.5-1.5s.673-1.5 1.5-1.5 1.5.673 1.5 1.5-.673 1.5-1.5 1.5z"/><path d="m19.425 20.925c-.401 0-.778-.156-1.061-.44-.283-.283-.439-.66-.439-1.06 0-.401.156-.778.44-1.061.563-.565 1.554-.566 2.121 0 .283.283.439.659.439 1.061 0 .4-.156.777-.439 1.061s-.661.439-1.061.439z"/><path d="m4.575 6.075c-.4 0-.777-.156-1.06-.439-.284-.283-.44-.66-.44-1.061 0-.4.156-.777.439-1.061.567-.566 1.556-.566 2.122 0 .283.283.439.66.439 1.06 0 .401-.156.778-.44 1.061-.282.284-.658.44-1.06.44z"/><path d="m16.596 8.154c-.192 0-.384-.073-.53-.22-.293-.293-.293-.768 0-1.061l2.121-2.121c.293-.293.768-.293 1.061 0s.293.768 0 1.061l-2.121 2.121c-.147.147-.339.22-.531.22z"/><path d="m5.283 19.467c-.192 0-.384-.073-.53-.22-.293-.293-.293-.768 0-1.061l2.121-2.121c.293-.293.768-.293 1.061 0s.293.768 0 1.061l-2.121 2.121c-.147.147-.339.22-.531.22z"/><path d="m21.5 12.75h-3c-.414 0-.75-.336-.75-.75s.336-.75.75-.75h3c.414 0 .75.336.75.75s-.336.75-.75.75z"/><path d="m5.5 12.75h-3c-.414 0-.75-.336-.75-.75s.336-.75.75-.75h3c.414 0 .75.336.75.75s-.336.75-.75.75z"/><path d="m18.717 19.467c-.192 0-.384-.073-.53-.22l-2.121-2.121c-.293-.293-.293-.768 0-1.061s.768-.293 1.061 0l2.121 2.121c.293.293.293.768 0 1.061-.147.147-.339.22-.531.22z"/><path d="m7.404 8.154c-.192 0-.384-.073-.53-.22l-2.122-2.121c-.293-.293-.293-.768 0-1.061s.768-.293 1.061 0l2.121 2.121c.293.293.293.768 0 1.061-.146.147-.338.22-.53.22z"/><path d="m12 3c-.827 0-1.5-.673-1.5-1.5s.673-1.5 1.5-1.5 1.5.673 1.5 1.5-.673 1.5-1.5 1.5z"/><path d="m12 24c-.827 0-1.5-.673-1.5-1.5s.673-1.5 1.5-1.5 1.5.673 1.5 1.5-.673 1.5-1.5 1.5z"/><path d="m12 6.25c-.414 0-.75-.336-.75-.75v-3c0-.414.336-.75.75-.75s.75.336.75.75v3c0 .414-.336.75-.75.75z"/><path d="m12 22.25c-.414 0-.75-.336-.75-.75v-3c0-.414.336-.75.75-.75s.75.336.75.75v3c0 .414-.336.75-.75.75z"/></g><path d="m12 19c-3.86 0-7-3.14-7-7s3.14-7 7-7 7 3.14 7 7-3.14 7-7 7z" fill="#2196f3"/><path d="m12 11.5c-.827 0-1.5-.673-1.5-1.5s.673-1.5 1.5-1.5 1.5.673 1.5 1.5-.673 1.5-1.5 1.5z" fill="#fff"/><path d="m14.25 15.5h-4.5c-.414 0-.75-.336-.75-.75v-.375c0-1.034.942-1.875 2.1-1.875h1.8c1.158 0 2.1.841 2.1 1.875v.375c0 .414-.336.75-.75.75z" fill="#fff"/><path d="m12 0c-.827 0-1.5.673-1.5 1.5 0 .554.302 1.039.75 1.299v-.299c0-.414.336-.75.75-.75z" fill="#99a5ac"/><path d="m11.25 21.201c-.448.26-.75.745-.75 1.299 0 .827.673 1.5 1.5 1.5v-1.75c-.414 0-.75-.336-.75-.75z" fill="#99a5ac"/><path d="m12 1.75c-.414 0-.75.336-.75.75v.299 2.241c.246-.026.497-.04.75-.04z" fill="#99a5ac"/><path d="m11.25 18.96v2.241.299c0 .414.336.75.75.75v-3.25c-.253 0-.504-.014-.75-.04z" fill="#99a5ac"/><path d="m12 5c-.253 0-.504.014-.75.04-3.509.375-6.25 3.353-6.25 6.96s2.741 6.585 6.25 6.96c.246.026.497.04.75.04v-3.5h-2.25c-.414 0-.75-.336-.75-.75v-.375c0-1.034.942-1.875 2.1-1.875h.9v-1c-.827 0-1.5-.673-1.5-1.5s.673-1.5 1.5-1.5z" fill="#1d83d4"/><path d="m12 8.5c-.827 0-1.5.673-1.5 1.5s.673 1.5 1.5 1.5z" fill="#dedede"/><path d="m12 12.5h-.9c-1.158 0-2.1.841-2.1 1.875v.375c0 .414.336.75.75.75h2.25z" fill="#dedede"/><path d="m0 12c0 .827.673 1.5 1.5 1.5.554 0 1.039-.302 1.299-.75h-.299c-.414 0-.75-.336-.75-.75z" fill="#99a5ac"/><path d="m21.201 12.75c.26.448.745.75 1.299.75.827 0 1.5-.673 1.5-1.5h-1.75c0 .414-.336.75-.75.75z" fill="#99a5ac"/><path d="m1.75 12c0 .414.336.75.75.75h.299 2.241c-.026-.246-.04-.497-.04-.75z" fill="#99a5ac"/><path d="m18.96 12.75h2.241.299c.414 0 .75-.336.75-.75h-3.25c0 .253-.014.504-.04.75z" fill="#99a5ac"/><path d="m20.485 3.515c-.585-.585-1.536-.585-2.121 0-.392.392-.521.948-.388 1.449l.211-.211c.293-.293.768-.293 1.061 0z" fill="#99a5ac"/><path d="m4.963 17.976c-.5-.133-1.057-.004-1.449.388-.585.585-.585 1.536 0 2.121l1.237-1.237c-.293-.293-.293-.768 0-1.061z" fill="#99a5ac"/><path d="m19.248 4.752c-.293-.293-.768-.293-1.061 0l-.211.211-1.585 1.585c.193.156.379.323.559.502z" fill="#99a5ac"/><path d="m6.548 16.391-1.585 1.585-.211.211c-.293.293-.293.768 0 1.061l2.298-2.298c-.179-.179-.346-.366-.502-.559z" fill="#99a5ac"/><path d="m3.515 3.515c-.585.585-.585 1.536 0 2.121.392.392.948.521 1.449.388l-.212-.211c-.293-.293-.293-.768 0-1.061z" fill="#99a5ac"/><path d="m17.976 19.037c-.133.5-.004 1.057.388 1.449.585.585 1.536.585 2.121 0l-1.237-1.237c-.293.293-.768.293-1.061 0z" fill="#99a5ac"/><path d="m4.752 4.752c-.293.293-.293.768 0 1.061l.211.211 1.585 1.585c.156-.193.323-.38.502-.559z" fill="#99a5ac"/><path d="m16.391 17.452 1.585 1.585.211.211c.293.293.768.293 1.061 0l-2.298-2.298c-.179.179-.366.346-.559.502z" fill="#99a5ac"/></svg>