<svg id="color" enable-background="new 0 0 24 24" height="512" viewBox="0 0 24 24" width="512" xmlns="http://www.w3.org/2000/svg"><path d="m12 14.25c-.552 0-1-.448-1-1v-.241c0-1.046.52-2.045 1.425-2.74.204-.156.325-.413.325-.686 0-.459-.336-.834-.75-.834s-.75.374-.75.834c0 .552-.448 1-1 1s-1-.448-1-1c0-1.563 1.233-2.834 2.75-2.834s2.75 1.271 2.75 2.834c0 .89-.414 1.74-1.107 2.272-.241.186-.643.58-.643 1.154v.241c0 .552-.448 1-1 1z" fill="#607d8b"/><path d="m13 16.25c0 .552-.448 1-1 1s-1-.448-1-1 .448-1 1-1 1 .448 1 1z" fill="#607d8b"/><path d="m12 10.646c-.641.657-1 1.493-1 2.363v.241c0 .552.448 1 1 1zm0-3.896c-1.517 0-2.75 1.271-2.75 2.834 0 .552.448 1 1 1s1-.448 1-1c0-.459.336-.834.75-.834z" fill="#546d79"/><path d="m12 15.25c-.552 0-1 .448-1 1s.448 1 1 1z" fill="#546d79"/><g fill="#2196f3"><path d="m20 4c-1.103 0-2-.897-2-2s.897-2 2-2 2 .897 2 2-.897 2-2 2z"/><path d="m23.25 9h-6.5c-.414 0-.75-.336-.75-.75v-.833c0-1.333 1.169-2.417 2.607-2.417h2.786c1.438 0 2.607 1.084 2.607 2.417v.833c0 .414-.336.75-.75.75z"/><path d="m4 19c-1.103 0-2-.897-2-2s.897-2 2-2 2 .897 2 2-.897 2-2 2z"/><path d="m7.25 24h-6.5c-.414 0-.75-.336-.75-.75v-.834c0-1.332 1.169-2.416 2.607-2.416h2.786c1.438 0 2.607 1.084 2.607 2.417v.834c0 .413-.336.749-.75.749z"/></g><path d="m4 15c-1.103 0-2 .897-2 2s.897 2 2 2z" fill="#1d83d4"/><path d="m4 20h-1.393c-1.438 0-2.607 1.084-2.607 2.417v.834c0 .413.336.749.75.749h3.25z" fill="#1d83d4"/><path d="m20 0c-1.103 0-2 .897-2 2s.897 2 2 2z" fill="#1d83d4"/><path d="m20 5h-1.393c-1.438 0-2.607 1.084-2.607 2.417v.833c0 .414.336.75.75.75h3.25z" fill="#1d83d4"/><path d="m10.75 0c.286 0 .565.123.759.349l1.5 1.75c.321.375.321.927 0 1.302l-1.5 1.75c-.272.318-.714.434-1.106.287-.392-.146-.653-.52-.653-.938v-3.5c0-.418.261-.792.653-.938.113-.042.231-.062.347-.062z" fill="#b0bec5"/><path d="m3.75 12c-.552 0-1-.448-1-1v-6.25c0-1.654 1.346-3 3-3h6c.552 0 1 .448 1 1s-.448 1-1 1h-6c-.551 0-1 .449-1 1v6.25c0 .552-.448 1-1 1z" fill="#b0bec5"/><path d="m10.75 0c-.116 0-.234.02-.347.062-.392.146-.653.52-.653.938v.75h2c.552 0 1 .448 1 1h.5c0-.232-.08-.464-.241-.651l-1.5-1.75c-.194-.226-.473-.349-.759-.349z" fill="#99a5ac"/><path d="m11.75 1.75h-2-4c-1.654 0-3 1.346-3 3v6.25c0 .552.448 1 1 1v-7.25c0-1.104.896-2 2-2h7c0-.552-.448-1-1-1z" fill="#99a5ac"/><path d="m18.25 22.25h-6c-.552 0-1-.448-1-1s.448-1 1-1h6c.551 0 1-.449 1-1v-6.25c0-.552.448-1 1-1s1 .448 1 1v6.25c0 1.654-1.346 3-3 3z" fill="#b0bec5"/><path d="m13.25 24c-.286 0-.565-.123-.759-.349l-1.5-1.75c-.321-.375-.321-.927 0-1.302l1.5-1.75c.272-.318.714-.434 1.106-.287.392.146.653.52.653.938v3.5c0 .418-.261.792-.653.938-.113.042-.231.062-.347.062z" fill="#b0bec5"/><path d="m20.25 12v7.25c0 1.104-.896 2-2 2h-4v1h4c1.654 0 3-1.346 3-3v-6.25c0-.552-.448-1-1-1z" fill="#99a5ac"/><path d="m14.25 21.25h-3.5c0 .232.08.464.241.651l1.5 1.75c.194.226.473.349.759.349.116 0 .234-.02.347-.062.392-.145.653-.52.653-.938v-.75z" fill="#99a5ac"/></svg>