<svg id="color" enable-background="new 0 0 24 24" height="512" viewBox="0 0 24 24" width="512" xmlns="http://www.w3.org/2000/svg"><path d="m12 22.25c-5.652 0-10.25-4.598-10.25-10.25s4.598-10.25 10.25-10.25 10.25 4.598 10.25 10.25-4.598 10.25-10.25 10.25z" fill="#64b5f6"/><circle cx="12" cy="12" fill="#eceff1" r="8.25"/><path d="m12 1.75c-5.652 0-10.25 4.598-10.25 10.25s4.598 10.25 10.25 10.25v-2c-4.549 0-8.25-3.701-8.25-8.25s3.701-8.25 8.25-8.25z" fill="#579ed6"/><path d="m12 3.75c-4.549 0-8.25 3.701-8.25 8.25s3.701 8.25 8.25 8.25z" fill="#cdd0d2"/><g fill="#2196f3"><path d="m12 24c-.553 0-1-.448-1-1v-2.391c0-.552.447-1 1-1s1 .448 1 1v2.391c0 .552-.447 1-1 1z"/><path d="m12 4.391c-.553 0-1-.448-1-1v-2.391c0-.552.447-1 1-1s1 .448 1 1v2.391c0 .552-.447 1-1 1z"/><path d="m3.392 13h-2.392c-.553 0-1-.448-1-1s.447-1 1-1h2.392c.553 0 1 .448 1 1s-.448 1-1 1z"/><path d="m23 13h-2.392c-.553 0-1-.448-1-1s.447-1 1-1h2.392c.553 0 1 .448 1 1s-.447 1-1 1z"/></g><path d="m12 19.609c-.407 0-.757.243-.913.591-.056.125-.087.263-.087.409v1.593.798c0 .552.447 1 1 1z" fill="#1d83d4"/><path d="m12 0c-.553 0-1 .448-1 1v.798 1.593c0 .146.031.284.087.409.156.348.506.591.913.591z" fill="#1d83d4"/><path d="m19.609 12c0 .407.243.757.591.913.125.056.263.087.409.087h1.593.798c.552 0 1-.447 1-1z" fill="#1d83d4"/><path d="m0 12c0 .553.448 1 1 1h.798 1.593c.146 0 .284-.031.409-.087.349-.156.591-.506.591-.913z" fill="#1d83d4"/><path d="m12 11c-1.102 0-2-.897-2-2s.897-2 2-2 2 .897 2 2-.897 2-2 2z" fill="#607d8b"/><path d="m15.25 17h-6.5c-.414 0-.75-.336-.75-.75v-1c0-1.517 1.233-2.75 2.75-2.75h2.5c1.517 0 2.75 1.233 2.75 2.75v1c0 .414-.336.75-.75.75z" fill="#607d8b"/><path d="m12 7c-1.102 0-2 .897-2 2s.897 2 2 2z" fill="#546d79"/><path d="m12 12.5h-1.25c-1.517 0-2.75 1.233-2.75 2.75v1c0 .414.336.75.75.75h3.25z" fill="#546d79"/></svg>