<svg id="color" enable-background="new 0 0 24 24" height="512" viewBox="0 0 24 24" width="512" xmlns="http://www.w3.org/2000/svg"><g fill="#b0bec5"><path d="m16.25 24c-.286 0-.565-.123-.759-.349l-1.5-1.75c-.321-.375-.321-.927 0-1.302l1.5-1.75c.272-.318.714-.434 1.106-.287.392.146.653.52.653.938v3.5c0 .418-.261.792-.653.938-.113.042-.231.062-.347.062z"/><path d="m18.25 22.25h-3c-.552 0-1-.448-1-1s.448-1 1-1h3c.551 0 1-.449 1-1v-6.25c0-.552.448-1 1-1s1 .448 1 1v6.25c0 1.654-1.346 3-3 3z"/><path d="m10.75 0c.286 0 .565.123.759.349l1.5 1.75c.321.375.321.927 0 1.302l-1.5 1.75c-.272.318-.714.434-1.106.287-.392-.146-.653-.52-.653-.938v-3.5c0-.418.261-.792.653-.938.113-.042.231-.062.347-.062z"/><path d="m3.75 9.5c-.552 0-1-.448-1-1v-3.75c0-1.654 1.346-3 3-3h6c.552 0 1 .448 1 1s-.448 1-1 1h-6c-.551 0-1 .449-1 1v3.75c0 .552-.448 1-1 1z"/></g><path d="m6 24c-3.309 0-6-2.691-6-6s2.691-6 6-6 6 2.691 6 6-2.691 6-6 6z" fill="#ffc107"/><path d="m6 22.25c-.552 0-1-.448-1-1v-.929c0-.552.448-1 1-1s1 .448 1 1v.929c0 .552-.448 1-1 1z" fill="#fff"/><path d="m6.208 21.321h-1.458c-.552 0-1-.448-1-1s.448-1 1-1h1.458c-.004-.005.042-.061.042-.16s-.046-.156-.063-.165l-.395.004c-1.125 0-2.042-.969-2.042-2.161 0-1.191.916-2.161 2.042-2.161h1.458c.552 0 1 .448 1 1s-.448 1-1 1h-1.458c.005.005-.042.062-.042.161s.046.156.063.165l.395-.004c1.125 0 2.042.969 2.042 2.161 0 1.191-.916 2.16-2.042 2.16z" fill="#fff"/><path d="m6 16.679c-.552 0-1-.448-1-1v-.929c0-.552.448-1 1-1s1 .448 1 1v.929c0 .552-.448 1-1 1z" fill="#fff"/><path d="m6 16.679h-.208c.005.005-.042.062-.042.161s.046.156.063.165l.187-.003zm0-4.679c-3.309 0-6 2.691-6 6s2.691 6 6 6v-1.75c-.528 0-.961-.41-.997-.929h-.253c-.552 0-1-.448-1-1s.448-1 1-1h1.25v-.324l-.208.003c-1.125 0-2.042-.969-2.042-2.161 0-.895.516-1.664 1.25-1.992v-.097c0-.552.448-1 1-1z" fill="#dea806"/><path d="m6 21.321h-.997c.036.519.469.929.997.929z" fill="#dedede"/><path d="m6 19.321h-1.25c-.552 0-1 .448-1 1s.448 1 1 1h.253.997zm-1-4.473c-.734.328-1.25 1.097-1.25 1.992 0 1.191.916 2.16 2.042 2.16l.208-.002v-1.995l-.187.002c-.017-.009-.063-.066-.063-.165s.046-.156.042-.161h.208c-.552 0-1-.448-1-1z" fill="#dedede"/><path d="m6 13.75c-.552 0-1 .448-1 1v.098.831c0 .552.448 1 1 1z" fill="#dedede"/><path d="m20 4c-1.103 0-2-.897-2-2s.897-2 2-2 2 .897 2 2-.897 2-2 2z" fill="#2196f3"/><path d="m23.25 9h-6.5c-.414 0-.75-.336-.75-.75v-.833c0-1.333 1.169-2.417 2.607-2.417h2.786c1.438 0 2.607 1.084 2.607 2.417v.833c0 .414-.336.75-.75.75z" fill="#2196f3"/><path d="m20 0c-1.103 0-2 .897-2 2s.897 2 2 2z" fill="#1d83d4"/><path d="m20 5h-1.393c-1.438 0-2.607 1.084-2.607 2.417v.833c0 .414.336.75.75.75h3.25z" fill="#1d83d4"/><path d="m10.75 0c-.116 0-.234.02-.347.062-.392.146-.653.52-.653.938v.75h2c.552 0 1 .448 1 1h.5c0-.232-.08-.464-.241-.651l-1.5-1.75c-.194-.226-.473-.349-.759-.349z" fill="#99a5ac"/><path d="m11.75 1.75h-2-4c-1.654 0-3 1.346-3 3v3.75c0 .552.448 1 1 1v-4.75c0-1.104.896-2 2-2h7c0-.552-.448-1-1-1z" fill="#99a5ac"/><path d="m20.25 12v7.25c0 1.104-.896 2-2 2h-1v1h1c1.654 0 3-1.346 3-3v-6.25c0-.552-.448-1-1-1z" fill="#99a5ac"/><path d="m17.25 21.25h-3.5c0 .232.08.464.241.651l1.5 1.75c.194.226.473.349.759.349.116 0 .234-.02.347-.062.392-.145.653-.52.653-.938v-.75z" fill="#99a5ac"/></svg>