<svg id="color" enable-background="new 0 0 24 24" height="512" viewBox="0 0 24 24" width="512" xmlns="http://www.w3.org/2000/svg"><path d="m7 15c-1.93 0-3.5-1.57-3.5-3.5s1.57-3.5 3.5-3.5 3.5 1.57 3.5 3.5-1.57 3.5-3.5 3.5z" fill="#607d8b"/><path d="m10.27 17h-6.52c-2.068 0-3.75 1.682-3.75 3.75v2.5c0 .414.336.75.75.75h12.52c.414 0 .75-.336.75-.75v-2.5c0-2.068-1.682-3.75-3.75-3.75z" fill="#607d8b"/><path d="m7 8c-1.93 0-3.5 1.57-3.5 3.5s1.57 3.5 3.5 3.5z" fill="#546d79"/><path d="m7 17h-3.25c-2.068 0-3.75 1.682-3.75 3.75v2.5c0 .414.336.75.75.75h6.25z" fill="#546d79"/><path d="m18.5 11c-3.033 0-5.5-2.467-5.5-5.5s2.467-5.5 5.5-5.5 5.5 2.467 5.5 5.5-2.467 5.5-5.5 5.5z" fill="#4caf50"/><path d="m18.5 24c-3.033 0-5.5-2.467-5.5-5.5s2.467-5.5 5.5-5.5 5.5 2.467 5.5 5.5-2.467 5.5-5.5 5.5z" fill="#4caf50"/><g fill="#fff"><path d="m20.25 6h-3.5c-.314 0-.595-.195-.704-.49-.109-.294-.023-.625.215-.83l1.75-1.5c.281-.241.695-.241.977 0l1.75 1.5c.238.204.324.535.215.83-.108.295-.389.49-.703.49z"/><path d="m18.5 8c-.414 0-.75-.336-.75-.75v-3.25c0-.414.336-.75.75-.75s.75.336.75.75v3.25c0 .414-.336.75-.75.75z"/><path d="m18.5 21c-.174 0-.348-.06-.488-.181l-1.75-1.5c-.238-.204-.324-.535-.215-.83.109-.294.39-.49.704-.49h3.5c.314 0 .595.195.704.49.109.294.023.625-.215.83l-1.75 1.5c-.142.121-.316.181-.49.181z"/><path d="m18.5 20.75c-.414 0-.75-.336-.75-.75v-3.25c0-.414.336-.75.75-.75s.75.336.75.75v3.25c0 .414-.336.75-.75.75z"/></g><path d="m18.5 0c-3.033 0-5.5 2.467-5.5 5.5s2.467 5.5 5.5 5.5v-3c-.414 0-.75-.336-.75-.75v-1.25h-1c-.314 0-.595-.195-.704-.49-.109-.294-.023-.625.215-.83l1.75-1.5c.141-.12.315-.18.489-.18z" fill="#429846"/><path d="m18.5 13c-3.033 0-5.5 2.467-5.5 5.5s2.467 5.5 5.5 5.5v-3c-.174 0-.348-.06-.488-.181l-1.75-1.5c-.238-.204-.324-.535-.215-.83.109-.294.39-.49.704-.49h1v-1.25c0-.414.336-.75.75-.75v-2.999z" fill="#429846"/><path d="m18.5 3c-.174 0-.348.06-.488.181l-1.75 1.5c-.238.204-.324.535-.215.83.108.294.389.489.703.489h1v-2c0-.414.336-.75.75-.75z" fill="#dedede"/><path d="m18.5 3.25c-.414 0-.75.336-.75.75v2 1.25c0 .414.336.75.75.75z" fill="#dedede"/><path d="m17.75 18h-1c-.314 0-.595.195-.704.49-.109.294-.023.625.215.83l1.75 1.5c.141.12.315.18.489.18v-.25c-.414 0-.75-.336-.75-.75z" fill="#dedede"/><path d="m18.5 16c-.414 0-.75.336-.75.75v1.25 2c0 .414.336.75.75.75z" fill="#dedede"/></svg>