<svg id="color" enable-background="new 0 0 24 24" height="512" viewBox="0 0 24 24" width="512" xmlns="http://www.w3.org/2000/svg"><path d="m17.3 7.7c-.256 0-.512-.098-.707-.293-.391-.391-.391-1.023 0-1.414l2.79-2.79c.391-.391 1.023-.391 1.414 0s.391 1.023 0 1.414l-2.79 2.79c-.195.196-.451.293-.707.293z" fill="#90caf9"/><path d="m20.09 21.09c-.256 0-.512-.098-.707-.293l-2.79-2.79c-.391-.391-.391-1.023 0-1.414s1.023-.391 1.414 0l2.79 2.79c.391.391.391 1.023 0 1.414-.195.195-.451.293-.707.293z" fill="#90caf9"/><path d="m19.732 4.268c-.977-.976-.977-2.559 0-3.535.943-.944 2.592-.944 3.535 0 .978.977.978 2.558 0 3.535-.977.978-2.557.978-3.535 0z" fill="#2196f3"/><path d="m19.732 23.268c-.978-.977-.978-2.558 0-3.535.943-.944 2.592-.944 3.535 0 .977.976.977 2.559 0 3.535-.977.978-2.557.978-3.535 0z" fill="#2196f3"/><path d="m3.74 21.26c-.256 0-.512-.098-.707-.293-.391-.391-.391-1.023 0-1.414l2.96-2.96c.391-.391 1.023-.391 1.414 0s.391 1.023 0 1.414l-2.96 2.96c-.195.195-.451.293-.707.293z" fill="#90caf9"/><path d="m6.7 7.7c-.256 0-.512-.098-.707-.293l-2.96-2.96c-.391-.391-.391-1.023 0-1.414s1.023-.391 1.414 0l2.96 2.96c.391.391.391 1.023 0 1.414-.195.196-.451.293-.707.293z" fill="#90caf9"/><path d="m12 20.25c-4.549 0-8.25-3.701-8.25-8.25s3.701-8.25 8.25-8.25 8.25 3.701 8.25 8.25-3.701 8.25-8.25 8.25z" fill="#eceff1"/><path d="m19.726 14.866c-1.008-.415-2.179-.744-3.461-.97.045-.612.072-1.244.072-1.896 0-.641-.026-1.26-.07-1.862 1.288-.246 2.454-.605 3.44-1.057-.187-.49-.417-.957-.689-1.397-.815.399-1.806.718-2.91.946-.241-1.72-.665-3.205-1.223-4.349-.778-.291-1.609-.467-2.477-.51.906.449 1.806 2.341 2.208 5.099-.839.102-1.716.16-2.616.16s-1.777-.059-2.616-.161c.403-2.758 1.302-4.65 2.208-5.099-.868.043-1.699.219-2.477.51-.557 1.145-.982 2.63-1.222 4.35-1.104-.228-2.095-.546-2.91-.946-.273.44-.504.907-.69 1.397.986.452 2.152.812 3.44 1.057-.044.602-.07 1.221-.07 1.862 0 .652.027 1.284.072 1.896-1.282.226-2.454.555-3.461.97.184.494.413.965.684 1.409.84-.369 1.833-.668 2.939-.877.241 1.708.665 3.184 1.219 4.322.778.292 1.609.467 2.478.51-.902-.445-1.796-2.317-2.203-5.05.839-.095 1.713-.15 2.609-.15s1.77.055 2.609.149c-.406 2.733-1.301 4.605-2.203 5.05.868-.043 1.7-.218 2.478-.51.555-1.138.978-2.613 1.219-4.322 1.106.21 2.099.508 2.939.877.271-.443.5-.914.684-1.408zm-4.951-1.181c-.899-.098-1.827-.155-2.775-.155s-1.876.057-2.775.155c-.039-.539-.062-1.101-.062-1.685 0-.567.022-1.112.06-1.637.897.106 1.827.167 2.777.167s1.88-.061 2.778-.167c.037.524.059 1.069.059 1.637 0 .584-.023 1.146-.062 1.685z" fill="#b0bec5"/><path d="m5.505 17.081-2.472 2.472c-.391.391-.391 1.023 0 1.414.195.195.451.293.707.293s.512-.098.707-.293l2.472-2.472c-.527-.412-1.002-.888-1.414-1.414z" fill="#7db0d9"/><path d="m3.74 2.74c-.256 0-.512.098-.707.293-.391.391-.391 1.023 0 1.414l2.472 2.472c.413-.526.888-1.001 1.414-1.414l-2.472-2.472c-.195-.195-.451-.293-.707-.293z" fill="#7db0d9"/><path d="m9.223 10.363c-.038.524-.06 1.069-.06 1.637 0 .584.022 1.146.062 1.685.898-.098 1.827-.155 2.775-.155v-3c-.95 0-1.88-.061-2.777-.167zm2.777-6.613c-1.915 0-3.68.656-5.081 1.755-.526.412-1.002.888-1.414 1.414-1.099 1.401-1.755 3.166-1.755 5.081s.656 3.68 1.755 5.081c.413.526.888 1.001 1.414 1.414 1.401 1.099 3.166 1.755 5.081 1.755v-5.22c-.897 0-1.77.055-2.609.149.406 2.733 1.301 4.605 2.203 5.05-.868-.043-1.7-.218-2.478-.51-.555-1.138-.978-2.613-1.219-4.322-1.106.21-2.099.508-2.939.877-.27-.444-.499-.915-.684-1.409 1.008-.415 2.179-.744 3.461-.97-.045-.611-.072-1.243-.072-1.895 0-.641.026-1.26.07-1.862-1.287-.245-2.453-.605-3.44-1.057.186-.49.417-.957.689-1.397.815.399 1.806.718 2.91.946.241-1.72.665-3.205 1.223-4.349.778-.291 1.609-.467 2.477-.51-.906.448-1.805 2.34-2.208 5.099.839.102 1.716.16 2.616.16z" fill="#cdd0d2"/><path d="m11.592 3.77c-.868.043-1.699.219-2.477.51-.557 1.145-.982 2.63-1.222 4.35-1.104-.228-2.095-.546-2.91-.946-.273.44-.504.907-.69 1.397.986.452 2.152.812 3.44 1.057-.044.602-.07 1.221-.07 1.862 0 .652.027 1.284.072 1.896-1.282.226-2.454.555-3.461.97.184.494.413.965.684 1.409.84-.369 1.833-.668 2.939-.877.241 1.708.665 3.184 1.219 4.322.778.292 1.609.467 2.478.51-.902-.445-1.796-2.317-2.203-5.05.839-.095 1.713-.15 2.609-.15v-1.5c-.948 0-1.876.057-2.775.155-.039-.539-.062-1.101-.062-1.685 0-.567.022-1.112.06-1.637.897.106 1.827.167 2.777.167v-1.5c-.9 0-1.777-.059-2.616-.161.403-2.758 1.302-4.65 2.208-5.099z" fill="#99a5ac"/><path d="m.732 23.268c-.977-.976-.977-2.559 0-3.535.943-.944 2.592-.944 3.535 0 .978.977.978 2.558 0 3.535-.977.978-2.557.978-3.535 0z" fill="#2196f3"/><path d="m.732 4.268c-.978-.977-.978-2.558 0-3.535.943-.944 2.592-.944 3.535 0 .977.976.977 2.559 0 3.535-.976.978-2.558.978-3.535 0z" fill="#2196f3"/><g fill="#1d83d4"><path d="m2.5.024c-.648 0-1.296.236-1.767.708-.978.977-.978 2.558 0 3.535.488.489 1.127.734 1.767.734z"/><path d="m2.5 19.023c-.648 0-1.296.236-1.767.708-.978.977-.978 2.558 0 3.535.488.489 1.127.734 1.767.734z"/><path d="m21.5.024c-.648 0-1.296.236-1.767.708-.978.977-.978 2.558 0 3.535.488.489 1.128.733 1.767.734z"/><path d="m21.5 19.023c-.648 0-1.296.236-1.767.708-.978.977-.978 2.558 0 3.535.488.489 1.128.734 1.767.734z"/></g></svg>