<svg id="color" enable-background="new 0 0 24 24" height="512" viewBox="0 0 24 24" width="512" xmlns="http://www.w3.org/2000/svg"><path d="m12 0c-6.617 0-12 5.383-12 12s5.383 12 12 12 12-5.383 12-12-5.383-12-12-12zm8.4 17.406c-.801-.38-1.702-.7-2.677-.956.208-1.08.341-2.242.387-3.469h3.841c-.16 1.621-.711 3.124-1.551 4.425zm-18.35-4.424h3.841c.046 1.227.179 2.389.387 3.469-.975.255-1.876.575-2.677.956-.841-1.302-1.393-2.805-1.551-4.425zm1.55-6.388c.801.38 1.702.7 2.677.956-.206 1.069-.338 2.219-.386 3.433h-3.839c.163-1.607.714-3.098 1.548-4.389zm9.4 1.636c.947-.038 1.875-.125 2.765-.266.178.925.298 1.937.345 3.018h-3.11zm0-1.999v-3.88c.857.579 1.677 1.864 2.264 3.667-.729.108-1.487.179-2.264.213zm-2-3.88v3.88c-.777-.034-1.535-.105-2.264-.213.587-1.804 1.407-3.089 2.264-3.667zm0 5.879v2.752h-3.11c.048-1.081.167-2.092.345-3.018.89.141 1.818.228 2.765.266zm-3.111 4.752h3.111v2.788c-.947.038-1.876.125-2.765.266-.18-.935-.299-1.96-.346-3.054zm3.111 4.787v3.88c-.857-.579-1.677-1.864-2.264-3.667.729-.108 1.487-.179 2.264-.213zm2 3.88v-3.88c.777.034 1.535.105 2.264.213-.587 1.804-1.407 3.089-2.264 3.667zm0-5.879v-2.788h3.111c-.046 1.094-.166 2.119-.346 3.054-.89-.141-1.818-.228-2.765-.266zm5.109-4.788c-.048-1.214-.181-2.363-.386-3.433.975-.255 1.876-.575 2.677-.956.834 1.292 1.385 2.782 1.548 4.388h-3.839zm1.005-5.999c-.574.243-1.202.454-1.873.631-.321-1.037-.718-1.961-1.183-2.745 1.149.512 2.184 1.23 3.056 2.114zm-11.173-2.114c-.464.784-.861 1.708-1.182 2.745-.672-.177-1.299-.388-1.873-.631.872-.884 1.907-1.602 3.055-2.114zm-3.055 16.148c.574-.243 1.201-.454 1.873-.631.321 1.037.718 1.961 1.183 2.745-1.149-.512-2.184-1.23-3.056-2.114zm11.173 2.114c.464-.784.862-1.708 1.183-2.745.671.177 1.299.388 1.873.631-.873.884-1.908 1.602-3.056 2.114z" fill="#cfd8dc"/><path d="m7.941 21.131c-1.148-.512-2.184-1.23-3.055-2.114.574-.243 1.201-.454 1.873-.631.321 1.037.718 1.961 1.182 2.745zm3.059.518c-.857-.579-1.677-1.864-2.264-3.667.729-.108 1.487-.18 2.264-.213zm-7.4-4.243c-.84-1.301-1.392-2.805-1.55-4.424h3.841c.046 1.227.179 2.389.387 3.469-.976.255-1.877.575-2.678.955zm4.635-1.37c-.18-.935-.3-1.959-.346-3.054h3.111v2.788c-.947.038-1.875.125-2.765.266zm-.345-5.054c.048-1.081.167-2.092.345-3.018.89.141 1.818.228 2.765.266v2.752zm-5.838 0c.163-1.606.714-3.097 1.548-4.388.801.38 1.702.7 2.677.956-.206 1.069-.338 2.219-.386 3.433h-3.839zm4.707-5.368c-.672-.177-1.299-.388-1.873-.631.872-.884 1.907-1.602 3.055-2.114-.464.784-.861 1.708-1.182 2.745zm4.241.617c-.777-.034-1.535-.105-2.264-.213.587-1.804 1.407-3.089 2.264-3.667zm1-6.231c-6.617 0-12 5.383-12 12s5.383 12 12 12z" fill="#b4bcc0"/><g fill="#2196f3"><path d="m18.25 21.75h-2.5c-.414 0-.5-.336-.5-.75s.086-.75.5-.75h2.5c.414 0 .75.336.75.75s-.336.75-.75.75z"/><path d="m18.25 24h-1.5c-.965 0-1.75-.785-1.75-1.75v-2.5c0-.965.785-1.75 1.75-1.75h1.5c.414 0 .75.336.75.75s-.336.75-.75.75h-1.5c-.138 0-.25.112-.25.25v2.5c0 .138.112.25.25.25h1.5c.414 0 .75.336.75.75s-.336.75-.75.75z"/><path d="m22.25 24h-.5c-.965 0-1.75-.785-1.75-1.75v-2.5c0-.965.785-1.75 1.75-1.75h.5c.965 0 1.75.785 1.75 1.75v2.5c0 .965-.785 1.75-1.75 1.75zm-.5-4.5c-.138 0-.25.112-.25.25v2.5c0 .138.112.25.25.25h.5c.138 0 .25-.112.25-.25v-2.5c0-.138-.112-.25-.25-.25z"/><path d="m12.208 24h-1.458c-.414 0-.75-.336-.75-.75s.336-.75.75-.75h1.458c.158 0 .292-.172.292-.375s-.133-.375-.292-.375h-.417c-.988 0-1.792-.841-1.792-1.875.001-1.034.805-1.875 1.793-1.875h1.458c.414 0 .75.336.75.75s-.336.75-.75.75h-1.458c-.158 0-.292.172-.292.375s.133.375.292.375h.417c.988 0 1.792.841 1.792 1.875-.001 1.034-.805 1.875-1.793 1.875z"/></g><path d="m19 21h-2.5v.75h1.75c.414 0 .75-.336.75-.75z" fill="#1d83d4"/><path d="m16.5 21h-1.5v1.25c0 .965.785 1.75 1.75 1.75h1.5c.414 0 .75-.336.75-.75s-.336-.75-.75-.75h-1.5c-.138 0-.25-.112-.25-.25v-.5z" fill="#1d83d4"/><path d="m24 21h-1.5v1.25c0 .138-.112.25-.25.25h-.5c-.138 0-.25-.112-.25-.25v-1.25h-1.5v1.25c0 .965.785 1.75 1.75 1.75h.5c.965 0 1.75-.785 1.75-1.75z" fill="#1d83d4"/><path d="m13.641 21h-3.282c.327.455.847.75 1.432.75h.417c.158 0 .292.172.292.375s-.133.375-.292.375h-1.458c-.414 0-.75.336-.75.75s.336.75.75.75h1.458c.988 0 1.792-.841 1.792-1.875 0-.422-.134-.811-.359-1.125z" fill="#1d83d4"/></svg>