<svg id="color" enable-background="new 0 0 24 24" height="512" viewBox="0 0 24 24" width="512" xmlns="http://www.w3.org/2000/svg"><path d="m12 0c-6.617 0-12 5.383-12 12s5.383 12 12 12 12-5.383 12-12-5.383-12-12-12zm8.4 17.406c-.801-.38-1.702-.7-2.677-.956.208-1.08.341-2.242.387-3.469h3.841c-.159 1.621-.711 3.124-1.551 4.425zm-18.35-4.424h3.841c.046 1.227.179 2.389.387 3.469-.975.255-1.876.575-2.677.956-.841-1.302-1.392-2.805-1.551-4.425zm1.55-6.388c.801.38 1.702.7 2.677.956-.206 1.069-.338 2.219-.386 3.433h-3.839c.163-1.607.714-3.098 1.548-4.389zm9.4 1.636c.947-.038 1.875-.125 2.765-.266.178.925.298 1.937.345 3.018h-3.11zm0-1.999v-3.88c.857.579 1.677 1.864 2.264 3.667-.729.108-1.487.179-2.264.213zm-2-3.88v3.88c-.777-.034-1.535-.105-2.264-.213.587-1.804 1.407-3.089 2.264-3.667zm0 5.879v2.752h-3.11c.048-1.081.167-2.092.345-3.018.89.141 1.818.228 2.765.266zm-3.111 4.752h3.111v2.788c-.947.038-1.875.125-2.765.266-.18-.935-.299-1.96-.346-3.054zm3.111 4.787v3.88c-.857-.579-1.677-1.864-2.264-3.667.729-.108 1.487-.179 2.264-.213zm2 3.88v-3.88c.777.034 1.535.105 2.264.213-.587 1.804-1.407 3.089-2.264 3.667zm0-5.879v-2.788h3.111c-.046 1.094-.166 2.119-.346 3.054-.89-.141-1.818-.228-2.765-.266zm5.109-4.788c-.048-1.214-.181-2.363-.386-3.433.975-.255 1.876-.575 2.677-.956.834 1.292 1.385 2.782 1.548 4.388h-3.839zm1.005-5.999c-.574.243-1.202.454-1.873.631-.321-1.037-.718-1.961-1.183-2.745 1.149.512 2.184 1.23 3.056 2.114zm-11.173-2.114c-.464.784-.861 1.708-1.182 2.745-.672-.177-1.299-.388-1.873-.631.872-.884 1.907-1.602 3.055-2.114zm-3.055 16.148c.574-.243 1.201-.454 1.873-.631.321 1.037.718 1.961 1.183 2.745-1.149-.512-2.184-1.23-3.056-2.114zm11.173 2.114c.464-.784.862-1.708 1.183-2.745.671.177 1.299.388 1.873.631-.873.884-1.908 1.602-3.056 2.114z" fill="#cfd8dc"/><path d="m7.941 21.131c-1.148-.512-2.184-1.23-3.055-2.114.574-.243 1.201-.454 1.873-.631.321 1.037.718 1.961 1.182 2.745zm3.059.518c-.857-.579-1.677-1.864-2.264-3.667.729-.108 1.487-.18 2.264-.213zm-7.4-4.243c-.84-1.301-1.392-2.805-1.55-4.424h3.841c.046 1.227.179 2.389.387 3.469-.976.255-1.877.575-2.678.955zm4.635-1.37c-.18-.935-.3-1.959-.346-3.054h3.111v2.788c-.947.038-1.875.125-2.765.266zm-.345-5.054c.048-1.081.167-2.092.345-3.018.89.141 1.818.228 2.765.266v2.752zm-5.838 0c.163-1.606.714-3.097 1.548-4.388.801.38 1.702.7 2.677.956-.206 1.069-.338 2.219-.386 3.433h-3.839zm4.707-5.368c-.672-.177-1.299-.388-1.873-.631.872-.884 1.907-1.602 3.055-2.114-.464.784-.861 1.708-1.182 2.745zm4.241.617c-.777-.034-1.535-.105-2.264-.213.587-1.804 1.407-3.089 2.264-3.667zm1-6.231c-6.617 0-12 5.383-12 12s5.383 12 12 12z" fill="#b4bcc0"/><g fill="#2196f3"><path d="m22.25 15h-1.5c-.414 0-.75-.336-.75-.75v-4.5c0-.414.336-.75.75-.75h1.5c.965 0 1.75.785 1.75 1.75v2.5c0 .965-.785 1.75-1.75 1.75zm-.75-1.5h.75c.138 0 .25-.112.25-.25v-2.5c0-.138-.112-.25-.25-.25h-.75z"/><path d="m13.25 12.75h-2.5c-.414 0-.75-.336-.75-.75s.336-.75.75-.75h2.5c.414 0 .75.336.75.75s-.336.75-.75.75z"/><path d="m13.25 15h-1.5c-.965 0-1.75-.785-1.75-1.75v-2.5c0-.965.785-1.75 1.75-1.75h1.5c.414 0 .75.336.75.75s-.336.75-.75.75h-1.5c-.138 0-.25.112-.25.25v2.5c0 .138.112.25.25.25h1.5c.414 0 .75.336.75.75s-.336.75-.75.75z"/><path d="m2 15c-.414 0-.75-.336-.75-.75v-4.5c0-.414.336-.75.75-.75s.75.336.75.75v4.5c0 .414-.336.75-.75.75z"/><path d="m3.25 10.5h-2.5c-.414 0-.75-.336-.75-.75s.336-.75.75-.75h2.5c.414 0 .75.336.75.75s-.336.75-.75.75z"/><path d="m5.75 15c-.414 0-.75-.336-.75-.75v-4.5c0-.414.336-.75.75-.75h1.125c1.172 0 2.125.953 2.125 2.125s-.953 2.125-2.125 2.125h-.375v1c0 .414-.336.75-.75.75zm.75-3.25h.375c.345 0 .625-.28.625-.625s-.28-.625-.625-.625h-.375z"/><path d="m8.25 15c-.175 0-.351-.061-.493-.186l-2-1.75c-.312-.273-.344-.747-.071-1.058.272-.311.747-.344 1.058-.071l2 1.75c.312.273.344.747.071 1.058-.149.17-.356.257-.565.257z"/><path d="m18.25 15c-.268 0-.521-.144-.656-.386l-1.094-1.97v1.605c0 .414-.336.75-.75.75-.414.001-.75-.335-.75-.749v-4.5c0-.342.231-.64.562-.726.33-.084.678.063.844.362l1.094 1.97v-1.606c0-.414.336-.75.75-.75s.75.336.75.75v4.5c0 .342-.231.64-.562.726z"/></g><path d="m24 12h-1.5v1.25c0 .138-.112.25-.25.25h-.75v-1.5h-1.5v2.25c0 .414.336.75.75.75h1.5c.965 0 1.75-.785 1.75-1.75z" fill="#1d83d4"/><path d="m14 12h-2.5v.75h1.75c.414 0 .75-.336.75-.75z" fill="#1d83d4"/><path d="m11.5 12h-1.5v1.25c0 .965.785 1.75 1.75 1.75h1.5c.414 0 .75-.336.75-.75s-.336-.75-.75-.75h-1.5c-.138 0-.25-.112-.25-.25v-.5z" fill="#1d83d4"/><path d="m2.75 12h-1.5v2.25c0 .414.336.75.75.75s.75-.336.75-.75z" fill="#1d83d4"/><path d="m5.691 12h-.691v2.25c0 .414.336.75.75.75s.75-.336.75-.75v-.535l-.744-.651c-.312-.273-.344-.747-.071-1.058.002-.002.004-.004.006-.006zm3.12 0h-1.994l1.11.971c.387-.222.699-.562.884-.971z" fill="#1d83d4"/><path d="m6.817 12h-1.126c-.002.002-.004.004-.006.006-.273.312-.241.785.071 1.058l.744.651 1.256 1.099c.142.125.318.186.494.186.209 0 .417-.087.565-.256.273-.312.241-.785-.071-1.058l-.817-.715z" fill="#1d83d4"/><path d="m19 12h-4v2.25c0 .414.336.75.75.75s.75-.336.75-.75v-1.605l1.094 1.97c.135.241.388.385.656.385l.188-.024c.331-.086.562-.384.562-.726z" fill="#1d83d4"/></svg>